<mxfile host="app.diagrams.net" modified="2023-04-15T10:15:53.016Z" agent="Mozilla/5.0 (Windows NT 10.0; Win64; x64) AppleWebKit/537.36 (KHTML, like Gecko) Chrome/107.0.0.0 Safari/537.36" etag="oU5beHyzCPBU9XsFro6i" version="21.1.8" type="github">
  <diagram name="Page-1" id="c7558073-3199-34d8-9f00-42111426c3f3">
    <mxGraphModel dx="2087" dy="899" grid="0" gridSize="10" guides="1" tooltips="1" connect="1" arrows="1" fold="1" page="0" pageScale="1" pageWidth="826" pageHeight="1169" background="none" math="0" shadow="0">
      <root>
        <mxCell id="0" />
        <mxCell id="1" parent="0" />
        <mxCell id="0i12CGgEhQ5gCEq3Bswk-104" value="" style="rounded=0;whiteSpace=wrap;html=1;strokeColor=#7EA6E0;" vertex="1" parent="1">
          <mxGeometry x="-287.03" y="855" width="356.93" height="422" as="geometry" />
        </mxCell>
        <mxCell id="2" value="&lt;p style=&quot;margin: 0px; margin-top: 4px; text-align: center; text-decoration: underline;&quot;&gt;&lt;strong&gt;Process 1&lt;br /&gt;&lt;/strong&gt;&lt;/p&gt;&lt;hr /&gt;&lt;p style=&quot;margin: 0px; margin-left: 8px;&quot;&gt;System Study&lt;/p&gt;&lt;p style=&quot;margin: 0px; margin-left: 8px;&quot;&gt;Preparation&lt;/p&gt;" style="verticalAlign=middle;align=center;overflow=fill;fontSize=12;fontFamily=Helvetica;html=1;rounded=1;fontStyle=1;strokeWidth=3;fillColor=#E6FFCC" parent="1" vertex="1">
          <mxGeometry x="236" y="236" width="110" height="90" as="geometry" />
        </mxCell>
        <mxCell id="3" value="Engineering" style="whiteSpace=wrap;align=center;verticalAlign=middle;fontStyle=1;strokeWidth=3;fillColor=#FFFFCC" parent="1" vertex="1">
          <mxGeometry x="246" y="126" width="90" height="60" as="geometry" />
        </mxCell>
        <mxCell id="4" value="Investors" style="whiteSpace=wrap;align=center;verticalAlign=middle;fontStyle=1;strokeWidth=3;fillColor=#FFFFCC" parent="1" vertex="1">
          <mxGeometry x="40" y="251" width="90" height="60" as="geometry" />
        </mxCell>
        <mxCell id="5" value="ON-DEMAND SYSTEM DEVELOPMENT" style="shape=process;whiteSpace=wrap;align=center;verticalAlign=middle;size=0.0475;fontStyle=1;strokeWidth=3;fillColor=#FFCCCC" parent="1" vertex="1">
          <mxGeometry x="200.99999999999991" y="391" width="400" height="50" as="geometry" />
        </mxCell>
        <mxCell id="6" value="&lt;p style=&quot;margin: 0px; margin-top: 4px; text-align: center; text-decoration: underline;&quot;&gt;&lt;strong&gt;Process 2&lt;br /&gt;&lt;/strong&gt;&lt;/p&gt;&lt;hr /&gt;&lt;p style=&quot;margin: 0px; margin-left: 8px;&quot;&gt;System Analysis&lt;/p&gt;" style="verticalAlign=middle;align=center;overflow=fill;fontSize=12;fontFamily=Helvetica;html=1;rounded=1;fontStyle=1;strokeWidth=3;fillColor=#E6FFCC" parent="1" vertex="1">
          <mxGeometry x="390" y="146" width="110" height="90" as="geometry" />
        </mxCell>
        <mxCell id="7" value="&lt;p style=&quot;margin: 0px; margin-top: 4px; text-align: center; text-decoration: underline;&quot;&gt;&lt;strong&gt;&lt;strong&gt;Process&lt;/strong&gt; 3&lt;br /&gt;&lt;/strong&gt;&lt;/p&gt;&lt;hr /&gt;&lt;p style=&quot;margin: 0px; margin-left: 8px;&quot;&gt;List Possible&lt;/p&gt;&lt;p style=&quot;margin: 0px; margin-left: 8px;&quot;&gt;System Solutions&lt;/p&gt;" style="verticalAlign=middle;align=center;overflow=fill;fontSize=12;fontFamily=Helvetica;html=1;rounded=1;fontStyle=1;strokeWidth=3;fillColor=#E6FFCC" parent="1" vertex="1">
          <mxGeometry x="681" y="371" width="110" height="90" as="geometry" />
        </mxCell>
        <mxCell id="8" value="&lt;p style=&quot;margin: 0px; margin-top: 4px; text-align: center; text-decoration: underline;&quot;&gt;&lt;strong&gt;&lt;strong&gt;Process&lt;/strong&gt; 4&lt;br /&gt;&lt;/strong&gt;&lt;/p&gt;&lt;hr /&gt;&lt;p style=&quot;margin: 0px; margin-left: 8px;&quot;&gt;Detail Chosen&lt;/p&gt;&lt;p style=&quot;margin: 0px; margin-left: 8px;&quot;&gt;Solution&lt;/p&gt;" style="verticalAlign=middle;align=center;overflow=fill;fontSize=12;fontFamily=Helvetica;html=1;rounded=1;fontStyle=1;strokeWidth=3;fillColor=#E6FFCC" parent="1" vertex="1">
          <mxGeometry x="560" y="241" width="110" height="90" as="geometry" />
        </mxCell>
        <mxCell id="9" value="&lt;p style=&quot;margin: 0px; margin-top: 4px; text-align: center; text-decoration: underline;&quot;&gt;&lt;strong&gt;&lt;strong&gt;Process&lt;/strong&gt; 5&lt;br /&gt;&lt;/strong&gt;&lt;/p&gt;&lt;hr /&gt;&lt;p style=&quot;margin: 0px; margin-left: 8px;&quot;&gt;New System&lt;/p&gt;&lt;p style=&quot;margin: 0px; margin-left: 8px;&quot;&gt;Design&lt;/p&gt;" style="verticalAlign=middle;align=center;overflow=fill;fontSize=12;fontFamily=Helvetica;html=1;rounded=1;fontStyle=1;strokeWidth=3;fillColor=#E6FFCC" parent="1" vertex="1">
          <mxGeometry x="540" y="510" width="110" height="90" as="geometry" />
        </mxCell>
        <mxCell id="10" value="&lt;p style=&quot;margin: 0px; margin-top: 4px; text-align: center; text-decoration: underline;&quot;&gt;&lt;strong&gt;&lt;strong&gt;Process&lt;/strong&gt; 6&lt;br /&gt;&lt;/strong&gt;&lt;/p&gt;&lt;hr /&gt;&lt;p style=&quot;margin: 0px; margin-left: 8px;&quot;&gt;New&lt;/p&gt;&lt;p style=&quot;margin: 0px; margin-left: 8px;&quot;&gt;System&lt;/p&gt;&lt;p style=&quot;margin: 0px; margin-left: 8px;&quot;&gt;Construction&lt;/p&gt;" style="verticalAlign=middle;align=center;overflow=fill;fontSize=12;fontFamily=Helvetica;html=1;rounded=1;fontStyle=1;strokeWidth=3;fillColor=#E6FFCC" parent="1" vertex="1">
          <mxGeometry x="188.49999999999991" y="510" width="110" height="90" as="geometry" />
        </mxCell>
        <mxCell id="12" value="Management" style="whiteSpace=wrap;align=center;verticalAlign=middle;fontStyle=1;strokeWidth=3;fillColor=#FFFFCC" parent="1" vertex="1">
          <mxGeometry x="691" y="60.00000000000002" width="90" height="60" as="geometry" />
        </mxCell>
        <mxCell id="13" value="Management" style="whiteSpace=wrap;align=center;verticalAlign=middle;fontStyle=1;strokeWidth=3;fillColor=#FFFFCC" parent="1" vertex="1">
          <mxGeometry x="353.50000000000006" y="650" width="90" height="60" as="geometry" />
        </mxCell>
        <mxCell id="14" value="Engineering" style="whiteSpace=wrap;align=center;verticalAlign=middle;fontStyle=1;strokeWidth=3;fillColor=#FFFFCC" parent="1" vertex="1">
          <mxGeometry x="34.99999999999997" y="524.9999999999999" width="90" height="60" as="geometry" />
        </mxCell>
        <mxCell id="15" value="Vendors" style="whiteSpace=wrap;align=center;verticalAlign=middle;fontStyle=1;strokeWidth=3;fillColor=#FFFFCC" parent="1" vertex="1">
          <mxGeometry x="549.9999999999999" y="650" width="90" height="60" as="geometry" />
        </mxCell>
        <mxCell id="36" value="" style="edgeStyle=none;noEdgeStyle=1;strokeColor=#990000;strokeWidth=2" parent="1" source="3" target="2" edge="1">
          <mxGeometry width="100" height="100" relative="1" as="geometry">
            <mxPoint x="20" y="250" as="sourcePoint" />
            <mxPoint x="120" y="150" as="targetPoint" />
          </mxGeometry>
        </mxCell>
        <mxCell id="37" value="" style="edgeStyle=none;noEdgeStyle=1;strokeColor=#990000;strokeWidth=2" parent="1" source="4" target="2" edge="1">
          <mxGeometry width="100" height="100" relative="1" as="geometry">
            <mxPoint x="280" y="190" as="sourcePoint" />
            <mxPoint x="380" y="90" as="targetPoint" />
          </mxGeometry>
        </mxCell>
        <mxCell id="11" value="&lt;p style=&quot;margin: 0px; margin-top: 4px; text-align: center; text-decoration: underline;&quot;&gt;&lt;strong&gt;&lt;strong&gt;Process&lt;/strong&gt; 7&lt;br /&gt;&lt;/strong&gt;&lt;/p&gt;&lt;hr /&gt;&lt;p style=&quot;margin: 0px; margin-left: 8px;&quot;&gt;New System&lt;/p&gt;&lt;p style=&quot;margin: 0px; margin-left: 8px;&quot;&gt;Startup and&lt;/p&gt;&lt;p style=&quot;margin: 0px; margin-left: 8px;&quot;&gt;Testing&lt;/p&gt;" style="verticalAlign=middle;align=center;overflow=fill;fontSize=12;fontFamily=Helvetica;html=1;rounded=1;fontStyle=1;strokeWidth=3;fillColor=#E6FFCC" parent="1" vertex="1">
          <mxGeometry x="343.49999999999994" y="510" width="110" height="90" as="geometry" />
        </mxCell>
        <mxCell id="51" value="" style="endArrow=none;noEdgeStyle=1;strokeColor=#990000;strokeWidth=2" parent="1" source="9" target="11" edge="1">
          <mxGeometry relative="1" as="geometry">
            <mxPoint x="205.00819672131135" y="481" as="sourcePoint" />
            <mxPoint x="400.32786885245895" y="650" as="targetPoint" />
          </mxGeometry>
        </mxCell>
        <mxCell id="52" value="Desired &#xa;functionality" style="text;spacingTop=-5;align=center" parent="1" vertex="1">
          <mxGeometry x="165" y="251" width="30" height="20" as="geometry" />
        </mxCell>
        <mxCell id="53" value="Desired &#xa;functionality" style="text;spacingTop=-5;align=center" parent="1" vertex="1">
          <mxGeometry x="241" y="196" width="30" height="20" as="geometry" />
        </mxCell>
        <mxCell id="54" value="Documentation&#xa;from similar projects" style="text;spacingTop=-5;align=center" parent="1" vertex="1">
          <mxGeometry x="186" y="341" width="30" height="20" as="geometry" />
        </mxCell>
        <mxCell id="55" value="" style="edgeStyle=elbowEdgeStyle;elbow=horizontal;strokeColor=#990000;strokeWidth=2" parent="1" source="5" target="2" edge="1">
          <mxGeometry width="100" height="100" relative="1" as="geometry">
            <mxPoint x="50" y="530" as="sourcePoint" />
            <mxPoint x="150" y="430" as="targetPoint" />
            <Array as="points">
              <mxPoint x="260" y="370" />
            </Array>
          </mxGeometry>
        </mxCell>
        <mxCell id="56" value="" style="edgeStyle=elbowEdgeStyle;elbow=horizontal;strokeColor=#990000;strokeWidth=2" parent="1" source="2" target="5" edge="1">
          <mxGeometry width="100" height="100" relative="1" as="geometry">
            <mxPoint x="50" y="500" as="sourcePoint" />
            <mxPoint x="150" y="400" as="targetPoint" />
            <Array as="points">
              <mxPoint x="280" y="360" />
            </Array>
          </mxGeometry>
        </mxCell>
        <mxCell id="57" value="Elaborate&#xa;cost/benefit&#xa;ratio" style="text;spacingTop=-5;align=center" parent="1" vertex="1">
          <mxGeometry x="306" y="341" width="30" height="20" as="geometry" />
        </mxCell>
        <mxCell id="58" value="" style="edgeStyle=elbowEdgeStyle;elbow=horizontal;strokeColor=#990000;strokeWidth=2" parent="1" source="5" target="6" edge="1">
          <mxGeometry width="100" height="100" relative="1" as="geometry">
            <mxPoint x="380" y="370" as="sourcePoint" />
            <mxPoint x="480" y="270" as="targetPoint" />
            <Array as="points">
              <mxPoint x="440" y="310" />
            </Array>
          </mxGeometry>
        </mxCell>
        <mxCell id="59" value="" style="edgeStyle=elbowEdgeStyle;elbow=horizontal;strokeColor=#990000;strokeWidth=2" parent="1" source="6" target="5" edge="1">
          <mxGeometry width="100" height="100" relative="1" as="geometry">
            <mxPoint x="350" y="370" as="sourcePoint" />
            <mxPoint x="450" y="270" as="targetPoint" />
            <Array as="points">
              <mxPoint x="460" y="320" />
            </Array>
          </mxGeometry>
        </mxCell>
        <mxCell id="60" value="Existing&#xa;documentation" style="text;spacingTop=-5;align=center" parent="1" vertex="1">
          <mxGeometry x="380.0000000000001" y="280.99999999999983" width="30" height="20" as="geometry" />
        </mxCell>
        <mxCell id="61" value="Necessary&#xa;resources" style="text;spacingTop=-5;align=center" parent="1" vertex="1">
          <mxGeometry x="481.0000000000002" y="251.00000000000006" width="30" height="20" as="geometry" />
        </mxCell>
        <mxCell id="62" value="Progress&#xa;reports" style="text;spacingTop=-5;align=center" parent="1" vertex="1">
          <mxGeometry x="545.0000000000001" y="100.00000000000003" width="30" height="20" as="geometry" />
        </mxCell>
        <mxCell id="63" value="Progress&#xa;reports" style="text;spacingTop=-5;align=center" parent="1" vertex="1">
          <mxGeometry x="640" y="146.0000000000001" width="30" height="20" as="geometry" />
        </mxCell>
        <mxCell id="64" value="Progress&#xa;reports" style="text;spacingTop=-5;align=center" parent="1" vertex="1">
          <mxGeometry x="751.0000000000001" y="261.0000000000001" width="30" height="20" as="geometry" />
        </mxCell>
        <mxCell id="65" value="" style="edgeStyle=elbowEdgeStyle;elbow=horizontal;strokeColor=#990000;strokeWidth=2" parent="1" source="6" target="12" edge="1">
          <mxGeometry width="100" height="100" relative="1" as="geometry">
            <mxPoint x="260" y="180.0000000000001" as="sourcePoint" />
            <mxPoint x="360" y="80.00000000000011" as="targetPoint" />
            <Array as="points">
              <mxPoint x="445" y="140" />
            </Array>
          </mxGeometry>
        </mxCell>
        <mxCell id="66" value="" style="edgeStyle=elbowEdgeStyle;elbow=vertical;entryX=0.25;entryY=1;strokeColor=#990000;strokeWidth=2" parent="1" source="8" target="12" edge="1">
          <mxGeometry width="100" height="100" relative="1" as="geometry">
            <mxPoint x="530" y="250" as="sourcePoint" />
            <mxPoint x="630" y="150" as="targetPoint" />
          </mxGeometry>
        </mxCell>
        <mxCell id="67" value="" style="edgeStyle=elbowEdgeStyle;elbow=horizontal;strokeColor=#990000;strokeWidth=2" parent="1" source="7" target="12" edge="1">
          <mxGeometry width="100" height="100" relative="1" as="geometry">
            <mxPoint x="660.0000000000002" y="360" as="sourcePoint" />
            <mxPoint x="760.0000000000002" y="260" as="targetPoint" />
          </mxGeometry>
        </mxCell>
        <mxCell id="68" value="" style="edgeStyle=elbowEdgeStyle;elbow=horizontal;strokeColor=#990000;strokeWidth=2" parent="1" source="8" target="5" edge="1">
          <mxGeometry width="100" height="100" relative="1" as="geometry">
            <mxPoint x="570" y="380" as="sourcePoint" />
            <mxPoint x="510" y="250" as="targetPoint" />
            <Array as="points">
              <mxPoint x="570" y="360" />
            </Array>
          </mxGeometry>
        </mxCell>
        <mxCell id="69" value="" style="edgeStyle=segmentEdgeStyle;strokeColor=#990000;strokeWidth=2" parent="1" source="5" target="8" edge="1">
          <mxGeometry width="100" height="100" relative="1" as="geometry">
            <mxPoint x="340" y="360" as="sourcePoint" />
            <mxPoint x="440" y="260" as="targetPoint" />
            <Array as="points">
              <mxPoint x="520" y="286" />
            </Array>
          </mxGeometry>
        </mxCell>
        <mxCell id="70" value="Existing&#xa;Models" style="text;spacingTop=-5;align=center" parent="1" vertex="1">
          <mxGeometry x="530.0000000000002" y="340.9999999999999" width="30" height="20" as="geometry" />
        </mxCell>
        <mxCell id="71" value="Equipment&#xa;specification" style="text;spacingTop=-5;align=center" parent="1" vertex="1">
          <mxGeometry x="615" y="341" width="30" height="20" as="geometry" />
        </mxCell>
        <mxCell id="72" value="" style="edgeStyle=elbowEdgeStyle;elbow=vertical;strokeColor=#990000;strokeWidth=2" parent="1" source="5" target="7" edge="1">
          <mxGeometry width="100" height="100" relative="1" as="geometry">
            <mxPoint x="500" y="500" as="sourcePoint" />
            <mxPoint x="600" y="400" as="targetPoint" />
            <Array as="points">
              <mxPoint x="650" y="410" />
            </Array>
          </mxGeometry>
        </mxCell>
        <mxCell id="73" value="" style="edgeStyle=elbowEdgeStyle;elbow=vertical;strokeColor=#990000;strokeWidth=2" parent="1" source="7" target="5" edge="1">
          <mxGeometry width="100" height="100" relative="1" as="geometry">
            <mxPoint x="460" y="500" as="sourcePoint" />
            <mxPoint x="560" y="400" as="targetPoint" />
            <Array as="points">
              <mxPoint x="650" y="430" />
            </Array>
          </mxGeometry>
        </mxCell>
        <mxCell id="74" value="Resources" style="text;spacingTop=-5;align=center" parent="1" vertex="1">
          <mxGeometry x="621" y="390.99999999999994" width="30" height="20" as="geometry" />
        </mxCell>
        <mxCell id="75" value="System &#xa;Advantages &#xa;and Limitations" style="text;spacingTop=-5;align=center" parent="1" vertex="1">
          <mxGeometry x="630" y="431.0000000000001" width="30" height="20" as="geometry" />
        </mxCell>
        <mxCell id="76" value="" style="edgeStyle=elbowEdgeStyle;elbow=horizontal;strokeColor=#990000;strokeWidth=2" parent="1" source="9" target="5" edge="1">
          <mxGeometry width="100" height="100" relative="1" as="geometry">
            <mxPoint x="420" y="580" as="sourcePoint" />
            <mxPoint x="520" y="480" as="targetPoint" />
            <Array as="points">
              <mxPoint x="570" y="470" />
            </Array>
          </mxGeometry>
        </mxCell>
        <mxCell id="77" value="" style="edgeStyle=elbowEdgeStyle;elbow=horizontal;strokeColor=#990000;strokeWidth=2" parent="1" source="5" target="9" edge="1">
          <mxGeometry width="100" height="100" relative="1" as="geometry">
            <mxPoint x="400" y="590" as="sourcePoint" />
            <mxPoint x="500" y="490" as="targetPoint" />
            <Array as="points">
              <mxPoint x="560" y="480" />
            </Array>
          </mxGeometry>
        </mxCell>
        <mxCell id="78" value="" style="edgeStyle=elbowEdgeStyle;elbow=horizontal;strokeColor=#990000;strokeWidth=2" parent="1" source="15" target="9" edge="1">
          <mxGeometry width="100" height="100" relative="1" as="geometry">
            <mxPoint x="430" y="700" as="sourcePoint" />
            <mxPoint x="530" y="600" as="targetPoint" />
          </mxGeometry>
        </mxCell>
        <mxCell id="79" value="Hardware and&#xa;Software specs" style="text;spacingTop=-5;align=center" parent="1" vertex="1">
          <mxGeometry x="625" y="610" width="30" height="20" as="geometry" />
        </mxCell>
        <mxCell id="81" value="" style="edgeStyle=elbowEdgeStyle;elbow=horizontal;exitX=0;exitY=0.75;strokeColor=#990000;strokeWidth=2" parent="1" source="9" target="13" edge="1">
          <mxGeometry width="100" height="100" relative="1" as="geometry">
            <mxPoint x="420" y="730" as="sourcePoint" />
            <mxPoint x="520" y="630" as="targetPoint" />
            <Array as="points">
              <mxPoint x="470" y="630" />
            </Array>
          </mxGeometry>
        </mxCell>
        <mxCell id="82" value="Progress&#xa;Reports" style="text;spacingTop=-5;align=center" parent="1" vertex="1">
          <mxGeometry x="481.0000000000004" y="610.0000000000001" width="30" height="20" as="geometry" />
        </mxCell>
        <mxCell id="83" value="" style="edgeStyle=elbowEdgeStyle;elbow=horizontal;strokeColor=#990000;strokeWidth=2" parent="1" source="11" target="13" edge="1">
          <mxGeometry width="100" height="100" relative="1" as="geometry">
            <mxPoint x="200" y="660.0000000000002" as="sourcePoint" />
            <mxPoint x="230.0000000000001" y="650" as="targetPoint" />
          </mxGeometry>
        </mxCell>
        <mxCell id="84" value="Progress&#xa;Reports" style="text;spacingTop=-5;align=center" parent="1" vertex="1">
          <mxGeometry x="410.00000000000017" y="610.0000000000002" width="30" height="20" as="geometry" />
        </mxCell>
        <mxCell id="85" value="" style="edgeStyle=elbowEdgeStyle;elbow=horizontal;strokeColor=#990000;strokeWidth=2" parent="1" source="10" target="13" edge="1">
          <mxGeometry width="100" height="100" relative="1" as="geometry">
            <mxPoint x="130.0000000000001" y="740" as="sourcePoint" />
            <mxPoint x="230.0000000000001" y="640" as="targetPoint" />
            <Array as="points">
              <mxPoint x="244" y="630" />
            </Array>
          </mxGeometry>
        </mxCell>
        <mxCell id="86" value="Progress&#xa;Reports" style="text;spacingTop=-5;align=center" parent="1" vertex="1">
          <mxGeometry x="255.99999999999994" y="650.0000000000001" width="30" height="20" as="geometry" />
        </mxCell>
        <mxCell id="87" value="" style="edgeStyle=elbowEdgeStyle;elbow=vertical;strokeColor=#990000;strokeWidth=2" parent="1" source="10" target="14" edge="1">
          <mxGeometry width="100" height="100" relative="1" as="geometry">
            <mxPoint x="70" y="740" as="sourcePoint" />
            <mxPoint x="170" y="640" as="targetPoint" />
          </mxGeometry>
        </mxCell>
        <mxCell id="88" value="" style="edgeStyle=elbowEdgeStyle;elbow=horizontal;strokeColor=#990000;strokeWidth=2" parent="1" source="5" target="11" edge="1">
          <mxGeometry width="100" height="100" relative="1" as="geometry">
            <mxPoint x="50" y="500" as="sourcePoint" />
            <mxPoint x="150" y="400" as="targetPoint" />
            <Array as="points">
              <mxPoint x="390" y="470" />
            </Array>
          </mxGeometry>
        </mxCell>
        <mxCell id="89" value="" style="edgeStyle=elbowEdgeStyle;elbow=horizontal;strokeColor=#990000;strokeWidth=2" parent="1" source="11" target="5" edge="1">
          <mxGeometry width="100" height="100" relative="1" as="geometry">
            <mxPoint x="59.999999999999886" y="510" as="sourcePoint" />
            <mxPoint x="159.9999999999999" y="410" as="targetPoint" />
            <Array as="points">
              <mxPoint x="410" y="470" />
            </Array>
          </mxGeometry>
        </mxCell>
        <mxCell id="90" value="Version&#xa;specs" style="text;spacingTop=-5;align=center" parent="1" vertex="1">
          <mxGeometry x="261" y="461" width="30" height="20" as="geometry" />
        </mxCell>
        <mxCell id="91" value="Certificates,&#xa;system&#xa;libraries" style="text;spacingTop=-5;align=center" parent="1" vertex="1">
          <mxGeometry x="180" y="461.0000000000002" width="30" height="20" as="geometry" />
        </mxCell>
        <mxCell id="92" value="" style="edgeStyle=elbowEdgeStyle;elbow=horizontal;strokeColor=#990000;strokeWidth=2" parent="1" source="5" target="10" edge="1">
          <mxGeometry width="100" height="100" relative="1" as="geometry">
            <mxPoint x="30.000000000000114" y="500" as="sourcePoint" />
            <mxPoint x="130.0000000000001" y="400" as="targetPoint" />
            <Array as="points">
              <mxPoint x="250" y="470" />
            </Array>
          </mxGeometry>
        </mxCell>
        <mxCell id="93" value="" style="edgeStyle=elbowEdgeStyle;elbow=horizontal;strokeColor=#990000;strokeWidth=2" parent="1" source="10" target="5" edge="1">
          <mxGeometry width="100" height="100" relative="1" as="geometry">
            <mxPoint x="40" y="510" as="sourcePoint" />
            <mxPoint x="140" y="410" as="targetPoint" />
            <Array as="points">
              <mxPoint x="230" y="470" />
            </Array>
          </mxGeometry>
        </mxCell>
        <mxCell id="94" value="System&#xa;specs" style="text;spacingTop=-5;align=center" parent="1" vertex="1">
          <mxGeometry x="139.99999999999994" y="565.0000000000001" width="30" height="20" as="geometry" />
        </mxCell>
        <mxCell id="95" value="Design&#xa;specs" style="text;spacingTop=-5;align=center" parent="1" vertex="1">
          <mxGeometry x="423.49999999999994" y="461.0000000000002" width="30" height="20" as="geometry" />
        </mxCell>
        <mxCell id="96" value="System&#xa;version" style="text;spacingTop=-5;align=center" parent="1" vertex="1">
          <mxGeometry x="350.9999999999998" y="461" width="30" height="20" as="geometry" />
        </mxCell>
        <mxCell id="0i12CGgEhQ5gCEq3Bswk-99" value="&lt;p style=&quot;margin: 4px 0px 0px; text-align: center;&quot;&gt;&lt;strong style=&quot;&quot;&gt;&lt;font style=&quot;font-size: 18px;&quot;&gt;POD&lt;/font&gt;&lt;/strong&gt;&lt;/p&gt;&lt;hr&gt;&lt;p style=&quot;margin: 0px; margin-left: 8px;&quot;&gt;&lt;font size=&quot;3&quot;&gt;云查杀&lt;/font&gt;&lt;/p&gt;" style="verticalAlign=middle;align=center;overflow=fill;fontSize=12;fontFamily=Helvetica;html=1;rounded=1;fontStyle=1;strokeWidth=3;fillColor=#E6FFCC" vertex="1" parent="1">
          <mxGeometry x="216" y="1098" width="98" height="73" as="geometry" />
        </mxCell>
        <mxCell id="0i12CGgEhQ5gCEq3Bswk-102" style="rounded=0;orthogonalLoop=1;jettySize=auto;html=1;exitX=1;exitY=0.5;exitDx=0;exitDy=0;entryX=0;entryY=0.5;entryDx=0;entryDy=0;" edge="1" parent="1" source="0i12CGgEhQ5gCEq3Bswk-100" target="0i12CGgEhQ5gCEq3Bswk-99">
          <mxGeometry relative="1" as="geometry" />
        </mxCell>
        <mxCell id="0i12CGgEhQ5gCEq3Bswk-100" value="docker-compose.yml" style="whiteSpace=wrap;align=center;verticalAlign=middle;fontStyle=1;strokeWidth=3;fillColor=#FFFFCC;fontSize=18;" vertex="1" parent="1">
          <mxGeometry x="-161" y="1115" width="141" height="71" as="geometry" />
        </mxCell>
        <mxCell id="0i12CGgEhQ5gCEq3Bswk-103" style="rounded=0;orthogonalLoop=1;jettySize=auto;html=1;entryX=0;entryY=0.5;entryDx=0;entryDy=0;" edge="1" parent="1" source="0i12CGgEhQ5gCEq3Bswk-101" target="0i12CGgEhQ5gCEq3Bswk-99">
          <mxGeometry relative="1" as="geometry" />
        </mxCell>
        <mxCell id="0i12CGgEhQ5gCEq3Bswk-101" value="" style="shape=image;verticalLabelPosition=bottom;labelBackgroundColor=default;verticalAlign=top;aspect=fixed;imageAspect=0;image=data:image/png,iVBORw0KGgoAAAANSUhEUgAAAggAAAFcCAYAAACtC0YfAAAAAXNSR0IArs4c6QAAIABJREFUeF7svflzJMl1Jvi5e0RkJq4CUHdVV99XsZtsNo8hm9RpO+SIOqnZMY1G1NrajM3M/rb716zZ2v4yuzs2MtO5XOo0iaRxqBYp8RCb7GYf7K6u7rqrUAfOPCLC3de+5xGZiSwcCVQBSAARtGJ1AXF4PHcP//y9731Pee89qqOyQGWBtS3A6aHU+tYpfz94XjmtNrq2snllgcoCQDXHRnYUqAogjGzfVA0bFQus9QEbBAAVIBiV3qrasR8tUM2xkey1CiCMZLdUjRopCwwDBvodcZXXYKS6r2rMPrDAMB64ao7tekdWAGHXTV49cKQtsJ67c70PWPkyFSgY6W6tGjdCFqjm2Ah1xsZNqQDCvumqqqEPbIHNYp18wHqhgrV+XoUVHrhLqhscMAtUc+xAdWgFEA5Ud1Yvs6EF1otzDu7+N9rh8AGVt6AaaJUF1rbAg8yxKoQwcqOqAggj1yVVg3bMAutxCQbDBBt5CyqAsGPdU934AFigmmMHoBN7r1ABhAPVndXLbGqBjdIS+z0Da2X/Vp6DTc1bnVBZoJu2uBZvp5pj+2qAVABhX3VX1dgHtsBGbsyNiIgVOHhg01c3OCQWqObYgenoCiAcmK6sXmRdCwyTQsWLK9JhNYgqC2zPAluZYxXY3p6N9+CqCiDsgdGrR+6iBdbazWwlU2EXm1o9qrLAvrRANcf2ZbcN0+gKIAxjpeqc/WmBjVKuNgIJ1Q5nf/Z31erdt0A1x3bf5rv4xAog7KKxq0ftogWGCRcMk7O9i02uHlVZYF9ZoJpj+6q7ttPYCiBsx2rVNaNngWFjoP0tH+YDN3pvWrWossDeWKCaY3tj9z18agUQ9tD41aMfggUG0xEH06iGFUF6CE05sLco670qoPxP/i01Lvtqwa42de+i0EUeqjyh6DOneA/+rzx4ogc8f6LglSuf0j2HxWfviwB1F65wrVeq26zQRg8lDeYDe78L91LF73ptKAvc9p4T2sO23f87XqeKzL4Nqn7u58FRzbH93HsP1PYKIDyQ+aqL99QC/R6AYYhSlcdg6O7qrwIvi2tYB8P67b0swJqLrbbyb1lo+5d6uYYLZ4EqVA8gEBhoVtEG4OCgvINyHl4bQBu5t3ce1jko6AIs9IEM3rJYi/lb3ksu4s8t4JQHoUVorwdxhvEemi+iCwAhWIHt89DyDN7AQU7uRz1yU3lK+H1pigGUwvfsAqChrbwPTqzm2D7opJ1rYgUQds621Z130gLDZiJUgkfb6gXn+hbD4g5c2IvVW3bMBAjKuC5AkNO6HgWerAUgBAARFl7+2iojazcXdscVvQAMYSvPZTicR3BAb4CDlp/Jmq8U0twSVoRWOY+o+G+2xxgLzcVa7sHn0nugxXOglBHgIe3RYUEXINR1hYS2lOgj+A1KNKLlXr2DgKF3dEHSQSK4rjXHNvpZv0EOkh22NYMOxkUVQDgY/Xj43mJYgHD4LPNQ3rhc8HoLdnDNO3BxDgcX0ER218W/xbvQjRCEUIBXcN4Bmlt7D2+dLNRWK1ilYJ1GJ3doA+hoj1bucG/FYbmdw+YtpB7IvUfGJV9Ai0Kr3YGzxUO9Ry2JEcWxtCdSKQw0YmMQK2AsjjA1NoaJeoSJ2CP2DjWtkRQeAV04OOhzcMpCKw3lk+L9PGJCE/EOBJASXknRTbHa0QAr3gmed2ACDdUceyhzaT/fpAII+7n3DnPbq4/XjvW+hBDoetf0AHikXBqVBvf9CnlYMLnAqhyRj6UdHhZ5HnbmTjtE3shOXkCFd0htjk5k0FEaC3mGlcxiKbWYW+zg0s27mG+nWM49OtrAogarYmhbogAgd+FeEspgu8QjUYhbETgUq3KCBE68DkQqDhEsElgYn6Hmc4zHwPGpcZw7Po0T0+OoKY9xYzAVa8RZC9qmiKMYUVQDlEGutIAavmEivAjem1igHwjwvRksMfK7qMuc2LEu2p0bV3Nsd+w8wk+pAMIId07VtD51w+42tW9/tlaa4lpchMqQW7JA4Bi4wDHwHjl3x4pxfC76WtwE4povgIIz3OHn8IowQaFjNZbTDMtpjnudFAsdh8Vc4UYrxb3U424nR6eVIs8svI7hlIFREQhBeNBHwf9pchJK74SEK4owg/AIAkCQMEDJi/CBe6BiciOceCwYxtBsFXkO/D3/bWI4l0NnOSbjBDNJjPFE4eh4jKMTdTS0w3QtwnRN40gSYTwySOTZ9BDwCRZe9WBAsBb/n2wGjUjIl/vo2A4Jca35uI9euWrqcBaoAMJwdqrO2m0LbJV0OHh+RUjcdo8FgJAHgBDoiFBOkzwA6zNAp8WqnAipsOU1mtbjVp7j4p1FXF5KcXMhxXJq0UaOTHbiMbzToFMgRh3kOJBMSI+DeCqEL+Bk1y9AwAFRX/gCRss1ZXu4uy8BQpn1ENz/XKwzeJOFWIc3gX9A8OG4wJOsGN7L5jmMiWDzdheM6MhAkxyZp5hKFM5MGZyaMHjixCTOJgmmI41x7+AMuYu98IohWBKOo2acY38ghAeZY/2jq+IbbHuujfqFFUAY9R46rO0b1r253u6nAghbHjn9mQshby9E3elUd5ZAwcAaBhoypHmGO+0Md5zB1bbCjy7P4dp8jswbZDqC1jG89bJGG1lM00D4UyqQG+kFkChAjwwpqIAXuARg6IJgpDj6zyKQUDoPv/H0LDDzocg2cJ0io4K/5C6/XMR5TgylrfyBSrv35s6//yCRkaEMIyzKFmyawecWx6IaXn76BM4eyXFybAxHVIRpwR+8g0FUZFDoKNwv+BQGfAnruBZWZY3s1oK7GeFwIC21a6PBn+9We7c8oqsLHtQCFUB4UAtW1++MBYYFCOs9fa3ww8609EDelXiAbnkvi7RGpg2acOItuH53BZfmM1yYW8b1PEUzy2FNDJ82wJwCJx4BkhFReAfokk9DGiD/FGmRoYu57S5CBz4CuAMvMh6c6t+h98wcwgsFeKAXogAKbKezxeIs/V/8TlwNXKp577B0rz4GVu0yh5JYRUgUzKNQyIyHsRnGtMd0PcbZhsLHjzVwbirBZKOGRBMmeMTFO8pj5bnF/Uct7vAgc6wC4Ady3g++VAUQDkU3j/hLbvVDtdniX328hurwVR6DwSWT/EBNSiLQVsCtzOMnN+7gn69ew42mQxbPIrcaiSd3oEhfiMj0py5CLgDBGKYG0lPARTuGdVbCBLpg+wcypIFiGEAWUy7oBAx8OP/eYEXteo54Dq8nN8LAq07wUgjBkgCn5CqUIkwh9bIrpCB4oUeGDA0xMFEkxEvr6PngEzTavgWjEhjUoDIDxDmsvYuZhsYLx47i5TPH8ESs0YiBhBdlfjVjscyo3KR3dkRPYaM5tpadqzk21Bw66CdVAOGg9/Cov99mBKmwcqx+i80AxVrXjLodHmr7egqE/cFwUQYoVQVlCQ6xciULJsMJ3Olz16xxL2vjwuIKbiznuLqY4v07bSy4OlQUwYmOQIRYAykXeZIBGUfg7l+c/WFR7u3f718ZS6WCfvEh6bY+lzxJheVRburDv/sWeHofCCgK9UV6CgKBstROKnfvQSiJPIgiWbF7b12AiNBm3ip4IYQAyf8O+kqSnWGZmeGYCqn5KBBGqCxHjha0auLMZILHp8bw6OwUjicaT4zXEXmCpZCBYYQ7EQQllChGhaeWxFAJ5GgqOzxEd0M1xx7q7DpMN6sAwmHq7VF718FdykYx0SrOOWTvBYJhWESDCqEIHJWLn/eIi4A+dQeMAASy/BXazuO6U7gw38Z71+7hwtISmryHbiD3GlZSDcu4uinkhYds1rqn9S+Eg67/B733RtdvtACv3Q6CBcEe4vmg4bR4Q2SBt21RfhQA4DXGY4cTNeDpcYvPPH0Os7FFQzMTJJKuYdDCUOFRwiuBfOm0JJQiQqNQkHzA9x92PlUetwc09MG9vAIIB7dv99ebbbbLqQDCkP15P0CwqzJDewDBkeznUrS8wW0b4ae3V/DjuRV8uNxB6jVyZgrmHolhtoKHjrhbT4MaoU2gVK3gKAzZtDVP208AIaR9ht1+4FNI6+VvJ+ETE1EEivoQGmmWCyiYzdv41GPH8eypIzibeEz6pmRN5HockYRVLBNJoRTloOhUqO+MkkI1xx5koB7KayuAcCi7fY9eer24Zv/Pq93MA3ZOCRC4sWXGQSH0w/Q/erc9RYO4T42xAoU7LsePri/izZsdXF4G2oybG/rOHWKdwOYECVrc8863iyIK3DmX/ILd3PU/oGke+PLiXSWcQcJj4DWE0A2zMxhHoP1SEYoi96LjFHS7jbpt48jkBJ44OYZ/8UiEp+rjmJAMjFxSRakfQQYHa0aooh5F2dwtcRKqOfbAvVzdoGeBCiBUo2H3LLCey3OwAmOxK9u9hh2sJzHzQJaygvzncovIKKSGJEGLVMe4cC/D9z64hcsdh6tLTEWckhg7dA7HEIVoBpQFiCLh8YlMgRRdIueADwgyxIfnKCtClcWbCqOIAQiiYjhLTwK5HFZs5E0M5SyMy4TPYLXBlE5xRnl8/twRPHViEjMmgtEBHNA7UxAWumbdMkAYnD/DhPIOTydWb7oFC1QAYQvGqk7dggWG2cnIIka3dRkkL3ZoVThhC4a+/1Qy9ylvLAx+T+qhRm4M7nmLO02PN+Za+N7leawojYyCRKoO27bQCRenHE7lIvhT6hZ4EhW4Y85JzqNLPCyUvL2SUoqH6BDQVYKiHkAI8tNRYDnmufA1fcxza4gMUz7b8LYJuDrSbBwRMkxES3j8iMEr52bx9HQNU0yJtEAUmVWVIdcFCNUcO0QDb29etQIIe2P3/f3UzVKgyoV/PU/AejuaynPwEMcFQwKZVEtsOuCWreEH1xfw1rUF3GhFyLxGEPSxSG0HSS2GJQDQsaT5gel9RUlkRsgJNkKlgbAQ8o9Uaiz1CB5iy0f2Vt2yz2V56LzQbCAOK7IbJIUzE9xLsiJTIkU1kl4ZcTwIsQNK1SVrxOkcs7qFj80YfObcKZxqJJgyRupelMB5Q4BQzbGRHS4HoWEVQDgIvbjb7zAMQNgIJAx7/W6/1z54XojSkEPAXWlv986UORYSyqXygEPsFXJWSYwUfnh3Ca++cx2XVxJkhkWIwh5Yk2vQPcqsh/CDshRyKIccihXxKGWKqYBojIFzoVhTt7t9BKUzeCoWsi0iMqShJSYfcg+1TuEZ7jAs/BRBubhItZTEwqCBEFZY4TyE9Ms+zoMILRXiSvLgss0s6sS6DgqR0cjpSRGlRiov8hwbakzwGZYJiuQMGFF8ZDZCIB96KNqF7RUNp6L+ggopoNzie1eD8qweSQ9C0Gzw9KSURa76PWDUZaBnwdaDOiQVIHUHHh3A1UrLweQrmILDK0/N4uVzx3ACTUy4BjIFJBH1HXIoy/YyqyQkh0pbxaNT2q1vPFRgex/M5tFvYgUQRr+PRq+Fg1yC9djRm+kVVKGELfet1CLwXOgKJn1xB1kvue65UDRpIVd4fyHFu3db+OdbTSynlECmBkBYuFlyebX5B8oXl150WdP79AiKos9lwykcVB5O0iUCeU9i8MWiK7+nSFJRZyGJYlgJf5QllKkP4CV+T2JfaJtCbnJJwRSCpM2LlMLQTlFFLN9dIlVFBUqxA9tguirLruBJCKeCfhBKKfNaw3ZyRx8UHwPICQqM3ik5T5ZfyWT0MDxfPAVRqBtRkBQDoup15WpWRn8KicRkemCqi2yCYiPBzJhO8ez0GF46U8OzY+M4NaZER4FoxakkyFRLLYkApMI4COmsIljVZ5PQrsPEEdnydKou2MQCFUCohsj2LNC/+JcegX6gsB6voMpS2J69i6u4wEu9Q6lMyF1wOOj+Tz3QgsGlZY9X37uED1YyLKWssTQmu16YDlRMjQRKEnORG2xKHxAo5JCDe7t3Ip3lohpEDgIrJLqgQijQoJBY5gLqyGEwXEy5e+eOv1dXIU8npM4CZYk1/1YWRufILBubY8znoGjz0aOzmKzVMDMxgUaku8qMAYaENonGE3kWBB/OSYXI5U6GxWaGe0srWExzrDDlMDKAIUcghmZ2BtMSQ0FK2Lwj9+5XX9SqsC3DMOIc0OB2Xv5HDwC9IFLZsuAkMKuj8LwE78fgUl0qNxXtFk9K7yzSPDKCqIw6CDU0xudx2mT4xefP4Xx9HJMMUcQhK0ULwCmkpngdlSNDOapwFH1XgYMHmmrVxRzPfiO91cpElQXWs8BaYKD4OIUVY1Xy/eq7VLuaBxhX4nCX3bi2YR/tZAE2WLQdvLbg8dc/u4m5NrMREhjRMNDiLveuHXLtFd3jcbGOrUMyLDwS9y10BAVCUzRSwMkoQgYLairoWLbaUriIu29tIuSZgyURMk6kxHIUKcRZEw3lMVFTIlM8XTOYiiKcODqJybEIE9qgoRUix/uHcME47yeFnkLlx7J+QxG1CD8jaNIGqcuRenIrPDKn0bEGy5nFrcVlLC13JL3zRjPFzeUmmtx3OwIMIzt0LrMSVqBMtPbS9iAczXZTwllBx51QMVJKOhJ00FsRUhyDt6G/tFSfIbs1Hkqb9+aIEEpFrpEAJEJqm0hUBzXfxCtnTuGLj87iKPs5iqXPBSJISiSQF7cR3kJxbCnz4QFGY3XpwbZABRAOdv/u7NtVIYSdte8adw8UBB9S6eiCdw6pUlhoAd+6soDX7ma4m3tYZUTDQBaxOEbMmL9twVsuddxrruVBGOJ1pAIjXe0MBYSshuDiNvC6IwurZ2lmggc+K22hrjymaxFOT9VxfDzB6SmPqVqCyTjCeE2hEUUwziMqduFGxAU9rGRPhCOWZJcy7bJXbqk//BF2z3S75yI9FJbhGEpFRTSAYMUh0wqLbYuFPMdiluNKq417HYcrC23cXk6RZfSAJBKqsSbUjpC13YbFW8Us28hID9M/ya1QMJRF7ONqDGHJVadImWghMeZQxsHmEZCbUPiptozzs8AXzp7B42MaiSI8C2AiAJNC4bKvuFUVWNhqD1Tnr2WBCiBU42I4CwwTPui/U0VEHM6uWzxLailwgS5i+p0kwdvzOb7x06t4p6VgazVx2VvrhITI8xmKYLSfVQmltsADHCQVsu4C/Rh5lkomhKyLDClECXzWQmJTNKIOjk0lePLkNJ6cncAJk2M68pgyHqmaKCAFYFkSWlIE6eggWTAs61z4KdxYHuQRrAUQBl9FQhri5SiKPUmxqMApyFlpUjEbg8/RcCpUjaCaZNtrLDuNldTh0twS3ri7gGtpC8upRifXcLoG7RvwqgYl2YztotIj/0ENhFaPPFpwArZiZi2iSSFUApUhjsdFoIqhowxteL+MR6zD//D8Y3jhzDimLfkZxHkapqgY2S9JUQGErVi/Onc9C1QAoRobm1tgI95A5UXY3H73nbFWjHrt2wwGAJzP6dxGx2osZA7f+vAO/uFaB20zK7n2se7AMg+fC6zk4XsgM7AZPdgGOuHyKG4AcZyHYzXPYLAlgaMXMgesM1D0TEQWccLiRZQV7mA8Ac4mY3hudgJPTMU42ojQiIzsdhnQCMTI8plGQgV05Zf5Ecz+C03pc7tLhkB5FAWUyt+vE6Yi4JCNeMEvKIshBdDBjb+FduRhsA0hJJIVm/eSSNnREXJv0LQ5bqc5bjYdrs638e6dZdxrOaQOSAlETE3SFUVVUtI9+T55eNfCpmUEd32Xf6ErIWEJZiswJKTg8hzaESjwjiRpEiBFML6Ns40WfumpM/jIzBSmlUekCHZK+0jceJWOwjYGaHVJZYEwHSsOQjUSNrXAZt6Aw0Y8HMzaGFjY1rVnNxwdUu8Kn/L9p3dRgZddbnnQkexsiqY2+MndNr77wU38bF6jXWsAaUFO03Sqk2Dn4bnqSrVDZgeUN9VAsYiGQoWFKqD0sRUPA9n0XcpbkdwghESSDj0QWwUfp6g37+HciSl89NQsHm1EOFavYTrh0siaAkxtLFpeSBNzkQxEwH7YE5j4AaYENn55DEOPum/hHeib/vyL4OoIh8giF4dkQgqvIaRBsgYFzc70TIZTMhOLlkSzmeP9Zgdv3L6Hi7fuouUaaOsxoFaDy0mSJAhioimTNoItg9ejTBsNrMqQnljwCIS3wJCFktAMU1Ut+RwkK1ojIY3Mt8VuWv7bI7E5TtcdPvvYFD5zegrTRRXOEOYhOGLmB3UqSqBQvveDeY82/U48zBO2O8ceZhuqe1UAoRoDQ1igAgirjTSYwfGwAUJf2p48mClwsuMHFqHxoxtL+Mu3LqFtZpBGrJeQIWIpYu5cTV3Ii0K8QxZ2zLUi04BueibWc9HiQs0qyZIGwLRAhrNTWYhyphT6GI6kOQr/kByXK3ibQrkWpqIcZ4818K+ePIcnjEHkMtRrBCUdKJ/Dm4aUjKarPxxcJMNiKa+z6uPfJ1csGQHDLWKb78wHx3Whq1D0Vb8LXrIRuqiEzhVmXrDtXOQld1Ta1YkcUv6NCDecxoVrd/HDD2/iw+UUtcYsoKmS2BbuR0Sxo26MpJe5QFuXKZkMdkhYRepcMI1TS3aK96mkaWqfwOcl+dFCadqWHqAI+eISZuMWfu6p0/j5s9M4qplWykwNZjVY1HhtN5uB/U9EElJI98Wx3Tm2L15u/zSy8iDsn77anZau5Q3YDCDsTstG4ylr2WJYD0rXgxCc3UVy4H3vJW73Qi7ZcAF3XpjqSxb473ML+LuLt5Gm46GoDxdwR/4c1Q49DBeJUBoQTlz0hZBOUXlQGPp0YSsHS7c1/10uzDor3P7BryAxeq5ProVJC5xrKDz72AyeqmucnowxrhWFhGXPX4oIUaaJBEgRIeo7+nf6/QBhMFLQNWWp5jREr68CHAM3XD8W3wcY+r055GwUUtLhViEEIHJNVKJmlUv6SDxxg8PtPMeFpSbevLqIq4se81YjJYWwAFbiwZBUC7Iag+fCCn+EHotEziMOE12F8hyqNUsqKZ9Hr02h3EjwoIogBgWUXAdx1sZLpyfwucdm8fhYggbTN1n0ybDSZpGWqRikCINPsjQekIcyRJc82CkPMsce7MnV1QMWqABCNSSCBTZy6a0HGord2KEy4XpgaViQsI6x+hc5Sxexc+Jy5k4ytRaXU4tvv3cZr895LJoaDNMU+4RxhuuD4C1guiE3ksyC0NrBMXxua6LUR89BntDH3kEts5iJHZ462sALp2bw2JTBEaMQs1hTsfIyjCB8gu7CfF9+5HBN29OzttBmyaakRyUQKXMTOALzXuFG2+HdW0t48/YS5lYs2prLdQzjjJA3NUtlRwwbEVApARshtTEWbFCGdnQkzMmuRGQh69SVRpIEBpuIHkLErAe/gEcnFL7w+Fk8O5VggiGHhOTFGqiwGUInQVZbvEEC3oK+Q7/A0552Qf/Dd2iOjcz77aOGVABhH3XWjjV1cHHbCBCs3hbuWJNG4sZb2clsAyCsFWMPOf4OKmcqI3BHa/xsoYmvv38VH65kMPqchA4i1lnYspECGdHmXCiY588qj0CWp3A59/zjogqskwyzcRvPTyT43JlZPDkxDtXJoCKGHIpwhJR7ZoyemRG99MMtN2mfXcA1lRLOWnbnRWqjSDqHMtmpV7ibafzk+l38+OY9XG5FaDnu5hPRjIAJ6ZfBOZFBG4YXNCwzIXTQpmBoRpfhGUlh7B3l+KDgk0civAS4JpAt4Zhx+OVnj+OTJ8YxaWLU5EEUhCIXgZLY7PeSXzIiAGG9ObYWCXUbc2yfDa+Ra24FEEauS/agQVtdCA+D0NFGH6OHsMMp49Blb/fvwJ3viBLhilf47u0OvnXhKm5Lil4EpDOAT2FMUdJ5i8MlqP8pYcUbivwwAVI3YZI2ojzFEePx4qlpvHzyCE5MJRijK5t5/l5BF+/NcEJg6a8+Drw4D8MKVC4U2STuybmQ28ADVTFyqkpqBeupxGCw0M7x07sdfOfSbdxoG9iogQ6BAEWfihoPyqQQKWjFKo7UXyDXg0GMcAxmsdDz4MmEoLaDqgFUrcwo2tSCrnk0TBufPTOLz5+dxtnYI2LGBgtwsQ7EqAGEHZ5jW5wa1elrWKACCId9WGw2SWmfwwAI+sdBf7hlKzuZLe5wSpAQ1Ix1qIvILAHfRttDFpf/87WrUPEMOioS8R+TU9+AMjllEaXNB/CqmD9LD0sp54aAhOU8xWTNoZHdxeMnE/zS2aN49sgRNLpSy/QUrP+MtbgFBxYokCyqqKwY1CQJmFTO4k1UjTRkJgaFyzyHijQ6yiGzLcx1DF69sYR/vDqHZTeBzI5jPNbIsiZUTI0KA5/mQbeCxpYCTD1wIB4Aem4MgV2OKMug6go+iqUENyWg6Vkg5ySOImSdFJ87V8e/ffQ4pvSylJ12UlWSeRmcziG7Qfpp+IzbzQfaVs7YpTm2lSZV595vgQogHKZRsd4C9hB2xAfKjP322Mg26zLshpOpGfQiMO+Aqoi3Uoef3GvjHy7N4XozFjY7N6dSfJG8gaI+wlq0kc36gWELku1IitNGYTK2eLzu8InT03h2dgJHYh2KOTO5QNIkWdxpMLugt6r0E962nlmwWWtH8PfCLw2EQ6njUEhI0MNC/YEy48FHJDOSq5FCWYWm1/hgeQWvU4Tpehu3M4e8RrXGmuhUUOGSxFEY1qZgD6weQ8JboL9HtJ8py+zgY4aJjKgu8NF5notoEjt4PErxqXMT+PzJSZwcq4EltahQGapTrlal3BMr79Ic25N3O0APrQDCAerMDV9lKyTEfiCx3gJ5EOw2zI5/GA9Lvy2G9rYUlfgkrS1I66TIcbnl8Oq7N/DDOwrLKoblgs3FQDgCUUFeG0wV3LgzJD5eOIIkVJ7ESNLbeHQywueePINnJyJMR8xIYHYDF5yyAJPoG64WUhqQE1ZsU3EcFoDADJNyWnDHz524lJUu6lSEUtSCwtARjxB/HxBek1U2V1L805Wr+MmNBaTRFDwmRZWRESTHdEWw17QDAAAgAElEQVQXxkPXrpTWllQHwDjqJBAEECMU2TARBawI5oyIJtmMJFSFJM7wRN3hC889gucmNOoMh5CLsKoQVz+TZbgU0y1N/T2dY1tqaXXyGhaoAMJBHxbDeg0GAUS50B1EgLARWBocD8O6QssVeOjxxEWGin6hlkFugSVt8LW3b+KH1+fRapyS8sc2a8HEBaOdMsfMO+Q1rOgnRQvKPz2RoeClLkonk7vANAVmRbAEs9GomQ5eOT2BV84ew2ONCInvBEa+IkmOWQoMdvCZZVGnPj90n9iQvHJfOuOBBwil16AotizwSdZo1r4Ii3jQjCSHgJLP7J4Enm6GovATvUBt5XDXW/z4dgvfvXAFNzs15KoOZRJYFmvynVAQiymONhSN0iSIMjWVP5PaEhpRGiSl6XmQTEgSRwWkMB1SwzAjpXMX56cVfuMjZ/FoQyFhLYlSwEn6j2OQRyGY9bDSGrYzx9YD15vNwaHnXHXiVi1QAYStWmy/nb8RQBhmUTvIAKEfBG1ki2F2QVsYF0Fzny5qKhVlssavOI1v3Wjj6+/eQks3wnZSBIzKD3i5TQ+qiPwjMWvZ7UutwW7OGnezxnCJiZDncUhJdG0YLOPMZB2vnJnCx05NYUJr1DUJiFTeEwf2Om+xsRTzFl79YJ465ByTfpNKnOw/oA2FD9sp/v7SLbx9o4PlnNoWdTidCk+ATASCRFnQtYWnnoEiZyEUyVqdplgGJUJmhSWIsDGg2jC2hWcnDX7zuZN4YjIC7yBjizESTTDI9oj/qC8jZbgw2bodOvjd2GwObfb7gzlyRv6tKoAw8l20xQautaBvl2NwUCftVmzU9fMGl/HDOELxIMaT+dHXWFLAq5fu4GsXl5ESNJgEutjNh5187+jWTyiqG7IIkYjurNqxheqK5BlwYXGRQt2v4MXjNfziI6dwfpxpd0EKmOWUQyLd4LvtFXvtYVh4h++xlfHTN4eCr4fpqwxHMGTk0fEet53B968v4NWLlzHnGkiiY6KO6dBEknhYy1LZBJPUoKL3IIhS33+UQC54k8LzcsECUaeFF2eBL79wFqdrCbSllDNTJyysqHAmiH0eAILcuAwvbdOWW7HRDsyxbba6umzAAhVAOChDYr0QwUaTb9j4+kNaGEfG1Fvd3TykD1jYE9IjzR0b1fQcbqQRvvnuPL5/YxHNJBY3MdPnRAJ5DXdvqNhXhBwc5ZKNVCqUcAPZ6XQXUBmR6XLMs9ctPD+r8ZlzM/jIRIwjJlQ01BTwEQnkQHAT5b+R6aARbchGc2wIL0IJEKgdwf9m5cbIsyomkOkYF9NlfO/GMl6/BizmFiYGbOSgMpITSDFQUsSa/U2OAsmqPbGssjoVYQfVNIPmAstvS2aFiaHTRTw/4/GFZx7F42MRGs5KgMhyuHhKbwVvVSDBliGHbfbFdubYQd2QbNOEo3BZBRBGoRcetA2DE2utibaVybeVcx+07Tt5/UbhkcGPfX87NoqFPgBYynwqJYy5PDBX/rZV+JsL8/inyy2kNdZRsIAdDwI8XW7BqoYJX8FTkY/ZBTnZ7+SnOygy2vm1ZyzcWamz0MjaeOHkBL745AwereeoGXIMCAvW2HseIrGjbQ25hzjHrGVIpyhDLWCQ/46lSNNta/D9y0v41pXLWHR1pI0JRE0DzXpOMWs05HAuFmDHAFP3KJxAUsyaRFPXhqJ0tlR6jCQTRmUZctfCixMR/uX5WTw9HmOMz2dhp4IAK0WqRIp5yLDSiM2xbfVtddG6FqgAwkEbHP0LX/9idlAW/WH7az079F+/HTfosM9f47wcHZic23VgGR7fuLiCv/5wAWmdHDaSx4CctYcZfpC48/1LuexChSjInWUo3ANqGzQieJtB5RmUS1GPYnzu1CS+9EiMqagGbRiXTqAp1LPOOxxY/YIH6LM1L33AOSYAgboGcjDuX6zuOQWPDDomwjfmbuC7l5ZwrTkOR60D6iwwxVUcRcwcKYtcFWNkACAYv1LwC1i4qwHtG71aD3YFz51y+LfPPILTyQpUHiNXNRh6kUQsc8hshhGcYw+7qw/7/SqAsF9HwHqLG9+nEFuRVxsECQ+wA95XpnqQj9eg3R7Si5N7wKV9BRbvzmf46ju3cDlzMI7sdKafccFXiAQYDGrohUZIKSH2Id3MmYJjcaYaeQY5YpZxbrVxItb4uWeO4eWjDRwxDjUVdpX0XLCYUxVMGLJDd2iOlQAhVFsMf6QqFhUYVSZenrYDLs2n+NrFW7i60kFbT8DmDCmRgJpAiZIm4w7FYj4AECKkorgo08DHUL4mwJSn6zRHEi/is2cm8cWnj2PWFXUamLXCOhtrANMtAaVhQPgOzbEhe7Y6bUgLVABhSEON3GnDxPgOm9dgrU7ajGfxgGJH63045XsdBPclNY1ZC1zAWyrHD29l+Kv3b+O27SBNajDpONCm5DHjAmSwAyrlwhHqHYiePklqspiQmU52O5VxQupbFJPTkEGlbTw3O45fe+YEzo5TNcFJCeCkTweBKXM9Alr/TrHIqe++0D4pC7yTE3MH5li/quUqhcuieqXkOdBLYB1ypXAj7+B7dzv49geLaGdjyNMcPuZOn0AxgEjtqV0RSkbnLoL3USg1bVrwjkWdmK7K8ZNL10t2LSxqkcenT8X4zcdPYFI5JCaHZRokazwUhEpZx7uUx9LYzIDoI+1uZ44dlo3KTo7PXbh3BRB2wcgP5RFrfaw2CiEMs4N+KA3b45sMA4KGIJCtygJ4kI+XVPZlbnqo2EcdQu1yRMqjbT1eW0zx56/P4xrdvqYTlArzWNzIknFQD/wDnREMMBOB9ZZtFyBQ0pcseMmCUAmsSqF9JqV/Xzo6hS8+eQLnGkENUUIGXVJj6KeuO7srgFT2X6mn0LcI7HHX7vrjd3mOrVWsK/RREF7i+Okgx5Kz+Na1Fv7+rTtomylkDDeAhZ46oU9tXcCiDBVDQMrUV5acDt4I5eg1CqqYUodDxig9BUAdS/jlJ2fwhVOzGEcbJq5B66QocF30gGgr9LyRa+ZQ7OYc2/WBcXgfWAGE/dL36xEP1wIJ5Ts9yEI36nbZKgAalkz1MGxG5TtF8RwCBIYQAJ07vJsCf/budXxwL4Y1CZwPZEPJS+9qKZJU5hEH5Zvwpw8gQCWCZQhCKHAQxRkmsjY+efYIfumRYziqHeKI6YvkuQeAEEiP/ceQBLRRHwMPu317OMcGvQmpFFlSiFgGGjluuRg/vLmCf7hwHXdtAx2joKNQKMrn1DwQhio8BxvTW31ZQ6PwSEjUKmQnhCzLEErQvo2juoNfOX8CH5+pSRVIep0cvU/9JaP65ptUkFzrGGaOPYz59bD7vbrfuhaoAMKoDo71djODrr21XOSHYRJu9DFa7+PVtwvayW5PmcKogJgaBXmKKDLIvMH//rPreP3KHHQ0CaOnkCNUZAw0s5JzoOD48ZeYtEVOUqEnyAgV/pyZAP0DjteOeURLN/Cbj53C5x/jDjAT1T1j6FLuF+vdybfdx/ceuTlWeHFETjkMDCa2eNdGGnssooHX7yzgL978AEudI7DRpGgiwKSwaAN5HcoliJO2KDL2+Ee9saWshtcEoZmQWqWqZLqMMxMpvvzik/jokTGwkDSrTtZC0YYilNHjxLC41LoAYZfm2D4edfuq6RVAGNXuGtzNrBXzO8yTcasAQdbghyd2tNGwocQNtfGNo9xthiYsXr2Z42sXbkoxJqnKlzXW1V0K9RCYzdCBkoAxd3RFKhp3htz5oY2pWoaXZgx+/fHTmIpYGCiQGIWIKDmP1bGhBUZujhU8EAJL0TgIBZYcRZMIAnyERRi8t5Di7967jYstgsB6QSlhBoSWSp0sEEUBrjUPCndqDR87aJvDZjF0lCPRy3i8ofBvzj+Op8bioJ1AAmzpeCj4Dvz3ugBhF+dYNbJ3xwIVQNgdO2/vKf0fsLU+ZuVdD4PHYNCCa9lmM3sMw1fYXk91r5J9lvfI0gyKngOt8OrVefzFhbuYtwki9hVLJbqxPh38/ocyIBBcuMqvIEIHTtVgzVhIacw70NkKzo4p/PKTp/HxEwkmfQpNvoIOoklMU6tSFofsyJGaY2sDBDoJlPAKgmpm5gx+utLBX757CRfvpMhrM0JeDSGHHLDMRhgMKxX2yIJ3QsUOsWYFyJqEKVzUQZI38fNnp/GrTx3HpM+76bCSbjsIEDarm3AYv0lDDrn9dFoFEEa9t/pj7YMeg13aEe+piYaJa67VwB0SO9rMFgIQnEPWbCOvKVxo5viDny7g5koTNmqg5iPhJXiVCIns/oO8Baal8QO/DM2sA53wix7cvfkyZnwLv3b+MXzmyATGdAsrsUFDPA6SJDl8HvtmL3NYfj8yc6wACCzIVDBH6EGggJItPEfCP/E5jDN4Y7mJP339Ai5lE/B6Asp0YKiemI+VqQr39SC5CqLGaCxiQ65MjDgzSCmz7FYwizZ+7cVH8dFjYzgiIJVk2dVlOroehD2aY4dlWI7Ce1YAYRR6YbM2bJWQt9n9dvn3/fz4LdHjNnvv9Uhlg0BqF99XPuB09Dc7+MBofPXdq3hzjl6FMYkVB+JhoWa45i6P7mVqIrACYwpQDrd+BHlmESuLGbOILz1/HB+fncF43/WioU8sUdRoqDwIW+z0zcbaFm+39dMHs0iIM4MXwPWRAkke5M+j3CGFwVvtDv7qwk1cWgRyG8Fo8lM6UKpWFGHqtSSMiZqEv5RvCUCwzIqxBirV8JFH5Do4ZRy++PIJfGyqhglWAlUEqJR2LmALpbz3cI5t3bbVFdu1QAUQtmu53b5uF9zjD/OV1sr3VnR9DzxkFXu7b0ciPy+9Bxu8e/9C2L1Xcd1OLpLrpajxM5/ZDrxO8CcXb+Pvb6yglUVInJGsBslQkyjE2kJIYUEwwYPgGCf2yOM6tPMwzUW88tQ4vvTMCcy4HLHpscmZEifgiyChcu9ubyjv6RxbHyCg4AKUL5UzDTZnFgsJjAo/WFzEV9+5grnmFLyehCGBlZoaMtAozd13by72nFq2A+0tbKSgdIQoV7ChxChqzuOp6WX83stP4LQUfYxgKeZIESVhRgzoIGzP2tVV+8ACFUDYB520H5tY7n7CFii4KYPoz2qNQKlEWIqxSMGggtNfFLQpvnJ926CSNVVuYop8f/5Y8rfkqyg7HnleefQhk1DgprdAr1cbbyO7r3q/8sSCA9lEhrfnPf7LTy5hOUpEOtnYGM4ZmELkJly/RlWEIJIo7HT+qRmDFdvEtF3Bp08dxc8/fhSn60qIiLoPZIi64gYFm/fjGDpcbb4fIISy3qvFUDmmReeIrn96ApxFGkV47V4LX3vjFm50xmBqCjbTUFEm8sxSvImFvTgQGaqQcBS9CFYEHMkxMCzuRIGEaAx5ptCIlvCpEw38xtPHMEsJcBPGm6ESo0zi3SH8Hq4xMHpvWwGE0euTA9GiVTvk4HeX9ZA5/pKOLXn+LFgTdjqBB9VbMEsVwhI9eO6ouzvjtRn6/GB2U/4HdtF9t5bnh/bRZRq8GuKiLwrobOZ5EIncvnJKLJbLnZxhBUWt8EHu8KevX8Jb9zL4Rg2RSuAoZEMxpCgvnl+WWV7d3RKeMBaa8rgUUHItNKIWPndmAr/06GnMxg51qb5YEREPxEQZ6iVWe5s4FwisS0+RdSkWVYRXry7hW+8v4G6uEVG6m5xWjiUWcMpYytkCOpYQV3Aj9KZUTy2RtUQ18izFlFvB//iJM/i5iTpsPYZniWilEIUJM1TLq5P2twUqgLC/+29kW98PEHKCgm5Lw845lDPWIb+/3P2uSs3qd4uWjoHyi7ZGClcZkujbla+70LMmguzOKBYT7lUCBO7sNytWE2oq+G7M3xknqWgkFy56jW9ev42/e/sO1MQx5J6R4hh56qUiH3d1stsXIZv7wwxiKRE3qsHZGMhv41On6vit505hxrYRJTUkPKECCCM79ne2YRy3rABJr1xYpF3eYckn3FUNfOvaPL7x/m0435D6Hi63iCKHzDZhjIExNTl3Dcdat34j4S/vn7gMzxzL8LvPPopjOpKCX6nSGBu2mNPOGqK6+y5YoAIIu2Dkw/iIfoAgrOnimyTliMjSpuQrw6hk1fFjV/ITio+eeAz6xIPColosqOvsXgbj+qFsbThW7Xecl3CEfGSZEy7hj+BBGAYgSKoZkxEZOnDcpaWid9AxY3jjXoo//ukV3HJklrPJTCerw5LrlVshKtLL0FO6GxwdFFfSsMihIo+XxnL81vNncDbJgVqEOKdCAlMlC6XEwzi4DvU79wCChNE4J9I2vKmJBPMta/H1D+fxz1cXsGSn4HOPJKFw1wrgWRo87s7FwXkh8sulF406XU4hijJ86Ykj+FfHp2FYZiyqozHAiTjU3XHAX74CCAe8g/fi9biMM/JZZkd1OVKiAhs8A6WQC9OtxNlefOy8p4uzzMHuuf1JkiJFiks9naRlURsBDl3AEPZGrHjn8xwx3anc7cjvmVrIEIeF9TkshWBY1EYEhagdUIQt+jwI/bu0fjvyDaiWSGxDgODpc7U5LliNP37jIj5YYCrjWAipiCIy09ZYP8HBiAeBiefMVe8PqYRdG0GQ7eRQ9QRnJtr4T+eP4VRSl9oKjAMnApxKQDNkWd69GATVM3fMAmFcFpU9CaJlSIS50VEW97Ic335vDt+8niONamBio4syuMxI4aaIQl1rVQt1DEfE8NTVSByyfFJqNhwfu4t//fw5vDRhoE2EpMqU2bG+HbUbVwBh1HrkALSnHyAwj1v04sWtz9r0FHvJQ237KJSo58rNOCmhgc09+VTwkRHOVOAFkIzFj1rwOmRkSvHnjjULGFEty+YGL4OIxTjG+k2oScAyuoYLNaseaDiSs7hDp4wxwQEJgfzbaAEOdMXyWA8g8HfOBjllkVSGw70M+P/ev4lvX14A9AzgmBoWmOasnEcjCFZhnKHwoPT7NUr+g9jJWkypFL/y7Ax+4ew4aiqGYdxYHCiBsyEtXk8t7wCMoeoV1rZAIC4WnjRdiiFxTJeesuAFu9Wy+K/vXMXbrQyRasBRZZFlvzOLiFLLArHDCOwGugqaj3MpdORh7SRsHiGpL+KYm8N//sx5nElY65EplMTeFUA96OO0AggHvYf34P2C3IsPOflhlQd5CBkXYn6EJJsqFzd6ag3aTmMpc2haiw68/Pdyx6PZTpFbC+tY+Mgg50LvgIi7fn4oy6VSQgWheBEL0ESRhdE5jtTqmIwjTBiNuvaYSGJMRTHq9NAzHZBtLAiL3OXzg8d2DwUQiudLeCLL8KOVDP/lny+iGc1C5zXYzEEzBqEDeOGLM5zCTIZwrOYf9ACCQ5K38PkzDfzK0ycwKZWeIkSECAQWJJpVAGEPRvVoPLIECKFSZ7HMF8JK4gljobCMZZsVvn17Hn/z/g0s5OPI3JRwEbxLJQOmm4VThvRkRFKNkzU/HPKcgLYG7wjUO6jrZXz+7Bh+5cnTOFYA0wogjMaY2MlWVABhJ6074vfeaIdcNj3sVoIrPBSEK1zckgvNf9N5zr09c/cZOijOJTBw3DkHD3+uIyw7hxXvsGwd7rY6mJtfwq2VHPc6FrcW2wIKLKsgGtYdGBOPg2J6ldLwzAJgGEAb5C7t7qIkHbBsXLEf8i6Do05AoqGzlvyJVIyZiTqOTSaYqXnMjkU4OTuJ42MJZjxQjzRihheoZU8PQgEcwjLOcEn5HC2b+JSneCeqyW1r8WdX7uDb19rIMU7nBYzmZzYtoh8BMvGjbnMjVAqtbeA/MAWU/AvRL5Aye3hxtobfOn8Ux02OmOY2wfMh4YzS/mLnikk+4lNsR5pHaBx2/pwHHCAszkXxreBtowcq1TmaKsY3P1zC319cQBodQ+5W4HwLZTXGcB+C4uBFk3TIKOXghU3pW6PSZ45EjaHTbuPMVI7ffuEsPjmWiJdPshkKTQQJ+fE+VXbDjvT5Xt20Agh7Zfk9fm65E+EuYENXOsl8ju7sok49U/oKUoH1CrHmokq3uEaHZYpVBGc9OsqhnVssdtqY9xo3m8Dtdo5r95Zwe6GJJhRaXiHhYuwjeE/yVBQWQJWHD1+hmyBOiK4y/GCKVRHDkOWS7nuJT4Sduo/kXlAZjEjV8twUdKEqlSNWDnWl8Mj0NB6ZnsBMYjCdeMzEGrPaIYkiJEkdxmXibSC5MOVnmEWYxNfABMcIF5dT/MFPL+NWaxyuxkI3pGWGXHV+fsuDH3EJIZAkyU+roe0tjNFBBQ8Wj4+l+NKzZ/DCOOO9DKEEz0Z1VBboWYBjin9KoEyAQNEsjqdAvk05vh1w2cb423dv4gdzbTjTABxFlBjaK7N4EklrNDmVkOh5yGAZlnMxjO+IHLi3CbyqIXIr+PSZcfz+08dl/NfowWANEOTC7fE+kjDesOnCVY+OvgUqgDD6fbQjLdwMIJRxTnFFKluw/LlQBcEVieMzxi8lYyO0rUKmNC6lKS41V/Dh7UXcXmhjJTdoeYeOrcPrhuggcHfPYjIEHU6+Vl2necGwpohLEHARSqN4MfoyEtZRIfQS6+fuPBAPRRlOdtzkJcThfrLj4lacHzeqvnAXTwDhYHyOxCpMjkXy50QtwtPT4zg7meBkI5YwhbgHlEXsEuTK4aJ1+PM3buDNBVbem0SKtmgdCDghmChIhfKGXOhLKWaW3SVrPLIiYZvrGsZsE195fgovHZvABDUVInpSeqmYOzIQqpvuQwuUACEoH8rcECJsz6NEEKopoqQ1rnRSfPXda3jjBhDVJ4R/Q10EoTDEDeRewWQKLiYgKOjFstgX88cytMUy0R5j3uI/fmwW56fqSAoPGEwWxjnnGAHDkHoi+9Dwh67JFUA4dF0eXngjgCC/K3bAYSfPHXeRBiiuSLofIykXYPMMcznw3koTP75+G7c6GeaaHdhaJDnXWU7VP9YW4MfDI8u4By8yBxhKsNSFC+yo8uddjYBuymNRMKboq5AJ0X8U+eBCCODHkh9OSZkoNRrlAxZSuIDMOwllGNEb4KMZZ2WGgQGyJYAV7uyYxPuNXsJs0sH5s9P4yPEZPJ7EmNC8PkFmHV69ewdff+s6VpKTUOkErJAQqYUfPq6rpA74wPJwCDwFIUQ6RGYF58fb+HcffQ5TkUJd0aMSshoqD8IhnaT9r72qVkSpEcI4WBhTDO2V4TD+bYS3w5HlkDuFd+cz/OFb13HN1wJnNmVtD400YihMIyJgjXIYknNE5TvEBoNeiRPvG4tE0SH3iRNt/O5zT6KeaBhrYDTrjPL3YUJ1UyWrcMO+H7gVQNj3Xbj9F+hfZiWmWYivcOPdc4wzMhnclkHERyPzHnNtj6vtDi7M3cFbt1uYz+vCpOb+w3MHn8dFhkLYeXC7ooyHlrRGpiKyNDED+WsmXG3/pYa5soj184PGtEoBFQUrO0pyIWhRi0BJCCCT94dtI7YeZ8cm8ehMHU8f1ajVEvzVW+/jUjtBbqaEN2HyHN61oE0BqNZKJxNQwqI7EZRtQPkOjk7N43dePIkX4glKHMCILkSBYIZ5p+qcg2uBtTxm/YvvmrLH3NFbyRiyLkbLe/z55dv4+od3ofUsfBpDUZMjSnmaSDGL+BYTaulaIBm2LMo0YNmGvo1/9/Q5fOL4uIxzIdBSfbEQRGNKrugzVABh34/JCiDs+y7c/gsMAgSGEwI7GpI5ILsBAQYObcbfLXA3BX5y4x5en1vElZUlKNNAprjbrgMpU6yy8F1QTj4b4uYHCXmBZEhmv2Rhc4dSuETv1xPc/jsNdWVZBVHSLgkCegCBWRAhVEGo40CJeuZ+E/0IuVAWd4/JvI1apHFbWbi8Jh4ScZQoulXYioI0th5A0KSYcQcWY8K38C+fG8OvnpwWty+/y5KeWQGEobrzQJ+01kI7xM+sDaErzsOcRUEV8PZKhj964wquterwSQNKQgM2OPBEvrlWhAg4/jmI1+a+RM7i/CmN33vyOI7FCk5rGB/4NSVXqarVcDBGZQUQDkY/bustVi3M/fnV8Mgp/celXBtcbmV4fSnFhWtLuLXoBSTomGx/IMvoImd6VFj0Dd3yxsLGJBoW8VFh7gf+QgAP3J2U5MLSNbqtV9jWRUHiOLhE6cXw9MWKWFKZFU6gFIrXiHaRofKiRxR5+LgjWQXejkG1HGwcCYmRrldPyWUqHvKDSzknrvR9HIT+xtIamc6R+BY+e2YGv/74UcyqpkjkEkxFFUDYVt8e+IvWUxMd+DmBOYG4AASWhzYGi1bhH28u46/evIzl5Ag0tUZ4HnVGWNnR1QsPQgkQ1ramyw3G1Dx+++lZfP6RWQnVaU+wy4wciTFIeKwsvHbg++QAv2AFEA5w5272aiXPgKu2UPlyC8fJrYEst7i+1MJbCyv4wfU25poxMtRDmqFlPJ9xyUyIUdbmEoekPpFENA3vIbz/IsjPhTJoIPCQBZoeBT63331anB5O6s/iCwt179gova8gNLLMbah7VzxzvesJEgoVZ/m2hZREYROK61W+fkGIJtbMKIOnWzUPHAwBPiYNGy7KR5ODYIJKY1GVqk+OJog2lSzyTr6MJ2dy/O75x/FMvU7IAE2SF8WfREWqymTcbAwfqN+v4hmsMcaHCTUUBqEHsHAGinIoCbLWa9zxwJ+++T7euOmQGXJmEmh0oCW7hwWZ6jAMO4j3oAw0lsA5AOvcJUhsikdry/j9Tz6DR2r8FsRSWZIpyYFcXAGEgzA2K4BwEHpxg3comAN9a27vw1OmRJEEl4UsarSQ43rH4cd3OvjexRtYWLZAchRK15CRfOfToG2gqV/IbIQifx8WmWi3sN58DMV/kHfAz4wpPlZcZQsCpDD6uxkKxQsUrv7Q2NWBh8E6CyG8uUoHrk98iNkCpisqFB40UGeaOxwBKqWsk5wUdvwSexV9xu49SYyk05+hWmFNCKjQkjHhYg9DXNAOihCuRgY4TwgAJdR4CAwKKI4AACAASURBVB4TKkJ6wzvFqKV38G9eOoFXZseRkJTIUIwQG+nNqADCAZ+aq19vC4t/N7a/ljeh+BkTbYXjaqUSCmDCeE6tw4cmwh/9/QVczMZhmFocpVBJCqQa3tYCQHBxQfIt5k4JnAtxJp8ehXJX8OXnpvGFU+OIa5PIvUNNFD6DbPhmVVEPVf/u05etAMI+7bhhm118HroAQXOBCiszWHKo/Nhk3F1kwJt3l/H9a3O43IzR8XUoy4+Fh64xX7olksiyq+bCX/CQGF4QMSQRTWH6noGylPYRHWQ4LnplRJOaCX2pe/0LP/Oou+I/A8SEVQBBZRIOCFLDfdKz3Xh/CRB6YEg0Ekqed6g3XWQaFBIv3SyNAnjQG1CWpmbbhYEZCuWIiJJ8MLXkffuIlRoVdBbAg08K1QZJEe0HCBkUlel0Ih/Pl6dS/M7zFESiQA0FmwM/Q3BLBRCGHeL7/7xBTsEmRcm6L7zBeSVAEBJNGFChiqMHlpXHP7x/G1+9tIIcU4DuQBMUcHzTgxBzzrOwUzEJJTuh8KyRXCuiXQ3k+h6endL4D8+dwKypiTx6soWy6fu/4w7+G1QA4QD2cVnIqEyLDv8uqigWyoe6QxZ9BtcYwwftDK/du4efXW/iTrOGhVYHJq6Jeh83+uQZBoXEolBs8UHr5V33NOFLlTcJKRRVHFd7yssUrQAmSp0C2ZJrCyduSsYwJXdgzYOsaQEihVegBA8hKlGAAk8duCLVUBGnsBBN+OQ5Cil5srUZEwk1GcJKzseV5Z9DQaj7OIYFKOop2ffpTJanF4DJWRIVSdYkSdwi9UqUF000jnp2F19+4Sh+7vi4pDSWdR1MERbppnwewPFZvdKABYYgHa5psw0Awv1zjuE8rvM5Um8w12rjD3/6Id7pHJX6J1ozxMBpYECFJc6tMiQos0qURctsphjaUBTdYlxF+J9fOI6XppiRJNsH8apVSQwHY5RXAOFg9OOqt5Bd7CoXX1DvC7vZHC5vSyhgWcf43rV7+IcrC7i+3IFPpuF8IjUDrA3ZCIwpciddHrKGdgHCauOtipr2fSFWOwPK3O1CdIkqjUWONYP6zuYh7z9memT/HXt3kd28AIQSJITfiVZDX5PyQj1R3PZFeEN+zd05yQQkDqhO1yMSLg0uUnGPFqJGWxki3bAE34meFBFgcnCRR65iRCwm0c7x7HSO3375MTxhrFSdtAxDsEaEyNuyFfKp3cqjq3P3gwWGXTmHOW+Yc/psIkDaZchVIgqe37++hP/7wj14NQWbdoIWiUTXCqRbTLnC39b11oWaDYF/ZDKLnzsV4zc/chLjlmOZmwoqo1ZZjvthOG7WxgogbGahffj71QAhEO6CvG9IWWTho/eWLf7pg+v46e0U85hA7CeQicwB/eRt2cVL7HwVWZALV9ibDKYmdoFDF0msl51Az0EZcAj/zQVcUgtDaUe5Q1kOumf+UKQorJ6SMhB05KnwVv74vjgusyaCBoPkeq86CBLC+5IRUB6004MABGl7wbAUkiTrOzDYQuJWUoPutHEkXcJvv3AKHz05hQlhf0SSGVEBhH042YZt8mYcg/77bBRiGLzPFrQGBCBYi0xHiF0bt1KN/+P1K7jcqiPNIpiIFU3JM+IgJoenN8t7C37wRBBcEwCzPsh0soh//8rTeFplSFgxtQIIw46KkT+vAggj30Vbb+BqgECiHFn4dA/y+xDh9fkMf/beVSx0NNo2FtU1E5HRzHhCEy7vQEWUJg4Kg1LysFyE1wAIJZVv7f3+YPt74QhRTKT2u2V5WYIRHUIZVA/MIyHrhYPIpZeREARdKOlqwHoQReUDyRDo5zZSaYDeCYIEukyjiOJNASxp6jZIbJVgoxfMeGCAQPU68jz4bhSiYYYHQxo6kkqVSZbi5WMxvvKR45gRQSTRhoalHFPlQdj6YN8vV2yFZ7BD2+/gQUBRA2UZHdTwjQ+a+MsLC8hqR6VGCZVDyaeR2ihFOemASXrAOTjjLKyNhZtjxtt4ZbqN33/uMSHbVgBhvwzKzdtZAYTNbbTvzrCilUot9lD9j16DFa9wZTnDty/dw0/verSodCilAXIobgMikgsJEIIKmhQ26hMyGky66u7a+3LxBr0KXVAhrOZC9ljEW0I2Q/BqMMWKpD0u3hqWf1tKFZPvoBBpIzncjJ2yOmQQhi31FIL4Ej9g0loH5M6K0qOjB0QyLnhuFHKzeTW/kQy2EoSwxHOhziwpiuIuCWJR2w0xyKeU6WJsf9yW1FFkRAIJEpNjUmX48vPH8Olj9NqUViVI4JWBSKnoHSnUHffd4KsavLYFtsszkAH1EP31QsJxSBkCUwq3lx3+8J3reGvBSIloyTgiX4dDUeIN9x9SZVXVYAko6JE0Co9gHl/5+ON4dqIeCMRVFsOBmAkVQDgQ3bj6JVJq+1uu9cxZdriRK/zjtbv4yZU53Mrr0PER+A7Z8hpIMtioDe2SblaCxOHF2x8+TIPp+N1/97lC1wMHwQEQSIChWFERRihCA9yJIOvAOItxo1CrJxhLPI74DiZiFk0ax1ijhqTmkRiF2GjUuDsXTiHryBEUBPJUJ+tguZ3iXstjqQOkPsJSmmMhzbHSbsOpCJZyhzzIxi7AChUfjYmLnX9ZmGp7HITVAKEDz7rQWSIAzOAWfuH0JH7jqeOYiZl2Vn6A+bHu43nI+22k9XAAB+1Bf6X1AIKMxQ36uj+k8JDGBL2CtmiPdQ7/NLeAP/7JDTSTKTgB42FzsV67WGCN2TsOHdlCUBchbt/DF5+fxa8+dhR1bxFRz2MVh+igd/DBfL8KIBzEfi1Kud7TOd7JDL7z9k28c3MFylB/vSb6AG3bhpFde8RSLbJ7d/QaRBRB4vpJABGIjWW2QvczJh+tXp2ADcFBQAiSncAjIkHQpohtGxOJwoRyePLUUTxx/AiO1oFGUsM4kxvSNiKlUIsT+VuoEAQT/FOSEYtiMvzIhbTNgtiouQeyWLYOGWq4t9RBWwOLnRwXr9/GpYVlLFIexlP8KYIVz0HgNJQCL6HyY2j7Vo+eB6EFn8VAZwxILKYbc/ifnjuLj02x3gJfMtw5JH6WhaXCB7oCCFu1+gicvxE/YD0vwCDfYCtchW28cqgDGTyMHGOZy7CcO/y31+bwessjNwzt6ZDWuw5uYQaQqI6qNjyrP3YaUO0Uzxyz+A8vn8NRUmokS2gbDawuGSkLVABhpLpj88aUKX1Sz52xdRLwuKAwPCClVnNRNFuEwet3WvjLD27gXpMUwDEBA0Y7ODKQeS2LJQnTPhRNCm74clEsYUFRgIC7WolJUJGNSolGijBplntmQiF1fRi7ZNo1tx+WO3WNKMrgfRN1OBytJThVq+PMVA3HJzVOzk5hyjtZLCOjqNNYVDCQbVXXGN1vpvxHsXgO7qaKdXxV++UWgWXZFv0Fhdx5rHiPu9bh1lILt5Y7uLrYxNxSC4spWQusq8CdPXkDRVVLqXEf7FF6HTTzy8vzCkElZn8wfMIiTKIKkSxANRvI7RHoRhMfnWnj3z93Smo4NKTgQs+FWzypkqfdfAqM5hlrLez93oFhAYJMvzJ94OF7kRhSDLhXicwyZcTJjfnOXBN/8eY9rJgEjIrFRUqjizixIxH4kpRg5LC+Vgxdgn66KqkRYjFVB77ywim8MEuuTQRqrtgkeMMIv8Or9TKORrMjq1b1W6ACCPtsPJRlmmUXICx87paZxqeEbMiFf95r/ORuB19/5wZuyE6faU11OJZeBgspcBceQgyiDyghgLAzD0twOEJmQiEMJBsKxhaTrqfBOoIR3ipIKbNSIz8mzrVQiyxiazFTT/DkiTE8MTuBRxsJpoyDkRoECrWI7SrSCoul8eF/EsO7rPp+e9aJsNQ9QuYMVrzGzTzHlaVlXLvXxIf3lnB9xUpaotaTcKou8VmmfxmfQ8v1YXEXTmWpEFmACMWiN9rC6yWoTh25GoeOl/F7z07gF09OkEohIKFKY9xnk2+j5g7DMdhumOEhmoklmwOeDQCBsQQqhFxKPf7r65dxLU2Q5hF0morIGes1CPonl5ebEam5EsMwFZK+CB94QcpybgD/4ngD//ojM2BtU36TbMS0RxZzWv0SlYfsIXbqDt6qAgg7aNyduHUXIHCBJ8mOCzx3x1mGzMS41LL42/fv4M1bi7IbqB+ZQKfFRS1G3mGNADoaMtnlc+KKYjpTmph/L5GDQObryhiL+nBwTDK1icQ+Yd3Lh4HSw7EQG3XKnX0bxxKDs9MRHpt1eO74DM7EY2i0qHzoYWoGHZXBeoOYaoIShS/0GbrP3BmI4F1PU5IplPQmSLq34ptniJiyJXJKHnMA3ltu4spCEx/cyXF5waJZeC5YlIagKnc16CiTTAVjQxqlmMkbaM2qeNydZbCZhlE5zoyn+F9ePIcTdY/I10Iop9I52IkpMjr3HCZzYQe9BWsZYhVA4HeDol7OoA2Nb928i798ZwHLagqRo8oq+ThevhlSnj3ScKzMxI1GARBIxhVqET1q1uOIXsb/9slncKpOB5nhp0E2LmUqcQkMKoAwOsN0o5ZUAGF/9NOqVgpIoKtQmPhk8Tu0PfDmYoa/ee8aPphPkJsGVMQMBW4SpH6zrPGW7m+m/jE8IBkOpbhQyCzgEfQSSypiBJdTvIglm0MxJyEpdHIENrPCuLE4d2QMT88mOH9kDKfGYhzhJ4FVEOV+IWPAOH4muIMJIIPu+B6/YUBw4SH3S6kCEd4vqCRKVKWQNyajm/bMCLocdzwsYeOxBIsrzRSv31rEe3NN3F4JmRbW1CUtjO/IMAv5HbSHRizFq1jp0hM8OY9G3MLPn43xW+dOgQmNkWRVhHBKdRxQC6y38O8wx2AzawrfpUj7ke+IIUDQyJXG+60cf/DaLVxxU4iyZeS6qLPCvQO/FbomRdh0ISEuxFr+3FnEUYy000GMRfzHF8/hpZkx5vDKxoDKp5oyzjLvOf37lUc2a3H1+720QAUQ9tL623h2l4NAWpuUcs1Yexlvzbfx1Xdv4Ooyd8E1aD0Gp1IoReEj7vYZP+Tut1DoI3IYKEVcRAlDiEHSGDQs5YJFnyA4FSL5uHghJeX5XTx+YhqfOncUnzg1gSPKo8Ey0SxzSIBSpEkx6il3IweSbk3eq4+ktw0zPNAlqws/BY2F0jOTMaxQUhb5q6wNH8VY0jGupx5v32rhncs3cDlrIvU15GggszXoxMATSPH9o1RSNzPbQJI4TOs7Eps9P9YIKpHUcSQZ7IHeorp4pC2wkWdgBzITtmILpvnKHKAQmrYwlqBXYa6d4U/emcP379XAkc3wgIQPcgdvOnB+XATMIm/leyC0BAIOlpOODKx16GTz+NLJBr78/COScRTRU4lYAALPlzLQ2lS+s6102B6eWwGEPTT+dh5dLmSB0J+jE8f48dwyvvHBDVzoMFZeR8Q4OTOUXREv5yTmRJUJTQjPBd9IaGDwCL4DL9oI/IZQWEmylYR/R3jRQcM4PDo9gfMnGnh6dhxnIofEZjCmHngN4pPMQziCRYyLv/lj0hTEvTgyACFYQEifQkKkNoKFUaImUfgXWOUueBvaUJjPgG9fu4V3bzZxqx3D6Qm0HcM2kOu86sDlMZBPQEeL+OTxFL/37BOYjOkzCKVwpSzudgZAdc3+sMB6pMQRaH0/QLCclOQvZQod5Pj69Tv4f3/WRC0ZQ6oTqQZp0IIzbTg3CfoDIgbiCoAgeiIl+VB5tH2GlxsKv//x0zgaB4BgPMOQFUAYga7fchMqgLBlk+3SBUV8PFADg+tf0vm4uHsnpVVvZQ7fuTaPH91o426Ti24dWUT3doiJkySkGDvk/ySswEWeCz/jDkVGgOQxEjwwVBHCCsx5INJnrrN4EVwG3VrE6YkET8408MKpaTw6lWAiMqjRZU6Co2Z6FJdU3oeqiEFPIKy+JcExfIyKIg8huLEHq2RQmiz7sWRXh4aGZZvgJoRfSNAquNpBe8F3xM1qrcJcM8eV5Q7evNvCe/OLuKtraGcaNUZ0UorNGMyMp/id88fwyckjcDFRXVFcTwScqjywXZpNu/uY9bgHbMVD0jLY7gsFnaRQMZTDOyf6tx5xysQjhffyDP/PDz7EXNvAJjOwuUWkV4CoDWfH4Vwdsc57YbpiAstc5ndJecwixe9+9Ag+OTUuIQaKoNEhKR4EcR5W4Hi7/bfb11UAYbctvoXn9bLjyTPm1KI4CWWTLZYc8Dfv3cA3Ly0iNzMwqgHnOzARBYDagXlM5E7OQaHYFxj3VuSTTcyiQGQyJ9CGE5bpeaWIEXMaFGJlYPIW6qaNj52ewkuPzOKxWoxZLu0mFza+ECU54emudIUcslRj7NVIEGJkscsoi0jtJVmpiJIE7CLVLXsUazr+5QPaV7Y2nEhw0zuPZC26Xq0GltsZruQWf/uzG7jUNFhRNbBQVORb+MTpMXzluZOYyh06cagoSeFKgi96EarjAFqgHyDscThh0LpO+EtBkpyjjwCBmgc6t2BK4x04/PXF2/jupSWkMQGCh2FBM5MXMuUJItEIKcush0qPYY7wjgwppPj1Jxv49TNH4T09aywAt3qsVyTF/THuK4Awgv3US2UsCH6Fo1shFpGTe07hBzdW8Nc/u4llPc5awt1CTJKvT5pBQRpQBAnFEUAAyYYkL7bhfQ0uH4PSlAbmv8tJT1e5R9JZwmNHDD739Ek8d6SBCZ2igZqQ64IegCQ+9lmwqGkgX4zeB6EEB2Gd7YkA7dlHYrCK86pqlesBhF4ON98jZ1YGMxeMEt5B23ssqRjvzy3htbl5fDjfgcoyfPHjT+BTM3XUCcr6PpL0HlT7qBGcfA+jSRsJJj2M+z/APcIMDZkJUq2UHoSihgl3+G1keKOl8Sc/+AD3/DRSF8Jmwf2YynfC+LE1AQJfO6FwqPf4xIzGV86fwphvSt0TYyqA8ADdtmeXVgBhz0y//oNLEh3RPidtybTnrn7BObx6rYlvv3sPd30dKmGsuxOUzegHkAvKLAQ6ybkM9S/iYSdMAqMwkkHPQyr5/VIbQUSXPKZjg5fOTOLT5ybwaKIxLtEDpkWFe5NrIHyGEnyEEnB9L3X/7rifHLhn4GCI/l5dKrvvgr4Pf7ATbaIh/VTwPjq5xw3j8f58B+078/jY4ydxOtGincBUU4ndiohiv/WGaFR1yv6xwIh5DfoNt1rjpLtzCPwbb6F9hsuo4Y9ev4m35wBrWBadBOdSTG0Z2jfW9iDwdraNXDdwCi38p0+fw7l6BwZ1GKb19B2jPP/3z0Db+ZZWAGHnbbzFJ4SFNlReCypnFEPWzmJBAf94dQHfvNrE9RZrE1BLoFA9LtL01l3cupqCSuLndAQKEY/xRaWR6HHkDhhDiienND5+bgzPTTcw42LUKa7CHYCEIkJdheroWaAL6IQdHtIopVuI1cRb4bthmC6g2iP+RdVvlQXWs4BoGSDDvErwFxdv49sXWyKK5iIWUyPHKIMkTYVK6WscDC0SaVhEtoXf+/hZvHKEwEKjZuJKRXEfDr0KIIxcp/UAAhee1FvESmHJAn/77jy+c/sO5lUNxidB9tgyXh5EScoQwbrovLt9CAJJNncCEpgCSV/C0RmFnz8xic8fn8KY6SDm9yKPqMYMRUU1xisrcLDmiOmmn5IESolm2UXy7x6fgR6ECiCM3ISrGlRYQMi7TNNVMb4338Qfv34Ti14jU4l8X1ifxWUampXg1jjKz4t3uWRSffZ0jN997ixi55BEUQUQ9uFIqwDCyHVaDyCQL+CMRZYbfOd2B3/42j24ZAyqYZGnK9BU5CslivuIQ+sDhCLYQLlUFmppK9RUhEileGY2xS88eQIfOTKGmCEHkgyZBSFiSEbc4mwZHYWV/2DtQRMErILHIIRrRImpqGIZBGMqgDByE65qUGEBITA7qqUaXMra+L9eu4JL7QipqyGuaSir4dIYOu6saTOp70Sysk0RRQon4iX8r594BscjSjMHYmPwrFVfkP0y6CqAMAI9FSSJwiGLDOPUIpOeo2WbeHspwl+8dxfvrjRkV2/iFLnPoFmNkbFw/k9SFAoOgcj0FXctJmUpnxzSmxx8nEtxpSMuxycfmcIvPDaBEyaT+3tdFx0FchFkwgspMQCEqFBFHAGzjVwTul4EV7C86acplOOC6mWvydVHcuS679A3iIJHsoR7hwVY/Ol71/HdSxZ5UpNiamDKdG6gImZArX2wpHsQYSLJ+R7+8yfP4cXJScRRCRBCbRfhNFTHyFugAgh71EX9hD3hFRb+OckThkdqM1hl8KFV+NqPr+DiSoRlzXBDAtt2iGKKHRUFm0qAwL0rkQV3/sxulDoNRSpfKPAOkxtJc4xUB3XfwRfOn8Vnj0eYZXYDpZlVUGJkK/rbFFTQyhS9ApDske1G9bHdPhVV6yBY3S2LTcA3wOQe1feo2nV4LVCO4TY8fnC7if/2ozvIxlhUzTJ1J5SG10U684CZQrYSPx3/P3tvHiXJVZ8LfvdGRC619b5Vd3Wru9VCoA2tgIRBbO/YfsZ4vIoBGwECe8Zz3nnPM+e8ef/OnNnOHC/vmYdZbLwyBmOMWSwWG4wESA8khBYaCS2t3vetqqsqMyPi3jvn+92IysjsrO6q7KruqlaErYPUnRkZcdfv/n7f7/uIAAKgcQ6/ctNKvHndCgyIc6mXZvazYlYiwyu38Zfgm5cA4Qp1itcc8BfD93LgFyU/koZbaAQhnpt0ePD549h3xiDRAcKagU01TBIgjLylsFyifuxP+7IpESBQBY3+CSQWsbpBDIo4MQ0qZgrXDga4c8tq3LKRlssxAuolsEpBIga+8iEHCMI7ygACcUauEXCFmm7J/uxMBEH07nNskGlEUIWyDK0u2b4rHyxbSrIoZExL9KbC7/9gL86EjFTSuTUUVUQaPM12MbUmtvGZ/8udm2K857rNGKG0uBRa5cC5BAjLYcyVAOEK9VJHBEEUCL2WgUgUmwR70yo+9+PDeHk6RctVJI9NljG1SBSjB2Kv2iuXl01O1GgkgEowiTjRSFETA6GR9ISULt49ugGbByoIs99mmaR4Lvin8N6KWVQjr5Tw4ccyh3ihIdNmIcywQ2Y+XmZer9BkK392Ti2QV07R0TShd4sN8QeP7cNLIrpGddZIUgw67A0QyFcSFVZanRufprxmeAIffPUmbBrgzKCCCoFCWQk1pw5ZAh8qAcIV6oQiQPA5O18ex5r6Kafxjb3j+PoLx6GHKnBBFSYGNKMHnHwV6qNr6LT3lsPwtqgosowxbiCqDEudgrJTeMtYDffuXI9NMlXbugVlTvwKDYTyZ8sWWCot4HWY6ROLlNVNxuIzL03j28fPirpoqAfheFhBb5IitVF4KHGKKqsUcFNYX5nEB16zDteuSQEbQaHuFURLtLxUev2Cz1EChCvYTXlZos/bJRLeb9oAPx1v4h+eOYDjtoJYawRRHZyTTP3Rfc1Rspda/j3MluSQTxKieC5wHlZgTCKKZq9eO4BfvG491lQthlXNExvLiXoFR0D502ULLKEWKAAE6h/otIkHjxp88cWjwoeiqBpsBSroTVL0EUdf5st1J0kMVuoY77thDW5ew4WG8uLnyy4voRYoH6WrBUqAcAWHBAGCOKuxJC5owCiNl85F+NxPjuKlhkJQ1aggQBJbVEQWOYUJPEAQRQLm+c67+GcBLGJYYdMnGA5i3L1pCG8cXYPRwMBWqX8wIAG//CojCFdwIJQ/XbbAUmiBAkAwyiIyDXz3XIjP/eQwGiQ3p9zga3CzVDGIqZyYzCmJhJLwXDMx7nvVCH5mdCg7sEhZT1nquBT6ew7PUAKEOTTSYnykmGKAMYhVimMuwj88cxA/PaUxrapAxSKI2+VAzraAkJ7JuTuiL470IsvizC5kRRoBJahCo4nQHsE7d4zi7WPrUJGSBvIX6NAWQJWs+sXo2vKeZQssyxaQiKbYntP91fONDk638PGnD+N4izLh9IKhFfosJYrkIIi/A63SNSqGNs8J3rEV+PlXbUI1tYh4X6n3LY3KlsMgKQHCFeqlYhUDwcFkE/jmYcoon0LLDEMxlKc4YduEIK1IACJA8DRCyfnlCEFIDPRI8P4N1misRAtv31HDXZtXYy0rFMRkKBSyY6Tp1V7WIl+h7i9/tmyBJdkCM2lPyh5Yi/HU4BNPHcKL5wI4OsaiiSiYvQLBGlZMOSC0CG2ItGXx5lGFX7txYwkQlmSPX/ihSoBwhTrNmLZc6ZQCnjjWwOefPIypgSFYlYixj6IwCdqfY5mcJb8g0zTIAYJkGmi7bJxYt9pQo5pM4d6Ng/i3u9aiynLHIEBMVM9qCcsUg4YqKvdcoXYof7ZsgbIFlk4LzJTqEiA4i4ZJ8TfPncIPj5P6PASnzp1nvNR+eguTcs3SCGqxcKRSU8Fdq4H33bKuBAhLp5vn/CQlQJhzU83vg+fJihaNDmmJYhiqY8CuiZNJiE8+fxwvnGBaQKNSTXy5kPFaB0I2pNSxyPdSqcwrkdE9WNFMRaR9UyiWIwUaNedw40AL77pxDJtqiS9ftPQBYO7PaycIh4FqSuV1FbaAB5XkoPDS9IYQ9w2J77bftzgmu+ksF/q7jhbr/GApp3t1DCeRDLcxEqfw1SMT+MoLTRhEcFEDAVMHPS4RShJhNho6hUhjhzDU2F5t4nfvGsMwxZZE84W+LldHO13tb1EChEXq4bZ5T2/9cdIBiMnHlcMjh6bw5f1nkNghxvUk+Ufr1TAIxYq57dCYAQQKITFiEKRgUVJgajBxBKdjDFSncdvmGn5uwwasGQgQ6sQbLBE8CFshj0h4j4XyuvpawEedJBk849VB0pi3BM/U7nq+9lwQQzeSKNbEZ5yYUhBq2Q8qSUciQZBqfPPYWXz+hWlKrCHVDW8UNwtAECt5aqpw7UpihEGAVbaFf/+mrVgP1mqTRkWNlmXfRK+IFygBwiJ1XdhqFAAAIABJREFUcwcJMTPwKS6/2ik0lMOTkym+9KO9OGxqqOsIsW1Bq3omWuTLiTxA4ImfkQKGEvKTIWuODXQSwZgIWk/hNSubeNfNY9guFq0MMRRrFRbpZcvbLqkWYOWKd+jgmPERp0xqg9Cz8Kxdgje5MpYMuqJxRGHkZqCjfZP2PfLf0VqLvXV5Ld8WYMRJnGRNgB9MTOHTu0+imVZhAkYqex8svIqrBwjIAEIlVBiwFv/DGzdiB1OjziJS9RIgLJOhUQKEReoob6LkDY641koFUeb2xy2bfghHU4fPP38Yzx6dRhIOQKUWqqphGYLj8k6+gfx7Jtsrfky+ZsH7oXjxZKUMTJBg84DDfdeuw47hQUSco+LxUGodLFIXL9nbeoDAK0spSFDKjwNJNRAI+NU8G6H5q8whgiCqetnnpVyNehszf1CQ4S6PiEt2gMzhwei9wFEUmBA/NSk+/v39mDJVKJZJSzTy/MunGLzZnAoqcKmBUjGqcHjgri24qUKA4BBFPt1ZXku/BUqAsIh9JDoHFCzihBEZY5ERkSKEhnP43rEpfOG5k4h1Hc7FPkrAydcxdzrJC7kPgnAU4kAiB6jHqITj+OWxdXjj2iHUK+GMw2Opb7CIHbxEb01mi2z/mQWnFUDg0w1MXQXaeYntPtZonh5zPMCx5aWlfZSrXd+eeYL08wNLtE1faY/FMcQEZmgiHATwh/+6G+PRKmimPFXvFMPMOOBIk2opIxypyAC/+qoV+JmNEQIECKW8uowwLYcxVQKERewlcgwIELiiUoeMWuVGOcRweG4yxj88fRj7GiuE0KOCcQSBhk0jz/SRwoSsGLnwjDlAYNQgpS66riJyp3D3jkH8dxs2oKoMgiAoDZUWsV+X+q1l9Ag49ZA0sBrWWOGcJKG3oNYEmL78ZV6vI3THtikHinQ1K2mwLP0lELW8lmMLSKmjyC07hEbhOICPf/dF7DdDUCH7f/aezaNJOogygADoOMXbt4Z413Vr5X5B7va4HBvnFfbMJUBYxA4XgCCmJzQx0zCxgY5CTMDhb58/hiePxkjsiPwZoklY1xIpU1BC2ZGESIBAgJGv49miK39tYZnrbU7iTZsG8Y5r12EDZZh1AE1ZVAEX5fVKbAEvmMVxQw6Lw3QSYTxJ4VQom7sY7eXOn/PdxTVTYIlU0QyHDiu1QphFErxPnxIyZGnHsxxHngd/HiCwpJpl0wZnAXz2yWN44qyCqgSi/tr7ynKp3tHNp0KVhU4t3rTJ4jeu34TQau8GXWqwLIsBUgKExewm52AUyxQdlInEHTFWwP7pBv7kiUM4ZyLEiUF1YERSD8Y1pMpAuzoUIuEWSCohJykWMsaGzo4qxpZqjPfceA121ZnCYPSAIILfLeVMF7Nrl/K9PUAwUJa2Ow7fPjiBb+3djzQcRKi4wFNIK4CeqWyZ+9vYqgPSc+ILct1gjF+4/XasYqltmojCHrU1yrE39/ZcWp/0fBIfBfApUYMYDQT4+gvj+MahZlYYM9vhI0ebPspAjGDoy5BavHFDivdcP4bIebJ1SWJdWj0/29OUAGER+4mEHaszgJBEYrd8DAke2ncE//KSggmomTwpCmXc1MGTmWYouC5liXRF40LP02AeuuXcZYSAqYsRN4lfunED7lgzgLqQzzj5iCJ8qLfkHyxi5y7hWxcBAqMFX9k/ja/sP4M0XCHRLKEqWqa85n/OTxRQox9Iq4Ed1Qnc9/rrMKoUQkO3P9a3l+NuCQ+NizxaESDw9E9itUHTOTx6tIXPPnsaqlItkFK7b+dTWuIk6xjFNEgp0mYc7ljn8FuvGUXNaoTCcZxv6Gr5tupyfvISICxS7wkKZx6YYX9yEOIIqbb4cXMan3/mMA7HIzBUTVZTQFCBthUENG5iRYKqSPUCXdlFt0BSDAzfVWFtC2GUih3T6zeO4J3bR7BKx2DOjx4MRO65bkIJEBapc5f4bTsiCAr4pwNNfGHPWSg9SAdwCft6I08GkrsUvC7ybqnSiLRF6hQ2VyfxoTt3YINSCOjvQQnect1f4qPjQo9XBAg+TUCH2dQ5PHa8hb965jhQG4Q1Xmzt/MunRolCybei/kriUiFl37wxxHt2rcFKHULLIajUYFkOA6UECAvcS/nm7EN1BolmqaISmdFJHeKLe07jOwenkAaziI0wn+tA/yYJw9GVkeqJgabwiJdSDgfOYjPq+I3b1mN7RNtmI/rodFGjTUqnzlnJRVjgLl7ytxOhJEeugIVVMb56oIkv75sUl08jx0JSZnPJ7vm9jqP9uGshtRpjFYMP3TWGzQHHK9nprJ5oizOVYGF+bXulP92t3ZJzn7iqPHxiCn/zzFmkQoDuvaZ49cU6oKegiUC1Et4Vh+OrVyt88MZNWBsRGHBxKwHCle7vufx+CRDm0krz+EwRIIjfQl5z7oA9jRR//cx+HGzxtF+bFYWL4QnVEqlzFKay2JNzQN0Daigoew4/u2MUb91awSoXwJB7ENVKgDCPfrqaP1oChKu5dxfv3S4EEL53qoG/fIppKsYF5g8QXrNO4wM3bMLqgGLyJUBYvF5c2DuXAGFh23MmvM/JZsQ8iSUMCSaCCA/uOYl/PTyNlAChMhuC9p7qNhNEkrIiw5p2HgBTVE0T1w0P4tdvWIcNEU2d614SNayUAGGB+3K53q4ECMu1567sc18IIDx6NsFfPHECSZ8A4drVFh+8aTPWRSECZaQKpryWfguUAGGB+6gYQYiZDrDMFyR4OjH47JP7cdSuQtVVkSpWLPBqM3/9f5OF6DUQbJqDBSdujNY1sC5o4l27xvD6jTUoS8OnisjnCqpnzpBCTB3vVCaFF7iLl/Tt/CJPNNlOMXxtfwNf2jctizKzx84EIpZEvst8r2KKYWvV4oE7t8ykGKKQfBuOt4wsO9+bl5+/oi1wHkCYeRqDx86k+NMfnUAatLUuej1snmIQ/hOzWVzDLHDNUAsPvHYM6ysVRMKULVOfV7Sz5/jjJUCYY0PN9WNFgEByj7IWU0bhcweP4vsHz8Ho1VAJ2YlcqknqycSQMh18yeMxWKA1XGKhYyANLGzoUA8auHvLSvz81nVY6VKo0G/+LGycLexXEhXn2nNXx+fIO6D8MfkGOQfh6/un8aW9TfHloDoeXUIXAiBsqzl88I7NHQCB6o0z1TRXR5O+Yt5iNoBgXYofnjb45NMnQTGsC+7tdgBOTXpONZcnltFYYDSYwAdv34rReh1VTQJkGUFYDgOrBAgL3EudJEUKlhrsawGf3H0ERxsK2gaoKI0081HoBgh8HCPOe1r81EOjYXWCVDUxGkzjPXdcj+vrFF1KoCue6OglSXpHCkqAsMAdvMRvVwKEJd5BS/jxFhMgbNLjeOCObRitD6BKAFuSFJfwSGg/WgkQFqmbuFAz9J/YGI+fdvibZ44hDetwNpGTnQ4zw5IZM6Ws3IxpAiEckLtAlB1CSanQFH555zrcMzaEYUsXxwguYxOXAGGROnEZ3rYECMuw05bII58PEPyaJBGEM1YiCKLAeSE7b1uB080s5ZkJJqXA9sFpfOC2rVgbVVCRta1MMSyRbr/gY5QAYTF6SUiGDOW2ZCP/7N4JfPPlU1AVWjBXwCoFCiL1urw9LydWKnKkSSNBWK1gVTCJ37vtGqyuG1Slej3qiBnMNmnLCMJidPDSvWcJEJZu3yyXJ8u9GFiBxcynQ4rHzlj8aQ4QZs0x5P61LO2mMJyVslqvunkO779tK1YSIEiws+RGLYfxUAKExeilDCBYE+NQqvHRHx3EqbQi1QxwdfFbcKo56y/7TV3Dsryx1UQ9jPGGTVW857q1MDZFFNTFqY+yyvlVAoHF6Mjld88SICy/PltqT3w+QDD4bydjfOqZ07CsYhDeVM/jTcag8gBBaSOcBR07vHpoCvffvhUrwwpC4VuVAGGp9XvPHnWzU1eXw/MvzWdk4YI1iB3wr0fO4O9fOAWlR+AEIJAFzNTB7Ap2EkWwGqnRGKgBg+4M3nvTJtwwPCA+TqHz/0DMnMqrbIF2C5QAoRwNl9oC5wEEZfHI8Qb+/JnTQEQZ5dk2984IAgECzePQMrhxaBr3374NK8PIuzxcKE1xqS9Qfn/BWkA5ayniv2A3fMXfiFLkNCmxCSYR4k93v4Tdp0IYU0PI+l+SEyMNoy00wQI/LDyEDDDwzzQVySiOFKBaTfHqlVN493WjWKtrwiC2yohSGfXwymsJtoD3Q+68LtMcKwHCEhwPy+SRiqNW/BxZoq2AFhy+d7KFT//oGGylikLgsnuQd0YQMrVOnVjcsiLGe167BcO6AhFTvNQIwhWcY8ukOxfkMUuAsCDN2L4J/fO08/rlu0+ewl89fxBn03WAqkClMRTNl0INGxAgBD0AglfI50VTpqqbwq+/ZiXesLoGjaoQH1k5xDJI2uyW1xJsgXzxklqvNvn0cjxpCRAuRytfnb9BWnV+iSkcAYJWmLIW/3p8Cl9giiGqIZiFP+U3fa/DISkG/q/YPRvcuQ6476ZNGFQhfHX2Ja5dV3COXZ293/utPAeBjV1uNgvS76nYNQc4ax2+tecwvnawBaOHvUtjQp/dlFL4cCGBRC+AwMeg6Q3ZQdPYOeTwwC1jWBMoaJZHGgrcaOEflJXEC9JlC3eT4qmmOJ8uI0goAcLCdecr7U5GSq/bl+AArTBuUnz90Dl89aeTUFENmqzDntfsAOGe0Qi/+ur1GODaJd/tEyAsgTn2ShoXbYAgfdZnp72SWmzWd/USR6kzCBBhn3X4u92n8dzxzN0smm5rHNKQKQk8yVBRfY6pAu/6SGJirabQmmhgRe0MHrjztbguSBFULAJWRkj9MNUTZ5NGKjvjirbAbGD7MoEEDxD8Qk3JZWMdvrG/iS8eOEcJRaSKiSn6gMT+hDjPhdrpCMo10EqArVWFD9+9ARtJROOYVg5c/svE1xUdgX3/OIdoKk6M5DgpxLTutg4T2uIzT+zDD0+tQEADpqAJrb1rbOdwZwmk1/FMUyomtmBVijCN8OatDr987XoM8OlsDITyb/1dV3iO9ffQy/NbJUBYsH7zAMEZSiMpPNVo4NOPH8WZZJWweRFN+dpfS3GjCusgs1LHjLRAAiMlam2AVLcQ6gDbhiZw/w27sIkujVqhilSiB5S75Wdpm1JeV7AFZtv0ey1gVwAgWJuCp8Kv0e55/1mELkRKnQ2jEQpPlkv5/MaQUUxtJbAuwFgtwQN3jmITAa72PBqOynJcXsExeQk/3Q0QEmoeOIeTMPirH7yAZydWQwcBXBDPDhCYWBAOlkKIFqAiSTHcu8XiV6/bgogicJT4Vr3dbM97/CU4xy6hiZfdV9tljmWaYc6d55Fznq/zMkUeN1uRVp7WAR48MoGv7Z6A1TXRNNBR7KsOLAWSyORVIkBCWVxJVSMRNK7TCCZKEVmDt45V8UvbNyGyCVpao06XRxIYRaqUKYYyyTDnTlvID16MIDWfRW0hn4sjMIsgSDTKJhLR+saRJv7xwFmoZFAWbx0YUekUSDs/fOD5L+TBQGH78BTuv2U7tqQc1oHwY8i/4dguy24XuGMvw+06AIJVUjFFhdYDJsUnHtmNI8l6IOTG3poVIDB/yjGiggTKNmHtCEJM4RevHcC/GVuDwNK6nqPnImvXEp5jl6ErlsxPlDoIfXSFswzf+v/LnRA8OcfIpn/Shvjkk8fwwnhV7HEY6lWkFfCUNfMNCiYlcupiqsEi9sYmcYBopIpaYxzvu3kMt66uiuBSHCnU4iosE4MBlchKgNBH1y3MV4pguldOdLY86cL8+gXvkgNXcRO1sZTbfuNYC185PAHTqEvKoVJziJtGhLguVG6b/1ARRDh+JU6QWosdq6bwwK3XYywGTI0CX1biB2JJXqYrL0NvL/BPFFIMgVGwmU3MHmPxJ488g7OOAKEGZ5rtNFaRvkbalA3htIKuNKEJUFsrUA0m8N5b1+PO4Qo06OZohYB9kYHcTnlfaI6V42yBB0Hn7UqA0E/zZgAhURQCMYhMKNoGDk1AR9h9pok/e3w/JsJV3qc5YCWpnKvav6bJ9GWOz7ueUa0MsvoyA1HBruA03nvbDmyUaIFBqkPUTUgIAscSSU7Ci6Hwft6t/M78WmApkqYsISlP+fQJN3jwwAS+/NJJ2DTwoV3mjyUlMIdX5fDz1W5yEaBGiaaIOLauCPG+O8YwmmqgYny1Lk+ISomXSHktvxbIo6O0S5BopXN4ajLFp364B9MYgSNZetbXcrKmIQjhwgQh17jpOkaCafz2PWPYoVMoFyIM6CIazr1xluIcm/vTL+tPlgChj+6TSUQyjku5IkLbNkBIXBX/fPA0vvDsaaTRCDQomdzDTImVDAwHO1/1YF0IQwKZTkAFxreuc/iVG67BYMqlPkESRYgQyne0JkWRq3G5CPfRffP7yoXSBbxTfoK5TByDOT18ASAw5fWDUw08ffIsWilEfEtO+DJ+5nQ3CRnnCTXCjopRaLkYo0MD+Llr6SwaMGsmJmPU9RCGTAkQ5ta4S+xTMxEo6zyXABrfOjqBLz57HImrIwkSRHo2/oAHCI6HpRwgtGpYi3P4d/dux3oXw4FSy11ujstxji2xflusxykBQh8tm1X6Sp2vEAcItSVCkGA8TvG3L57CY0dT2LBOwWRoCUkTULTrjBnedYjlhKdNCKdqMCEVFBuI0MJvXb8Sb1i/UtjhvIfYrAqJkUQwn2IoAUIfndfPV3otYN2cnSUEEAgiWdMunADrcJowNWOdGzLUKcJZiApcrElcIYybsHrGGMSBRd1orIyote+gIi0bCpFzmWK4WIsuzb8viur6Q5BCwzh86eBpPPTyWSRmCKaSIpxFapmsFueUkLQdxdwCg8DUsCWYwu+9cRsGQB2YGgIhW3UdbmYj9l6hcuGl2UOX/6lKgHCpbS6yyhBtg8BanG5N4WO7T+GliVAUExmq631RFbEBZ1OQDWRpvlStImhNIQob+A93bse11UAAQn4VJzBzvGWe91I7r8f3ZaPvcbruBQiKQkjFaMIiPNZ8bimRLccYAQEnc8kkwnrAIMI1GThg2mtuVxvYMjjsuTf+iiQO7ZuMGwOBq69iyKIUc/uB8lNLoAU6VPe5rjmLcST4+z3jeGzvOVg1DFclt4BE6/Mvob3y/8VwTiHVKWpG4VWrFH73tWsROFY20J3W6yucdy2jObYEuuuyPEIJEPpo5u6JRE4uF2EChENT0/jIM2dxMq0K8VDlvIKu37G2hiBoAsE0kAYwrgYVBAiTKYxGMf6nN16L1bLEzx4HLgFCH513sa/MN9yZ328JkaVY3siN2kq9AVCxJMP6KhtqFeSq3nLin2OaYeY1bTeXpr1Z5PPCj8s+bn6xvin/flFboNOWh1UwFqeMxZ/tPooXTxFeVqArMeB6AwSBm6yeEeCskYQJKonB60freP+uFR4ykq1N8NorBdU997orGZbQHFvUjlhCNy8BQh+d0VnmmImLEiA4i2dPTOITL8Q4ZwI4Nw3F5GyPy4No1pxNI+BkUjWplIxaE/j5Xevx1rEKBoIqggLAKAFBH51V/Ep2QrmwP5mZORH7tFHhlD2ntALDrMWwUe9Ter99OSdvNef1MhLlAUKVRFme+xUTD0pKEQkSvLTu7KZh7aZrR1QYfZhBGEJazMhmrG8nB4FfktNhCRAucbRe9q93pBg4cgxwsNXCR586hhOtOqwxCEKOrVkAgqRbHSw3f5rNhTFC08JbNg/ivTtWSIrUkcAoPBUSZrvQ6WypPLZECQ4u+3iQZi/dHOff7p0TiRtCIiFcTopvnp3G53az/jdjKojzUq7H3/4tQyU7VGFjjShMYQILldZQC87ig7eP4oZIoRLVZ0oj5/+U5Td6hjDlkEO9Cn/SSemOyfC4FH1rRJoB9EQsbR2Ctk6A7KV54r6TyS1+W9mPSe7fxgIWraogJcckbAp7m2AxsNxQlRjgcM2rSAmLgw20/BbrWMQkJ79fYQ2Vf7VURxT2i4y5kLUKJK0qls0qJKFF3VqkYvqloUwMoysILNkDDFaFcv+ACQEpNZtbmiF/DHqMSL2OpmGYRpSkUIFC7DQiSXvxuUqAsCxnXzbG/QGIZbAWT046/OXTpzDR4qk/Ff0CzpsZtc5CmSN7XfNgRJZU1cK5SVTSFt51zRq8ffMaRMqJkifFugJl5PDDQ1IbTrcBqxSNd439KM9lEWj00knIGr1f8L0s+2yRH7oECH00cCeZJytRVFy4A3zp6AS+9mKMNE0RRRVYniZ7AoRpKDMAk1QRRSl01SEwVaypjuNDt45ijGWMQVQC5z76Z9avZP0g52hnxY6bKhUViltZoEmVQKoPBiRiMQJE4l22Wc9wE3zCvbitFs/h/JuQ0sMECCSmqBQDUQKYACYcQMWwJgU4x42bSQDrXTkT4kj6axgqzbXv2BmLUF5ri0QwBp8YsjUOJjDQ1sClAaIqMIwUlhEpVxEwcE7FaKQKAwIIErrwCK+W3Jk5BRAKDUqeQZSGmFQOQzrEIFJUlJUqG0+jLQHCQg7Zy3qvIkCAQYoEj55R+PSTJ5FoVlilsEwxaT2LUBIBgieq2qqCM1OS3nrbrnW4dfUQVlc4ZpS3qudlSO4mUHdS9SLiSZTsznguMvdmzlYuM3ny/IYLXSVAWLhRUwKEPtryPPTqHBKdInEan33pDL53gBrkIlnnKxh6AASyfJ0JABN6bybWBk8b3Lje4Tdfsx5rqVjG+VOG1vrooQt8RU5HHrTxJMN/GBh/ZN8JPHV8AiYcQhqmCKkSY7UXi8kvnpyyPTXHDfwrWcOyNYvdFYS8v4FrpNg0pPCmnRuwMopQZYmhS3HcBXhw9z4cZ2mr0ai5EDZUsIGCSm1HcUr3Whjy+VmCQB8PVwFiDRs2YU0KinXesnkQ92yqyz3JnE0Di+8fP4NHDp1BxNxxJYJjHhgaxvKUN8cUQ9YGjpLgsQIDIZurwNt3rcN6xloi5pazxEIZQVjYMXu57tYBEIApZfDgntP4570JWKAYRpw2noPS24uBki1ECAY2qkLZGJELMBwBa2oaQ1WDVZHG6koVm1bUMBgpDEYa9UqIumMBJMGCT1kJCdsy3VeIvjJ1xfTYRUSWyjVz4QZMCRD6aUsu0mKFSnMlBtSoYZBiwoX48x8fwU9OxXBBVaTui6fB4k+5IICikiLI9o2kHC0yTbxj2xB+9pqVGGbIuVNaqZ8nLb/TowWYS2UunWVchqVcFviHF47hu/tj6OoqmJAysbGAO2HsE0QwDVA4bjO8nl+5aY3/tIKLKpKucFMNvGaFxXtfuxnrI3JUFIwzOORCfPThn+BEUEWMKmpkdke+RMwxlCCEQv4ulQmLinNMYxlfp0hAQVnueAAqnJKxGCYGPzOq8Os716EqKQcLE1r806Fp/NPecQRBFWlKLwau9DEiEfAqnsaKYKH95xzjbSBRkVNi6hJsG2ji/jdsxWakCLhoZ2hGFvf5sh/Lkbo0WiDra5bDjiuNP//RC3h2vI7EBQgjsXf0KbDMECybHvLsHl+Qss21kU61MVxcgUkrcIGBDVPoCkGyRtCaxpBOsK4GbBnQuGXbJmxbOYDIKVSQeGsPasiIdLiPTdFCWqpjJI8Fr88hcyTzs8nieiVAWLihVAKEftpS1mkjxeTWGYSqKgvmwTjAx364DydihcRFqNDYpJBhK/6U0SECSpZqjTSIgDhFxZzGr10/irs3r0JdctSsKC+vS2qBHipsTPvwpM5abBdoTKUOf7/nEL63zyJRQ0CV23xLtmaG8/3VfdI+f2PNt0Ua3NCVUyUJdq2wuP+WzVhf5S00rDU4Bo2PfPs5nNQ1pGFNKl1cyHJXkgQiKKlD9FUH3RwBpi7kSciVMBouHUIQJdn3Dd60CXj3jnUIGJWg4mdg8eChBr6yZ1zAS8oCB9SgI5LNimZN3YTFbm6Cf3/Hca0sYmswVpvCh+/Yjo3U3VehCH75DaMswb2kMXsFv5wTsCl6dcgAn3jiBRydGoLTNUAl0JR5l/IXf/l/y1IB4uTo/0Q0EYSXxSgpDzsJAh6KMs4N/55zgYCCuggDIbB2eBCbRxy2joQYHa5jTRRiIAxQlZQgU28ECYywZRwXTb0P1upk/y36DOXYW8jhUwKEflqzABAIDCqqKuHa55MAf/id52GCAVFFDAN/8ux1paqCwEzJZuB0FTZJMORO4f0378RNawaEfEbZ5tIZr58Oyvf0PDzZCbNkW0y5G5MaoNEwwOf2HsSjB8g/GIIJuPm2vC9hFimQOxXi/UJKLf5MZmzDP5e0hHbQrSZeNQS876YtWF8JoJmycAbHlMJ/+eZzOBnUYaIBgFLFIYmTBtYEUCQaiBgWxZLbDEhJXwjI8BwKCVHZGhQlvyuMili8ebPGfTvWChnSAwSDBw9P4ysvTSGM6M+gJI8s3Ibz+Im9own+3fMdQaMaWCTWYEt1Ch967U5sCGIoAl6mNUqAcAkD9sp/NQcIqXLYfa6FTz2zDw0zAutqfnMOpqGyMkcZLV2VB0XOjEhv+7M/khqBQAiVKOiYUVcSZr1FuGjBcPMXoaUmBmCxJnJ4zYoqdm1cjbGVAxgMnESpGNVjhk2gCLkLLNv1zBcvWFcChAUdRCVA6Kc5CwDBuAQRAYJz+FHD4Y+/+xLCaBhBJUJqqT0+C0BwNWg3IVbQCiMSkdhYm8D7X7MN24e1hH/JUb+Q8nk/j/6K+c4FlA1lEWMESNTiArQM8Pm9B/DIoQQtOySWGCJpLbtd3n/Fkkf2jQcYclrKwvQCBpkmEMtbI4qY161wuP+WbVijfWjVWYPjSuM/P/wCjmlK11ahEw1NV09SJnnaCiR2kcl4F1IZsk9rcgx9hFe4DgEMTb5CIxbObx5V+I3tq0X+m3Xs9O346uEpfPH5BjQjDY5y3SQoknSWhYNnwE8BMdCSt+v9PE4IpSIiMQbbBmN86K7t2MTohwu3LVUBAAAgAElEQVQFULENygjC8p1lOUAg5+DhYxP4zAtHoPQInKmTVgOE56DJfcmjB3npcA6W27AZmpUQlF6WkR2DMkmKxFlxruPcI2HWgdkpa2MZ72FakegrpDIswVBgsXlI4/pNq3DjyABGggADQYCAKTWORkEgnjjsAXwZQVjI0VcChL5akwx1ni4pPNMCXBWxcfjykWl89YXjIptM33QK1hRz1cWfcqYCpye8UrMaQqActtVO4XdvvQ6rOH/IccwIO3094ivtS3PSKPCNksIIR5ucAKrCTVuDz+09hUcOp0iN1wkkq5qpiLl4CnTGJ5yUGzpuwEGCa4cNPnjrGNbwpMM1zCoc1Qr/5aFncRrDMC7y0YAMZDB86lTqH1Q0MDp5ASy/zM9lqEz7RXGqAqtYCVPFW7YA921f5TkWfE/n8PUDDXzheZYjkhvDP/dMcc+PmeelK1BpQ4iOW6sWH7xzIzYzimwCRFzomb5Z9imG/BzsN7cZoDTPplpuH+cUIr3AwOFcmuLPnjqM51vkuoS06/S+cxxzTL4J18DDhF5FBT5yyhO+B9BMTeWXZ/O025iDUaJd1iIM2yZO1Fvg3NCmhcAlWDGosKWucM2KKravGsH2oQgUs/ec2EygqQAQZoZ3Ri5ebv2xFJ63BAh99UIRIDRlM2iaAH/xkwk8cfosrKtChxQEYd1wbxYB/455OWcG4SLWx0/ghqEGfvvm61FnuLkECPPrmdlU2HpUgXBxkmJDETCI0LAtfG7PFB453JSQvrS91jCsA5wDCaT7I14niX9qsXMoxQO3jWGtl5mbAQj/+aFnccoOijpdKKepAI6gMyA44D/8PjksnZu4nNK5KBtAhbFX8IyrosWBoIK3jkW4jxEEEUXyAOEbB6bwxT0xrKI2AysXvPDMHF7t/D7QIZRpikaEBwijVxlAKApdcfNrt9LVnu4j8dogQeoU9k+l+MRTB3GWANZUkaQVMYkLowQkMF4IIEilT0bwpc4Bm9BKJKFwzTRrxtzJyJEd6t+u4onEAiYsWMED1UIUGgxYh1vXDeKt2zdgFTUVRJnRIhByt78yZsKMLsfcFD/mt+xc7Z8uAUJfPdwGCCTuMG9MXP2Jp07j2YlppCaEjpgeYAi49w9QiMQDhDprHBHpcdy5zuE91+1CLaCITRlBmFPXXEiOdTZlNlloGEdg9zDFQIAQ43tHpv3il0UQjGU/XHwb7fyELI/+ZGWBnYMtPHD7VqzjoUuqX5RwEP7woZ/gJMGhqqASZg54hqWtU9m48QBhRochawzSE1hqZhInZjjUQAgt9Q4YFK7irWNV3LdzlSeJcWl1Fl/dfw5f3tuQdzWSOqDojec2zKnKsdgRLN010zAqxDYChDu2FACCr+pZzhEEaTWJpfstJodRBGW0sb74aJjTqF2SHxKAoBpIjMKTx1v42xdOYVLKBZheqMh4I9/F8wx9RMwP9SzEX4gRSFRAiNY+5N/NxeqMzMyySApa8KqfguVZwWMS8XkiCThEivUDFjdvXInr1w1jWzXEMAGwBOS8ABMFyPwUZoLD92h5zb0FSoAw97YqfJKnjPw/HWzqMB44fPTxY3i54WAodqNzkaNZ3ZoEINiUWnoaFT2JX7x+Dd66YcSzdmVilZh31u6Zqyxrzx2QG1kCxzSCDZDYFJ/b08B3jk3DESEIOPM6AXPAB12P6BcgX/LlsLPewm/fuhVrKtkiaYATSuH3H3oWJ90goGoItIHTTElVoVQDPDPlEYTzUgwktVIF0jCFwSiUl22ikygZ4/duGcR/v3NYysw8IGnhawem8aW9PPVrAQiMeAnQmA29XmBOsM0C10JqNbbVHD54x+Y2QAgJnLk454tyX5Prin6Js5UAQXqAKpt8HzEe8nMx4v4oVphX30bD9IJ1LUxZi6+9NIlvHjwFUxuSFINWNag0gUYLVtJgha221xzLBI/m1pm9ybH5d3Mcwufj/BR+UBAhqHD+TiM057AxCvC6sbW4eXSNROuqInWSwkWhqKWyT6sIRJRsLqB/bs999X+qBAh99HGn1DJgUoPTCvivPziGQxTNM9xYQgl7FclsHT8lFN8Y1lShdYDIncP779qOW+tWqInL+RTWR5PO/yuzkRBnSzXIISJfiCwMSVGyKQcih/y5PdN4+HgGEPIIgvTjfB8tV4LzAGFXvYUPk4NQyeRhc4Dw7WdxEoNQ2lchcON1UpHQFErXhQCCkA9NBB3EM3wE+Y5TuHdzBhAUKVxc8Zv46sEGvvRyU/jkqQh0cWxmZWjzfL0LAwQjoeTlDBCYhBe7bCHFO6iMaGyZMrSBBwwUqZr/wJhnS1/+j1Nsy2qHkzbAn/9wP/ZMcoNlTQGHWQUqZiVCCuvLCHqDhJywuxiPTwKwjYRoK1pJqgGLaYnsaFuBSwzWDgV49aoI92xbg9GqRTVhhY2GCSvQjmTgjDlxFfbfYjR5CRD6aNVugJCkCY4b4CPfP4mThARzAAg8BbKCwdmqlPrU3CR++/U7cSPL1eQEVrJxL9g1cwUIPW9SAoQSIMwyuhidIUDIgncqTUWIx1a8Mo9mLl0k0K++YDVP3KkL8NREA3+9+yimEq+4SZ4L+M4t5T1GCgCheMrP/70P6uscV2GfdpNKIWp4SIkjU7Xsm4rky4yZRi2KsboS4/ax9bhn3Qqsjxh6CLyuTAb4yyjC3Jq8BAhza6eOTzG3xjnDIABzxNPNGMetxse/fwwnhD7OUBYXEdLh2uVixZswFKspSWcHpBKi5ibwe2/YgR0VljD4k6vPmpVXd621P7701jjoSKrPckrgN6lH4AsfFFqGEYRz+M7xGDYhMLPQITeKvMZ6Hn0gZY5eOIbfv3YkwQM3bcbaqqe4Mf3EFMMfPPQcTtlhKFYFaPIHKnBSAuZTDD691F3F4HMXzII4o6DDViZSw9REIpULb94yhN/YPgSlaW1DbYUYDx5o4Ut7J+TEJ6FhW5FTFysf5na1l3xLnwlDMmeAsYrBA3eNYZQnbYl7Lc8Khm6b4wYJn7qCqrHQKSlyDiqMmBBERayKs3a8mk6hlItn9YIz+PbxSTz44kkYrIQyrFhhlQyVEVkfS90XIdTI2LNMZWXpNG/n3Fb+lKqdnHxInQNh71LoiETZXKSrK42aEWg9QSav2PGjlGZR4iXCKJirAWZYTKX8HVgW2YKKLJrOoF6lzkyC62rAv7lmI7av0KLSyH4NCAKzW5PfIGTGYl/OUCr8O7bpjnObLVfTp0qA0Edv5gCBX6WTXrNlsL+V4E8fP4WzEdnoDE36KIBXqzv/skZLGRyFbixiDOop/Mc37sRmyXVyg+Ci29tWtY9HXr5fmQ8JsQgausseCy3gAYL3IfAAIZkBCDRVkvIsKd3zG958r9zumZyqa0cMHrhpFGur1Hvz/JTjmiTF53DK5ACB3o6sRCBAoEV4JmnbzUHJSIVUdyTZ0QMEPi6/5wHCvZuH8es76AIqyvYiqfzVAy18ed+4Jzdm4VhGyQW8zun1OgECNw0mwsaiFA+8bis2aYrYUCRpeQKEDuAOOmH6EthmqnDQWFQVsDYMMegsmiy8VwpV5rJnYXj2M2bmO8YW9PP5eyQOp5zBJ3/0Ep5rRAijVUB6BlrRvyOSkkXLvD5P6zLuPB8j57J4oNUeUB2Oj1QtkNIbf/jh+J1R6ipobnS8lwCE9kVgQXIx70MOjlSAsVw5d2DVsX8eHSBNCGgiAQnD1Sbu3rIWd20cweYaLagMqqoutucioZBpoJ3fbzkXKK+HWNBWXxY3KwFCH93UDRCYd3369Dj+/OmzaIR1QcdUtfMDr/cKTB192gCzzI5iS0O6gf94zw5s5s6kSoAwp6jBLOQo3/CzRBiyM0EbIAAtG3uAcCwWoSJeYmvLHb4PrQBGIHgHRomog+AjCPMFCCQ18lnam7MnixNm8Nk0ApE4Zs6cOs7eO+LeLQQItXYEgQDhYBNfEoBA6EEbx4oUS4ph2EXHfz5+s//VjEBcXQCh250VhoqaWpQEv/3yfonjvG5sA66vD6NWoYgZi2HZgueTiJcVOOiaI6zaeXGqgU99/1mcrayBMsNI0tNes0tVgTAUEzqdk2j5/Rk+ht9EZ6oTMjCbZfyzSoYCQBBBjjyP046yihYDSYiMdHU0L+dDTlfMT/ZMGRClZJo0FBojeCAPhkJ0FPVSMRLdxGASY/PKAbxj5xpcW69ioOIBngQSsnnl07r5hMitTvN5mKWU5gSoLzqpls0HSoDQR1cJQMjGKCMIHGaPHz0hOggtPSwhYgofSQhuliMaqxc8QAhkoR5w0/hf3rANYxFTE7687hWdYrhYCqEjJNgDDFwMIJDoJ9UirgMgsCJFNuZMpEh8EeZ1ccFi/zGSBOwcsvjQzaNYW/GrnUQQWOb48HM4lQ6LdoFWsZzQeDJTuuFVFBklEOe6rh8Xciu3LFruMuTaDRCGzgMIXyNJcR9TDF5B0ZGVLuC18G7yO7O8ayHUy3/VrgHrQoxVUnyIEQSx66VKHoXD1AwRbF7Ndpk/nL+p2AUYPncWaxYjTodjQYDPPncYT59IYcIqBpJxvPGaQfzcNaOouXFEqi7lpQSikkqUvYvv7jU0lgWJsWuOMO12aKqFlyZSNKMIceLQiCdBVXKWPrYcMJ1anGoYJEmMVrOFlliPZ2kGUe8M4UQdiVU0vhpIxipVPAm4s6gVBb/8CulTbwLSsjYkMBeiq3guFMYkpbzzYapSv05KJVI4U0pJgmkUhCL4xJJb4v2qAWKmIvhYySTu2j6Ed25fh5EwEDVGmk+FMq/82PUy6vyHqQz//DMlryVAuMwzdRn+3MyQlbobaooDTx47g7/YfRQtvREWzWyDn72KgSc5yW+GJCs6jNar+B9vWYuNoUfTPMG+4ssce6UJLrDxzwyli32GTHWRWWZDG7Ssw2dePoPvHWkhZfmgnNJTWehnghQiPFQ8zRddFj1hKl+8WBZHy0VuNNcOOTxw62asDTzxjWvkSa3wR9RBsCNwYJlj0wslmRpU0JIwbP5LBI/FiwsW2diUsFWa+dhIDKWUIygF3jRax7t3DkExb8yQv4vx9QNNfGHvWaggzPgLoaRQKBeVX/J7s0RLOqytuY6aGBZVjNVS/M7tm7GR+emA4VorJWVsP4Zv55a+uLwLgLhysu8ZCZHjKv+hQJV3BqQ6xoGWxiM/PYDvHplCWlvr/S/SaQy6c7h7+xoJV6+JtLR32BYDgMnKIgOJAl7e9+rr17rmCcdA6qgxShEx3pH0TB5gAKPo4wEkBEHEzyLX7S3TG6nDVGxw/PQEjo2fw7ixGDdGxJWnjEPT1HFusgUdDMz4jNC/hj8Sz6QcuNl73RgV8FgVyO/JY3CTJmAgOZJpvwxLzPedmVKjUFglnsSuoRru2bERN6yKqGeKQIcwmlEFGcAzt+7A0DMgWmqEl0cfz7eRuj5fRhD6aMCFBwgWY0OD+J2b12C9TjIFsFcIQJgPx2BmN5slfVC814W4A90AwQB/+/IZfPdIjET0BXiYIJmKQKLgSVBY9Ts1BAoLCteNlKcaLjbArmE7C0D4sQcIqoqAJEWSuExV5JC9DoK/soxHe5QKgcKz6YW0pXlq8wSy2QDC1/bHHiBwEbQEPbTuNUiZzy1AhC6tu07wkP8XDcQMFRqr2FpP8Duv3bDsAULsUlRUiMRaTAQBvr5/HI+/eBSTahgWAwLUrWsidA1UqwnuWj+Ct29dj9VRjCodBcmQZ5ldwHJVQsPMtbCPtWVRvjLHOUbuFCsZoH26yssuaynB1QSB/CvKiOfcWQJpzUJuJaCLgIJmYIlyaFqDVhJjHAoHz7RwaDzGqckGTk4mmEqBtBYh4aafaROQk2UYEAsbCGgr7ZhGI2Ylt4WcBzqVJQLqBNj1wQ2iEmTLpgijGkzTYr1u4h3bR/DGrStRpW+EaCR4QJRfnQAhTzvkUYVF6a0lddMSIPTRHW2A4EPBs0UQcrndXj9BJTAutD6CYLEKDv/hdWPYFIl/38xg7ePxls9XZtMs6E4fzHUxuFjkIG+ZAkBgEqhpFD6zx0cQxE2ReX3ySIJCiD9fG3gP4VcVttaC/S3/WiokWDOvtZdaLkYQrMNJpfFHD/0YJ92wBwiSYqB8clWiAt5vIbsKqxUfIWVkg3IvPMkx2qADGMf/9q55bx4dwLt3UoCJVRFZBGF/ii/sG5fPMkIiXLEgzsK/+WqYOzTMLI0FgNA+shHIaLpOugrG6gk+fMcGbOTCGjCysTwiCAR3zKXPRBBAgmeIcwr4ybkGvvDTsziVKHDTUq4ucRanU4SM5nCTbJ3DHaMr8aZrVmLbICM3XgmzwlM1e4cn0aUSQejeTHvNkewzor4hbok+xC7tJFEE/98clxx3RkoMM3aBosKkp/zMJASyfxEyrfjVkAjMOoMU04nGsXMJHt17AHsnz8FVBjBlQqTi9UCQxblADgLHKcFBfhjwFujihE6uQx8acuI4GirE5IabAFVtMIJx3P2qTbh9dQ0btEKFUYxMFEumeoeDa27BnhMs+3iI5bM6y5OWAKGPDpsJABuPZhlw3X36HD7x5AGk1c2wriG5MT+Ke+d1WaYmKuNkRQcWA60G/tMbd2JTlFF9XmlVDLOd/ue66c+nH5kW4rIni6FhQgifeWkcjx42SFjaxjy7hEB5pk563nn2YAW5A94Hgb4JO4divO+mUayv8mRCGniKkyrAHz38LE6kq2DDGrRu+kUpYTVC7KVlewAE/qkR8muAgBt1yPw4yy1CMFGsVYJ7t9Rw3zXDnilOBgylllnm+PIEbETgEgFU78yUFIv72KxdwGfJHoicm5BMdhdha7WJD961SaoYtKpA2wQm4OmZb750L258jJ3w/Mr8s8YUJmwNx5IYf/XUURyeULDhkDhkehvibDM0PNXGvmIEKXYMRfil69dj10Aq4emIoCONELJPluJ1sTnG8Z6n3/0pRS6BCqIqer42iyfkzjA6spx9/j2p25GohDdt8lwDpg5SFYkh1KlGjANTLfzk+CQOTltMt1poqgGpwklp8Chz0SIImRL0vByRUu6jfSW1RGIi1UB1BGPIY/CW0VuHE7x901pcv66OQRqfsTpCaiFZwZGlHYSgWVzPl/Io76OBenylBAh9tON5AEEZPD/Rwp8+fQhTbi0sGln+eo4AQVsMpS38p3t2YgONmjLy3FVX5jhbaLAIAi5wwumjq3pv7sL5ZwbeIXIWrdTh7186g+8ciZGmPJk7WUBY8y+npa5L1s7CEdEb0/hL8qO0kvb1ApJi+C2SFKNso3EpTiLCHz30NM5gDVo2FAMcWYvSqhAWRQc5v3/XUUlEe/ztoXUME9BpjwKyXDQT3Lt5CPftGPF2unwG5/Dgvmn840sngSpRQQiTBIjCQNIXbU++znfyIWN/5epzslkQuCYNOd3tHDR4352blyVAYBMKPU7kqGOchcZDB87gwd2H4OrrpPbfMZpT4IBoG8CmKdjkQVBBrFq4YRB497VbsX4gkUiCUdSY6G8DW5DxfQlzjFEVGTVZ3+eHZ45pzdLtnuJtOaLIoYSfLzJHJJ1FtGvhQp92EQ6IzBYvBc4DVqqBM2mC03GM3SeaeOH4OeybaMHVBj1wDkKkaQrFQxXTEiR2F/gzc263TP5ZfpdHBMOxHUlaJIDB6vo43r5jPV63bg1GEPvySUbcPErxJMYSIMy5uV+xHywCBC4wMVLsmTb41I8P42yySuQ/ZSj1YqFnrVaMIFhtMNhq4H+lDgIjCDIWr0IdhLmQDhcjYtBjpCZyymcEwSI2wOefP4F/FS8Gagi0PAAQcZceESA5vnScvQtHfp5wfASB2zZJih+4bQzrQk/4Ynz/BAL84beewGm7EiaoynhxEXO8FDxi6L947+IpxT8Ly7iYIKYuvqHCnWhueO35t42twrt3rpTccA4QvrF/Cl/Yc1Q+y9MXN3ctC16hYbrfaaYfOt+VQEaldDCNsGMwxf13bV+GACEzEsqse1IHHG1N4+NPHsWpOMSUeA9kkWbm5PM5yxC7hJ+VnD5tVSOcPoM3rF+Nt123HhtDIAy0EBfzpr3sZY+XMMf8puu9Pvwi5MeeDIVZIgjdIlPFjTszFc+qALIxanNLcEbqfFSAGzT1OSSdoYDTSYrdJ8/ivx0+g1NTXF1rSITn4XP/UpzYz+E9AzgiVc53zMBvaqilQJnzaayqWrxt5zrcumYQK0hozFIaJUB4xW7383/xGYY5Jw1A+xIRSvrYD/bjNFZI6kDG7wWY3BIp5sxjnls7VOIJ/PufuQ67SNCRE6on8FxV11yiA/npJZML8qcYVv7PBHp7NEl7pysuWL0qIYtf9icYGj8H+Ob+M3jibApjuADRptv3cucCX9xRi5GF9mrlSU3Mu0pNI7YNOPzCqzZiVcBoBNkDBqfSAH//zEs4mdbhdA1W0QDHp6RkmSQ7K7s6xoD4A/gNW2q4CXLIQZCSMrLxE9yzpoq3blmRlTB6U7HHjjfwzeMscwyhUk8+E3DE0dvRSLOws4qnJp4kA6/xsD7U+NUbVmNVwCWbol4+3+wX3m4QNVtQuBuA9RM8nv8saQfFqYORYs9kAx976jQaJhLdfi/GYyQC4wG7hg18CF6Av2vJ/GUWIjIp7hkbwDt2bMDKKEHkIji6CPYAl4sOGOYxx84nSojD0czImxEiyMZLPh84P9qoyQMmP+qlMNDPGxkDOdWfpNrsD/N7ZakJn77gZ7OySMrGKYuWC3Am1dh3YgLPnWzhudMNjKcWul6HdRENcFiz6OeNsBk5d3INk9w9MlNCld/K3o0MZLDyh2CdlUoxHPvSRl77xFhsqDZwzzVr8frREQEJYvtAbxMB4vwOm6n32rzo/Tv/oX5J3yhTDJfQfH4z4mC2OG2BP3nsAA7ZQSgOWG+aPivbVhYcItmsjrrmmvidN+zEDVVWMfD/lnkVw2yRgNkWsGI/8DRBOVQR8/GVaIEQ63iCEwmiwqfbydLu076vZ/aXF1k5//KLuJVyrAZZ/tx4LYWPteT76VznVzz/OX+z7vu0FwtPFvQLpcSAnMZQwAWV9HZPTCV8nDJWAIMskCqByWu8hf9YqJwolFzJsluQshVVbwfE1D7SCgOxw4BqoRLS+Kn9TKwBPxVECGER0Q0vK/HsBKCeBNZusK4yzuyl+T4uYAmaxQABTehQ5fe6Tq7nA6sLAYTidt0xEC5hds79q2mrhX86fQ5f/qkBmg6o+Y1NRiDnJ0siRZo6P10TrrLahKH3SBj31Xgad+4cwb/dtgprjEUaMQThEGV1/p3De4FA0CXOsfNbaK5grVh62wYIsuJlz+TxYfs9O0plvRFz9vPSiu1HIY9Fs0yWZFjOjQBnncKeiRRPHj6InxyZwFm9EokOWcAj5b5pYoRQ7BNmTA9Sg4TKjVR/5IJBMkMioI9lwoqlwYFPbwgAlPlAJ1KCFC2WnQNmGreNDeMtW0awJVQImZpjTFClCAJGFiktXlxflrfN+WyzpQQIc19Hzvukr6k2SFyCaRfgo48fxp605sVTLgIQ6OAo3xfnOIu6NfjNmzfirtUiK7K0AcJsec7uFrpQPvRiQkdsF7ZPvj8Tc/HkqoBqvgjJPS4NILB2nZCMJdaBtZgm/0DOGLQ1zvLUMwChsIAWAEdRLZOfIAFOwA1JkLkePQJkxVo+7+1ZgkKG8gewWaJFXdoEXrjFYxS2BZ851azwVqglWvK5vFXmpyOf5bJJwMJ0ijDU6SWQVcq08wwECMX3647hZukNJUR+pKyQEADkfQkCacVCJKUjTdLuo96bkr+331yKm1S7TTojQ5duZFa8XxIDH3lxH3YfG4LhBiAny1zIJz8g54Q7vnW+6RCwkVgaQTWmENjTuO81m/GG0bWy5zHCE/WwbJ/TKfNyzLG+175iH3WBnY4IxOw/MAMkzkttETj7tiOUZmyKM5LVO01jcbKp8PihM3ju5DkcbkZIMSTWzw4k+tKxNPUcBQJkpiXoESIyClyrPZDl6pqKfwh/h0RVVkUQDGZRX1YICel3Gq9eX8Wv7NqELeT2apY+c/p4qemihlou2z6nvu273S//F0uAcAlt7slpLPmyaFqFjz19ALsnZWvx61weYctX9GwuydyX0UWUy/iaRWgU3rGtinduG0KoM9/ywuZ3CY+58F/tXryKodSLbfx+J/DPdBGtArgkC6nzxMa6fb+HRZZHh2zTEVZgtsFk95b/ErZy6MMP/Kj0RXZSyCRhuVD4bnIIuNum3NZp1MOyPb85zTrhO965q+pAyFmZUQ1PnwHrx4lA/Lkpz1ALGTU/SEmbZrH5bKOUGEQhTcVnZa5WUhFU76M4Ukbpdqy+F49irq4ED1lxGjfvLAxD9rjRPkQqCnLeM9f3RdfhceZnfWMWxhD1GhjhsXBMj0lagazwLH/NTMdM1jn/2oUAQnF4ZuzL/I+4yGdjRCifEuvP+rbvOkJPmpMUtJSzBjhqLD7+g5dxJBlAQtCV95KAn/bz+abw3KLQtXwJX1QBwgpsnMI2z+KG9RF+5fpt2FQNUWsZKFYpEQtmBDk5b8/l2S/HHFv4laFQz9D/zX3sLdNkICBmJIErgJwWFKYccKgR49t7x/HMyRTTro4aUwVhikTCd1ZKTfkwnCMcN0rV/WyXiIGPBsn87hjbUvoDm2QgmrLazuCe1RF+YdcqjIRJxkFhOoIEYK5DPkrs9VIyBUiflOi/AZbQN0uAcAmdIQDBGQm38vz0qd378MRZn8uSnJWMwcyTIef9ZOFzIlbFMyX91VlSk0a4eU0L9980isHAs9J9sdgSHWjFBaw713oxHYM5AISEKYYs3G95ZK0oYd2HYoTFYnQek1kn7TcwLrri5TKjvuaQhikCQ7U3X4bnQ/SZgmKWg/clbz7PKJjNUCrW73Ade2PXBlqM/J+X8MikWkXtUMSO0kz5kFKxHjUS8HCA8B0lzSHmdTzJMOxXvQ0AACAASURBVLzq87H5Epb/lgcMMVGC5FzpFyDnWQknkJLNW7NW3Q9qjxcEwiLMtO95xmJumKOU9xWA1KGb79tTohMZ07/zvJjVx8tpjBQaHzXwJ26WP/KHvfLdLFmdDlzIbNzM/Ys4IsN98kfcY62R+zE6w/Rc2ONkPrepzB8UsXQf/UOAJycm8ZnHj+JcdYDHRDlNSpqPYKCYppJ+44bF6BJdDml9zPESInCRkDcH9ATedN1avG39Oqww3DA8ZmNlioAukksLdfYXfOZFnmNza68r+CmmBLISSzae5bjPKmniQOOY1Xji0Dgef/kYzqZ1NMMB6CqFw1Lh8ShHXcxYxrNGZQaYe2XG7mgV/9vzgDj/UmqTBBECV0GQnMTbtw/jLaMjWB1x3njgKpEHweviPpU5SjJqcfWY7JUA4RLGv08xeMFaYwz+7uVj+M5x5RXBZDXwJz0Z1N0AQf6Oi2tLNokgruGakSl8+M6tWJORdJc8QCi23UxZXld0oBs8CGyfDfRw4c4YxjK5OWUr0ImBjbxUMUlhPMESIJCgJ+5w3k1GwvpS65wxsauaDH8nMrEZCwABF3UGGTXVBxUUj9WyiXogQZc+mfQZE32GaCYbX+E0WcgIFN/GBy6zhUzMkfgl5kD5e756gC6RIUOo2QYdMrogC03+216wRn6b0YwsBOLrEhxcmsUgpCTWAxtlQiQiH8xMqc+bC0CQWn+fqyWIMoKiuGDm6QBfounL0breJD+xF/qZmyafm28V0rciu41sevnJXGx/2Qznl4j67m//jlfv8z/QaZbjJ40EP3K0I2/D0kNyUahT0c/lrYaFpGYtzimFb548h6//6ASSoSoCUfCbDSD4scsQNhNTrFbh8BFQhgrE4cJNYnSogft2bsV1I9S4yEpg+wUICz7H+mmzK/MdiYHJIcyPI+/aIKupzKtYKUxbhyPnWvjBkRaePtrAeKzgqlWZFBRFStNYhqFE2gQ5C1rr8UIZQODMCBSMa4oaqnZ1mJrDcHwWP7NxDe4aW4FNFUOaAnSQCvFXyL9yR0lWdlheX5mWW7hfLQHCJbSlF/3ggkNSWIKHJg0+/dRRBLoCcgxItMvPR+cBhCw3BtUg2R1hPIjRlQ184NZNGCNKXQ4RhLztujf8uYZHz2v7NLNh9toEJ4xGoipgISC1CbjhhZYcBAtDRTeqWIpOfKb/L9GFbGPhwlIl4dCLIsWIhLVfhcOQVhgOhYoMkzq0dIAppJhyKUJU/KbEGS/3y87xwlxvb2ymkOTvLET0aQxfMw0MOGClnMZ5KuHpkQDBYCo1mCArHg6V1J9CCIAITBJR2SRD3sEKMTNPA1hE2oiAC8lb0wRHxBCZJG6sEqxUCusIFHKCp1I4Z1m6Z5BKdILLLiGEr5jwwMCHXcOC5gL1H+SZcpm8bBOXbK/y2eFhF2K98Bn8qVhEw7TGRBKjwVAtLaCzBb1zn2u3GMmnkp3IIh4zpFBfKY9EcyMAasaB5r4r+PRMbYSZ5fC8568HCFSUJI/wmDH4yxcO48WjIeyAQtyKERLM9YogyODyssMC1SRn4ytBBHSYACF9BNxZbB+O8Vu33oRRIdVeQgRhwefYvBvsin0hdz/xgE04vjOX8AmURstws44w7Zp4ZsLgn587hSNTKVqVOmy1JsJktCwJMO2JOcL98bGxzssDBE4HRh2iyEnEQojGQRWmRTaDwy3rFH5x1wrxVqnoRPQyoKqZIySrn5Y5ubyrVUqA0Mfw58lW5Mi5IHqyMnRi8bg1+OT39gOqLiYm5Bm0UW/nDxla7kYxHKZgbQ1IAqysTeJ9N4/hpsFQjEkCupTNNRzZx3tc8ldmSxXMIYXQ67dF+Y+sZKVwPEnwx99/AdNqCGoqQlRpwYQ85QcIUx+KZx5RogAzv5dN+qysKYpDqZ92FQcbxoisw4CN8cuvHsMNa0JJV6Q6wGQK/Mve4/jBgcMwNS4qgwLyWPKUAwQfVWg/db6pyXmm8Hf+IzxBtxCkExgbqeGdN12HdZHGoHFoqQTHXIhPf38vTiUGSbUOmCoiCjZSlIfRjsLvMCLQvvyC5U/aDppyyVbDtAziMMBA0MLdm1bi569Zh1A8AhIYG+JbB87g20fOeGMcii62FAI76NMaeYA/B0XyQp0ErGKWiyAmcrTFNthem8Iv3nELVgUWzPBSp3/KAn/xxF7sTaozfAFR4SuSOgtvJCnm7H3ZbRIvEcBpEdgGUl0DYdtA2sCt66t426tGsCocEfJnP5dnshOV0FMixSFn8f8+8hLGGxtha02ERCwSypbYzHn8i4we6hX2xNKbSY/MvVU+XoEyKSI9jndduxZv2rQSFUayhD6RSt56ThyE/OUWeI7102ZX6jusKMrHp5z7c5wsYNX/B8FDi4knxQJijZMti2/tOY4fH51AU1UQh0NwKVN2KYKo5QmmLEPtElqSIZdZTXsOBDVJmELwxEe4KmDriNw07t1exzvGBjCiQ0nVCUlZ0pj9iDNcqdad2++WAGFu7dTxqSwomzHVvaWpTQ1eSBX++LvPoYERKQWjROhsjowSzKZlqagoACYZQmhP4P5b1uPuNaxjpzwpF5Y+V8I+3uuCX7nQQtXrGfsACUWAcCRt4f94+Kdo1NfDECAECcMskhNm3lv4Hzzhd3ADcvJiFkZPCSJIEkz9/I4d6pjCu18zhjtWVVGnQYwCJrTGPz53Co8eHEdcWZHBP4ayGTLMdCl6nDfyP/LeCRk0YFrB8azBSpZpbF8R4rdu8R4bVRegpVo4Ziv4yMO7cVrX4Kp1cX0UPR56KtDwp0MHoQMfCCFQTuuSWklh0whpHMBEzHxO4C2jA/iNnRsQMYJFfoyz+Mr+aXxt/zRiAQSsiUxF0Kejnj07wcuvZaWaBTg0834UoQ2pEWAVttWaeM/rt2NUO9QYhbChmPN89LF9eLHFmIm/JM1ynrV09pdFWWn5Yb5bJu5viZqYUx5ALZ3GnetD/NJNq7GSVst9ToscILDygCmGl1OD33/0JUzHa2GCJioRN5O8aL8TIPgKEl+i52gglKUQvdxwI+Ot1OEot+zGccNAE++/dQcG5bAQCqlTiuN6pN06XucCEbmO7xYidUtmnVjAdceTwGeQUpbnz1NRfs5JFRj9qBk1CwMkpoWTqcMPT8V4dM9xnG7VYaIhWJN67xJp+7ZXhueR+XvKoYO8J/Er8SBCh03vmirxxyGkicWacBLvuGkD7llZxRCtqYPIq0NmMs7dTdBdgbOATbTotyoBQj9NTEtUssjhw8DMZ3MhPpFG+JMfvYgDkzXJjwfaZ9F7XYqx8jiEakWwFQujaRhzDu/cvhY/u20VQmsQcRFbCqD0Ypt9d0pBNpn5O651AAQT4//6zouYjlZASU2/966gkBE3UVkesjLEfHFtZ7y5IRmkKeuguY4zn0i+QYSB6jTee9Mobl9ZpwWG9GFTBfjMsyfw6PFpv0mLD4NXessT5JIsyk+6kvfPly7PfZgBC0KiZtEfM9KJSC3ff/NGbIw86Y3yvMddhI9851mctHVYSvPSCpqkOVFSbEnoe+aduk7eVN0UYiPBEfkYrNQIKj7HSqnlLXX8+s4RhI5iMJKpxTf2x/ji/oZ4fiSk6RuLStR1Os5z/dmLFEu4/B/5d6QDn2ZFiQmxtR7jQ7dtwSgzCQJYNE5bjY/9YB9ebkYIZ27SVhaUO2VpG/l3piiyl5XKCEIYAm62I6s1dEsiLNrGeP26EPfdvBojrt43dzcHCF5iF3g+Nvh/HvoJVLQRTto+BNu4ZwRBQtOeCeuLYb3RWt48YtLlqggQIU2nsTZs4jdvHsWrV9WgTQs2CBAyKtgD3EjMwisy9V6RsvnkN7RsvOUp9Rn+Rp+oqZ818HJ8Jx8n2fG+fer3kst+mfFRxJT+IIpEVhlBaKkQz51q4KvPH8NxzkceFmjbnXWW6CbkEQNu7KKNQEVH8pz4F9S3YP/yHwnvCQBObQTnGtg4Mo1f3rUNNw4FqEukwUczCN67Saj88/yaM0H1crTvHH6jBAhzaKTzPpIZNPHPI0mAk9icYtJW8P/tOYzHDvvUgp/IvSetIppt1rx5ToVM9wa0beK2NUN49/VrsCrwocglcTK42GZ/MQAxxzaWU7cYuQBH0gT/+8N7YIJhWYilHpqLI30HGCjooO61f4BriZQ2CcVx0JNElfcOCFQNVX0G99+0Ca9dSU6Cd0ygQdPfvTSJh09MwaU+6sN/5LWy3SvvRflfIc/lf5KdcnJCYOaCRwhDlcZd9RZ++9atwn72hwyL49D4g4eewylkbo6aC5u3e4aidVRhg+raMHLeAOu8VZD4bZtlhnxnC7x5yyDevXNImNTChXAtfG1/C/+4Z9KfsEisNRqR8B8KFaddI7WDXlgYwlyEqRPAFNk19RQfvnMzNopkLosDDc5Yjf/6+H4caFR8vcYMebXQRx1zonhG9OJEnpNJ5TpyT0gGZIcneN2qAO+/ZQ0Cx77sV2XUa4+QR0AA9XzD4P9+aC+CwWEY4aBQ7lcSOVkVQ3eNSgaWZtokC4FIbturVHqNkwShm8IdG4Zw36s2YJglk8JV4jtlqfDuErs8RO0HXht0MnKRAwMSWeWv/DN2AIrCYWLZQwXhxnQNypmX6nw7/1FfZivgOSP/MqHw0ngTjx85g6eOTWJKD7SjewR2QlLmvGN/0MbaE3sFbM/U+fp0V44ChevI/7NNbBlSeMe1q/HakRoqAVOjLDZmmbu/fP944FAChDluAlfFx3jyTP1CJoqIgjJjtFDFP7x8CP+yJ/aLBNmts8xUTYJLXIElm77iYBKeOVNcM6zwgZtHsSmgKcPsKYpFa8dem/1lAwi+DIwT7Uhq8L99Zw+cGs64+5nqIDd6Uoh7XKxPJ6GP+UZfRjjkmfSKHgs00amgGozj/TduxM0CECSziSRN8XcvT+PbJ6ZFipgXkT6rDYr957uyB+jLT3fZspAv7wQ0AhBu24rVeUWmAU4ohd//9rM4SQAjGvDGVzBY/jsBghjv5kyXwpsSMGb6BiYSy2a/j4j0iyxq9272AAGMPklZZAsPHpjGF/c0hF3NthWwJJt673a80NjiWKfSo00r2D6Q4sN3jWK9pAZ8SuOM0/jjx/bh4DRD8Pn+lSV4LzZopfyMz8QVP4K1VMhjyiUEdIrXrQrxwM3rBCxKxUCflwcI3GgNXmgY/J8PHUIwWEPqjE8BSKWC/4clj3O5ciBkWJUR0PCL7zyNtWkL//Mbd2GN8hbdufKGLyUtgoC2pXZ3fSj7zVd7UOiK5dMZcTYPowmO9RbIbY2NuTz1Ev1MHxHJPLKiM0KLC0hNTpAkDmeCCh7dfxqPHDqHU/GAl0ELSCKnvJjXTEgN+WBZuXSHemm7jZyLhSzNiFYtWommPYut0Tjuu2kndtQIkBlBYIm6T5HlB7wyxbBEx9miPRbXr9hIXX7CxYA0KpUgVXV868Ax/NOLMWLFMDMZz72fQlzWGbJiqDdsQTUCIU2tHozxwM2bsTOsQFcY+sqZ4Iv2Nv7GPfKibUfB+acL+nla2XqXOkDoAAOF+NDMnxe2gBIgZEPoFQQQTFYZokOo0GBF2sK/e91mbKn6qgnh42esVlsAH164ibOG1SS5x2Y2i0Q62BP2vIBQ5tVS9AXP0hNXLUDI16gLcLKk2oEAnw6RESttLGok8WqFMzbA9w+exNdfnsBEWvHqi+IUyUgcjdKaMCkZNuQszRKdcuQkWMQ8HLoRqGoM1TiNN6wbwi9ctxkraxRWomKp77clEwHuZzHOvlOmGPpsPJP68qsmCVosizEGsVN4enwaf717AucMCUkV8Q/odZGdbmg6UiGBKYFrEkwoDAQN/NpNm3D3UCQVOUERICxW3LA7ajDbf3e/yAITKBcaIDj3/7P3plF2ZOW14I7xDjkppVRqnlWqUpWqpBooU7bBGAyYZwMGAzZlG4Ofbbrfj+7lv91r9a9+vXp1r/X6re7XbhvcxoAHoOk2c2Ew82goqqhZlGrQPKVyzrxDRJxzeu3vRNwb9+pm6mYqM5WSboBWpZRx40acOMM+37e/vftEFMi4FSGOeU5hSREEVjHko+FZeiEDTnl+pFVp49zflOhtRBCYYgjTlFMaQfhP33kBY6ZffO9tBIGLQDcRhFQNIWEEgblRHgtHEJhieOx0BZ9/lWQrStayPG8FIwiv2YZRNsxNFUGw6npcqF+aV/iff3AKKDL8bJkFTYmIVLpzCXOEWCUn1ryKxUl98Sz+/T2juHcDeUk2EE5XwszJkP2FKW9rf2RTioGmcJd9z0yDeL4v/i5c8MiRUTzbJ1igQFOmtSKB72xav474yhIedrVOXShiuVAqMx2IbCtJ+EnpswXq9L4TFUZYzYRvnJ3EN18ewxwtnkv9gFuEy82ep+Ak3OiRh9AZIMhtCa+GaTrqstiS18F4Fr995ygeGC1iA11ZaerEm8gcU3MTxbpIGS/hvfUAwhIaKztVwtep9Cc7nj/N0JOPZMDHc1PT+PvnZ3AlZr1+IPrdnQ8ywQM4vnUIU4kDzw0QqDkc20KP+W0YDHPqX8u4z64/slBIz8Jge5n2CMMKgwP5ihWOIAhAkFB6BSYO4LnXBghuI8VgBY3ac0T5NEMrQGgSM61ljCVQMcXw5/fvwqYwtY5uAITjFiDQrpmqAt0CBC4yJPMphkmpEier84IphgwgfOFkTcSaegCBHE2rxMlsxisVjf/pB6/ALQ7YqgSmT9r8L7oZR1kY2aauXTjKAys93doEfmffRrx+5waR8eYSrvw+8YTSyqBSSzBbrWOiVkFNJ9aoyAWKvof+YgnlYohNfogwiREGCUqOQmBC+LpgsWuaqhdVaj/rkXlXjG7u/gadsxh3abE5KT8vZRNHWi1D/hJbgRxwqTlpUoXEnXPG8/FNCtqdvoJqMIgoCjDglVDVVeE2CclxgcybZRtZgS2tKmIRnThl+Khjf7mOt9wxjLuGS+hzmABrkijzrdsDCDeor63l1ybMRbGTwIdyXcSxwpUkwelqBaeuGDx+SWGKtdAORXeyXV7rHdqKqUBISzaXzLp77giqGClN4T88dAi76P4n9qTZsUohhMUQ+yoAgYXe1boCCOJTTw7CVWrtjQqNjgAhzWFbvaYeQLDdZ32lGChUxdAy3QJP1jX+4/dOAYWyeCww9bccgNDYPIhEt4FTc5EEHsKiwcGiwt2j/bg8M4HpeoCxWWBivgpP0gIEbTaawYoOGpLJ8s4ogkpsrYSTYEPoYniwiM2ui90bS9g24GFrf4g+A4QEO6mbob0PXmG5JM41mknzG46FyqS7LZ/OIggUrZeuRg0Zq+UhQl/pYZQVYpt3fTwxPofvnbiI87UylCkKt8B43PrR4rvzPCugn+RgIYxWERgfkW+jxE4yi91Fjd+9exv2D7KShakiEh7TSEJ6Dz2AsEb963q+ppU3nYOgMpHlKdv2ry2bZ2GBx6gbB7OOi4u1Gn525jLOVioifBPVB1F3SlAOSYeEpJ0jCAxPsWwGSQLjRXCcAlTiwzE19IVT+LOHDuDeorUUZWiShCmW4jRd0JYBFhYM0S3AMVih6oRu39W6AAg0ahHFQ08UD7MFrlM6QRT0soHfiLJYklsPIKxfkqK8V8k7G5xJNP6XH53GPKuJaOcrantijNGq3XCNTtyoqnE0VBLDrftAEABFwK/NI6AipAdEisZW/C7rLSGqlqlOAicbcg0YxZJyuNRinDoenCdkN+y6KLoaZVdhTznEXRs34M7RQQwXqEXBUmlb1SJVLGkAUC6zjOmi23G7rPOyTclic1J7pKAxxnKRzZYIQkreTJ83P2btzwaox1BBgKqO8fx0jC+8cAkXVFm4XkaxYkbBo2Rj1geyhhNzNBtBsDREipBpywWmI2xiUDLAwxsMfuvwNgwUPEotiTopq4kk5ZAaqS2rvW7Qh27LFIPNItl6YpbBNab5nOAN34eVyCe+58KtUVMJIs9HRQFPXpzCU+NzuDg1i7oJEJP17nsIdTldWFqNXhZ7v1nZksX+BkUH+M39Id66dRMCx6Di1RFqF75btDrxafnjktDoUkmI10L4q9Bh1wVAaK9ikJzmAlGE9gksR1TsAYT1CRAygS2XQlFRgitw8bfPnsHz4waB2w8d1GSswxRtqWyX6YZG6klq6+0MI74N4qWRpeisLHW2cImsQrpu5b2Drh7XzU1G9jupaNAugloNOwaAB/ZuwLGtgxjSCQpOQSpKCCho6FUQPQlbAWORwjpDC0sBCV1sWhaqGuC/JyQiCjlRYV4B3zo7iy+9PIXYLcMJPCC2eiJM+1JdzWEamGlKN4I2iZjwuan8p3a4gUg9ThixcEMM6lm8644RPLhjAEXN8/mSWfRMZ9mFXd1XYTpdkUvelgDBDspUcCQfMEhr2ZslMwz/Ex06mIoSnK1FeG52DqfGq7gwHaOqPIvqg6IlE1JDn2ZAFLHJtDu7ek3NmyCvRScGDwzP4Y/u2Yey4yLxIrk+/7dkgNBpoV8KCXGh9ENXz7W0k9YMINyTlTny/qi+xjLH6lVljiK1nIYsFwUJucfsRFLscRDWT4rBek9YW22j6b/h4hsXq/jCc+dgnH64RepJ8JzuAEKTk2LhfQMLZGNMfDGaQCA/IpoKnOTJZC6juS1x43M5TwuxqLbzC2XCWa4ZqHkUzQwOjAzgzg0D2L+hH1sLDkouDcHE7sxuhERnYQ0BQrebjGtxEVoabfngpsEToQeLo0UTZEIF+NGrF/HjSxVMuSURYgOVGQUgMFFDuXv+SMIoF3waOFl98GYJrPhKi3y3o2rYWdb44AP7sMepIfHJR6BuRxqKXsOU7dJm385n354AwTLImoI3aZ+z7ndW2IJ/yFUZh4ufn5vCz85O4mI1gSoOWpZsZNE45Wrp7kaGuMgjOVbpzvPISm8rV1rwjaXudzI3sFwywBZvHH96dD/2hkUYstVF99tdPkDoJN+a3wEvREK8xQBC0ZvGBwUg+FYHwfERx7EFCFdadRBaAYKVpmmZq9reZxrgtATFHgdhXeogZACBShnM7VMo67k5B3/zkxOInCHU1TwKIW3YlwAQcgvcVSmnNPpke06mg2DXacu6t/8mpLb03KukmHMmWly4WL/vsTrK5+5WZgUkcVVKKN2kjs0lgzds6scj+zai4CgUuMsRoEKgsXz9iCUtOO3g4FrzyLV+v6Qv73xyvl2pByLarEwL02jv/DS+/Mos6sEwNKMITl0uIukEapQQExibcswAAusZs82koSw+VwxVF+XX1+0O8a6DGzCAQKoiPHFQ5YqyRmXrK9Be0mNNJ2HwFbr4ur1MLjlly2Ks7zh37oaEk0hhwsR4YcbgO6cu4ZU56ngPWM6ARA2YwyTKtCJbnkgBp4cQjSIBDTTS4blLO8hQN+jvU3jPgSE8snEILksqQwOfaYaU9GLTWV2i6eshIa7BwM1vsFZSB6FTFUPRm7IAYThsCiUtABBYxdDQsWikD65+m63746t1EHoRhPUUQWB5sYIWyrpdmKfqGv/bUydxabaAum9Am/AsUpdXNMzefDbqWlL7HfpHI7XQAhKa/af5+dafFpsvxCeC5dH0caHstuSyGEkIoWMPIX1HvHHc62t84OgeDPYVYVC3oW4aSa2VoVD7vNFFamA58uxLmVvzSx29GYzvCo+A0spXEg+PvXoGPzpnUPNL8BwCrxjaqaeKpJS7LckGkOqesjls2VTZPk6htrrjoL8+iQ8c24UHhinbTv6YrWsQrspNFEW4PQFCursTaVS+cHYE5SCCgwnXxekrCX5y6gpemnFRNewk3FAUZCCKMxgXDpKcaHura/AbyUTygzwoV1vVNKmLz1NluunOdtLy/Bpeu9HHuw7vQjmOoHxHap4XBAgLRQAkKpHew7WiCO23182g7uaRujxnLVIMiwGE76QRBIlA55QUmxP91VGETnChF0FYv0qKVE9k/ZGWBZN6A0DdePjYc+fw8wmDSDl2d9525DkGDUCbjqfF+kfmNNqU5m5jAHSIPiwOEGz1EwGCQdQowyWJWRuW8jrw3Rm8/eAWvGG0gD5S6aVujwuVlRBfk2O5AEG2rV1ufJbxINmizkpX4ixl6vB1gtgp41wU40vHx/DsVIIYjNxyDqdhWwJwcyg6JXRRvRogcOFnatmjcVNdwSsp3N1fwR8e3oMh0aoQ9XD4rDhZxedbRpMs+pHbEiCInEaqiy/aZjpB1S/gYgx848VTePbMHGbcAbghd+9WkcsJOZWws8SiCy8hSEHytVyxrYRkoCTcxMlHi3DOUg7JcWkgdiPsL2g8+uAe7OF3elZitWuA0D7QFgMJ+Q67GNBYyoMs49yVBghIdRB0TgfhqhRDTmr5O5RaTgM+DCvmpZbbd4MLP16nCMJubLpKKGmZOgjCpr6BOghpqLQhtXwTCSXZxYFjkm1I4nEkjqrK8fHtcxV89tVJ6HoBiZfl67OkUfq2ZdHLfk7/24gOZN4BHQitqQZiSwSiMR5loLa4MiwOEBjrpjcFI5hxKtzDGU0hMQ4KRmGTM48PPXIYez1AMhFyfRvaXrPFqX0euQpxdQAB3XIWljG3NEBdyj0jZhKAoGP4TCk7RZEf/8l0jM88cxITtQBO3wAcUcaMbLpYM4JAGe1OEQTuwzzrc+JqOEUfheoY3nHnTrxmUx8GXAPl0QZ8HTn0dtGOtw1AsN6LImEiP3EXkWgjFriX5+o4PjmPn1+YwpmqA+P3iWudp6g7T/16vniGm5lqiEW3gGY10CFcPwF9y+0wt6RnpWnlzHwV9dFEfSOdWPIZykU03hXvz8NQMId33Lsdrx0MEUrpkr2+9SnPiaG0L/6dwMBSogFrmFbI91FpHU2ABVyKEvwPPzoJLvLM7WlYbwGSiHyZ69gQIpPWcojpipSWckDT/IiBnxg6pqZEgJI7hw8dGcW9wwWRtKXDG/din3lpFlkEjnDwsQAAIABJREFUQcRQ2E9ykrfZDrKdh9B48Y27sEz1DGAc6ovwZ/ftxqYCbySBUQ4uOy7+83fp5jgIqv/7Pp3oqInB+6XFjPVVsEn8/ONlf6FQC3kvJE2lPU+sHT28YUcRj+7fkAJTRrJq+MqZGJ9/dc4qKbLJmBaT3Eneh7KN3L5A4Iu5WM/EiHWIveUEH36IXgws57feBpS0/S8/PYlTVTpT2tB5w76504SUf750nMhXc9fF+Dk19U0Bvo7x0IiLDx4ZhueGy/JiaAIETvqMICh4TiTOmy9O1vHXL06hPk/HSpuzZ80gVfGaC2tuzLbt/BsAMgXm+eZrT7A0ohEZqbGLibqxwIlpGTPjnF/oKmuNusRXw/Gx0anjnXduEtO3Eln72iCwA6bhI7KiIGGxeaXTZuNa89Aqzz0ZZ0ChZq3FEx+edhD7rkQSLsPDd06P44evzmBClxAWfGhjbaId2RAyXWAryWzZY65pOXIVlS+tjL6fJBgpVfGuoztwb7mIguSFdcpXs70gMzzNO8UuoTus+qm3LkBI03qp+GY6PCiCQaclDR0rjAcF/PTyLB5/6QouV1xEzD0GoSxQJDCF5BOw/pidQ/JINF+ilCbd2rgQWLCgpZzJVkJLBIE2w7SM9dhRXPBHqXdOBWPEKZBujvm+lf7Mz3usXKiX4AXTuGNDgg/dcwCbiGBD6iCkZY4pULiqh2QDbCGQsM7DW7TN5iAcqyf47x8/AxOV4JoYxg3FDY+7es9PyR+prGoWkkxtjBplZa4OQL17FpgQ2fPRi7qGf3/fCO4bLoqlNtcggsF/enEaPxqfhxaRTJurFZpquoC1r5f5da0li8TdqZQ3WQe+O/o1/vTIbmwqst+xVMrHJcfD//6947ii+1E3PnzKvFIbXqW5ZavYb/ts7otEC0MI0wkM45ViLUeDGKa6uLMJ8evbXPz+/k2iM+9o1sUneOx8hH9+dQLksyfs3ISfvgudgZCO39V57mE/dk0d9JHcO1DDnx07YAECgQMMppSH//PfTuJlygimxlaUEG/BAflLt/zCOvLJAsZwbeKI34n2CgjiGh7c4uDRu4dQdPsoYr6syVHsnml4lTLRXZfPojAZufjr49M4M6mQUKeAAMVQnyS9HxlPaTQwP8YygNYYzFeXxS7rRhf4EA3gpGiOoW8To+r4CGMKtml4cRVv2jeMd+wsY6BEQJ17sZmmgoz/pUU1F7z/bnb8q7zgL6ltLfIUqqByqqIt41GRlPMKgzKsDFEKk0rjsVcm8L1TVTjFPigVCedM5gTjideCpBRaB74tnmd0j2RGFORaYRjh4EYXj96xFbt8vjsFx/WFHMu+Rf4DhyH7udxPQ3dhSU+2aiffugAhNenkgsOFQ8JstKmVHKSLqdjBD8bm8J1XxjCrSnCdslXI4n6SISRu3iTcbHeDth6a3cIDFBcrTjSsl015BoIsUwe4lJksaQy7F7U2K2LbalNs1nM+QwXNnaIEA6nOWCtCezMoqEv4b197Hw46HoISv3cRgNAp77fOAUF7z84AwhVVw3/300tANAAXFRlEScTIjIEXMDIjtUfSsllleba7z3Zo4sbHl+iTgErSUYSCquGP79uOY8MFhKJtbxC7Dj75izn8ZGwSjlOESqwfr/jLdwBx/KcFAYKoraXlkU6CA2UXf3pkB0ZKMfhsVGK7BB//x3efx7gpQdMDgOI4sjZai2+C0wYgySETxpD4/CLNrAtQXOwdSsTWoVUZXuDiDduA39szCk0SrVLwtI+vXpjG/3tmAl7UB7oNkp9nQ+02UmJ7eWswZqElhLt5Wt1qJNg/UMGHHrijI0B4NSE5LnW0kzBO80HyYKtlp53qkriUwWMMuMboXSC520DP46HRAI8e3oii20+H9GUdMm757AKwGCiIEKs51L1BfO3sJL52fB5RoQg4Idw4knp5jwDTxBIxzNSHGrTCdMw1aYa5dXlZd7j4hzQFfchSIlse1GWhDDNL8RT2hBW8775tuKNACfcOCqyZYM8ywVXLneU3INeKIiyV+7QK7dbo5ClAsPo3dlGW0ZACPSEvAjijNf6fZy/ixBWCVBeggyz5A/RZYBl7qqXVequ8iE1Fi1qn8RCEgdh+//GRbXhwI8sgmwDBFcVHI+CAQ5mftI6fwkBfF8etCxA0xNo2lt2CQciXERtUPQ8v1yL84OWLeOFKHfM0mfG5KDDUZHN72rea6YwU2Ak0yz1alTWJYKdOaowkWAUMhlJluyOLi8v/Mn/FKELAmYgdhn+sSpqO+qVsRnZzYhMqQUOJbBodQ4sKWx2mfgW/u38rXjc6giGPC6KFKRKayltFLpRmkNVsebutG9FDRWTGcXC+Pov/8fEJRLoPjp6U6hIV9clkDcxL6saRSd6Wq8oaxPBrw/CW709ZRC+bbdYv11HWBn94/w7cP1xEwH2wo1BzAvzT8Rn8+Pw44A1AWYUsa7edLtWLRRDyvyNbmeIqMumYeRwY9PFn9+7E5kCBuMMohcuOj//8rWcxZYrQQVmiGy59H2RBZdSD4DO9aluYVsqsmCNn+VRSApx5OH4VSAag3Rhv3uni9/dulZ2K9DUT4isXJvGFk7MwPCcNgSaa9s9NRrUAhNx3Eex2OjRDp/ARqwj7wzo+/Mt7McpUmu+BIpSz2sVf/vgVvMoIQi5nn99stSjZCijPgLLtqtYul6kMDqcQ2ncQJtN4aKOP3797O8pkmHPSXsbBqJ+koHTqcyKpQI04cXE20fjc0xfw/DRJwX1SmsYxSaEcgaKpHLJMB4IIsndkx9gCWZll3OXCH9GsXuCriZj+8BGFAQquRimawLvv2Y6HRgooeUUxHbr66ARjuri9a6UFBGF2qcbazbW6uKXrOcW6YrbGtLLorjyHdlBBhCdnYnz5+Su4EoWIWbbOyICMKcs1E4JH45AJI43OMCbFdKKPgNwGM4dHtoR4391bUWA0wg2QiCmX7TE2mJVe1048a8cVuUZD3roAQbGUiRpWVBwz0J6L6cjFj85cxPfOz2Iq9lH3HAlX64QCR2UCP9DvXnuMMTB/27n1JDctymQ09KGwCkVX+HeuXpLghcfdkHwvoSHraNMOSdDASToZEJ6C0XWY0BXhDi5WRJW+SZDUKwgDjTCcx8MDJbzjrkMY8oCEGvKSg2yLFHaL6K9nZK32Z1O9Ec5tZ6MI//FbZzAfDiDwahLZ0TEBggPtzVtwIKkehuhsbljyyjnoTfIp2xNhIGklpSso1GP8ycO78RA5CCJ3qzBnivjMi2P4t0szSBhB4A6BolQSrVn6tE8w4ngEgjXc2V/AHx7agZ0lR6JXCjHG3AL+128+hxkCBK8soACUeRXVTgKE/LyTL5O105pdsFyoep9EEOBRv6EfbqDwxh0Gjx7Y1rgAP/250xfw9dPzqOmyaP/7BFvsdw0nm+5frNIKBa8IhSr2uRE+/NpD2OIyBOuhrlzMwMFf/dsreLlmy7uss3FOrbSdKJcDCBKdM9xl+VIirDADBATwLvr0PB7e6OF99+5FSVENb3lscDL/JYpAvgeBOhcLyp0nMWp+iJfnI3z2mTO4XAmBclEkdGVIE/yzrJCLgs7NDbmFeOk9pft2z86UiBgp+BGjBASYCkUzjV/ZOYi37BvBJi5MJhC2/Ioc3aQRMoDA/3YCJu1chIXOW5Ebvp6LWJDOlLJJNOa9EN++MIfPHz+PerABQUJTNW7oUi5bbm6QyF8aMrYVC5Yv5UQ+mMbaGlbxR0e24+BgST5Pz4iAmwJqLKSbEUHFqZrvivJErqNJblmAILW/fNGKu0oXp5IEXz81hp+en4NS22Vh98K6+Htz+hJxI+oW8GePO3TmIBcwWmJkN8tN850mlohIfoJyKhLSJnGISmmGrFXRWBe2nAUNiYLrR/B0zH2g7I7LoYPBQKPgAcPlPmwNQ2wqhvDKLnYWfWwJuXSwY3FpoDpXg7HYfP3dDubr6DCr+1HrVMhIzOWojn948hJivyQDKJQITJpXdVlFkqF1Swq0R4bi078ROGiDhO9TmospBo0337kRe/uog2DfeVV7+M7FS3j+yiz8AqNJfFeshc8rTeTErNp22/k2IXmUk7jj1WFUhO1hgLfu34nh0LJQqo7BTBTi88+ewgz7ps9wNiNOsYTt6bdh5VmvPuxzihyOXXwThptZD1+D4eJvaji2NcQbtm1s9E8G1B+fnMRPzl5G4hbg+Ey12GdDYlNeWdPld1ULyaMohyZkxGZVbPU0fvPQXgyJwRDfnYM57eLLL17AhZoLj+TeVIJeTGuyr8ovqi2pBxvty7gR8ja5c+P5tSncMxzg1w7uRKjVssvFGBNgBMFuAVjmpuGZBB75KAaoOCEeOzeB7x6fgOofBiMmtHYXUM9UFfkvKjX0ISG2GWNc3aHReE3k4dgNu1sAwmgcD40W8OY7dmFHkJkDrRBTfqm7/cX4Bku91pq0ZvuX2ISlJDDrJKW7GAPw0edO4/hMAQXNnX8kaQAqIy5k6mUotEQ6EaPAym40gngGj+ws4u0Ht2PY5fd4zF7JRkKid5wzBGilagnrJOp7ywIE6hM4ikWJAaqei88+expPTk+j5vYBEf0SPCF3icQppwqXkwTfD3dwATxhOdc6T9SSUrW7VpkaFc+1KQbqF4g1BxcZphnk/zWopCK56dDzEfgBRvoi7BwZxkh/CWUHGAkDbHY9YR4HvoeCz10S819FKa2UJ5EOSvBCYZTUq36ddKSVGc+sKpCgLrSu4GLsC0+ADJLAY+rGDiBCPkvQaw6ojt+fVjnYrCJJb1wWQhQDGt8E0oah5nclElJMkkAGrEhlpyEa4Z/IwG3L0i9UviqMI458K3NLUNAv5jyWl1B3NUIVYF4RENhok0i0y1Y7rXpJIyJN0JN7OpIVtE2lyB85l8YxPri7L4UOBpjUTJnrBFy0FhY2BSeuhke9jWw1DgEKGUs/h4CvmkMdOHGCeqBRYlUIUxlMj3k6JVm5mKuxpItflaKPLAvXASDIq8xQirQBHfmsiqlEO1I5MNYa9DkKpYBg3NrpLmeXZTNSlsdBRcJEUn6RLTQyRcwrHz+uVPC1J89jzi8hSYqp9DJvJ4EhOmJFk/BbVqbXL+kqgkhCxE6EAmZx9wYXv3NoN7Z7ARiszHgqreHvJX1Drk8skDZY6HI3BQhYrC1sBEE8G4TUHAuG/taFCJ97eQI1hLayTeZg8gZyvJpGU3GQs/8rmKKLwCkgrsXwUMfGYAYfOnYnDpRcUdp1YwdeYBlqTG33AMIy++liH2vZ6XDH77D8MIFChDpCnKrH+OoT4zhejVCjO6IXwKnX4Xk+VEypUoZ4ODEr8WEXm1RJWnNqpxBJNmlmewW7JZLSF05TTlloL65vxLfBRHXBoEnMRSYE3Agbgjq29AfYMlTCnmIBBwaHMBzYTsJOEdDalYObzPOUbWzZsKnhi5Af2XVtuRJ9ze25i0zkq9DWK3lJEYTjLii3WWboN9vS2qGaLZEckM3ZWOgXopfPV5ErBUylshv3KWkdRoHISk/zhhKiT3klDXKeDQ9mGvfZ56WkdKlxY9n25laO3M+kNtinUqmyWuoZb6elFIi0VTamecrsk1n6QeInuXsjHhXJXmnDtEwz3b0H+YU/jT7I9VjCscTnsxoiFBgjVnNQELBii4i5OAmJtlHamFtrulhMJQ8s7WUBVgv2Nb5MyAR7/B76C2THQuY8LeAjBfNy32memWOVGD4xGrEX4kwc47krk3ji5AzG6gHcoCxlqcZhNQP5Sexw3Bpa7lD+EFCbeiS0Nmrrg9uST/tvsjFJD7o48vrSdm30CkuJIT+F2MSHpwhyr+C1m0v49f3bsCnUkpIJs8omIXJ00eDXGtDLWfCX85lr3cca/t72Za4HdmC4EaQs+VPPn8czky6YcfJZceRQMI8KlSkxXfhKvmw0xS1UMQXkQwUKLmvpuSZENbztwCDeunMYw4EBHX3pDSlvV8izfP9MnS2PX7MazXRLRRBkPWUI3yhUPIPnxhN88+QZvDzhQYclW8ImKoXcnQOK8JCLeGMhsoQlWbxknucAZhg2F7rm77kfUxywqQeDdA46ssYo6BilIMKGUoiRgT5s7w9waCDE1mIRfYEvvANOgL5U86X66zQBSXOzck0y6DMzKZkYbKibU2NuVrypAYJMkC0blBxZTX6XAqQGKbN1wuMrkcUqK6HjTlB+Ts8jP0RKJqkpYHecjYmbRC+pYAjTXXhTU305u9LWgZnTpxDA0lwEXJnprUaD1F4KZ8UuWPnlJj89tCkVCHGv2Qfy38xJjWHPJrE2C+9b49+rD7WcLXAqMGa5BVT3tDsg/j3b7dvFLwd6up25MgZ3ChBaNSdsq9gRaUO82ffkL5/vJVc1lQBKjYj6BwqoRxqzSuF8rPDKeBXPjlUxViNplfr7RavDQJqiVDX5Utu+IECQHLTFN63pmfxdZPNI9rbb33rnRZ24xNJl2eljjKh5PLiviF/bvQWbfOr8k1Piwk83MzJfrNQi04k/wAZfLHK5WKqh275wg84TgCAgOz00eWYGP56q4fMnLmGy6sPz++BqRrqoX2L7eTbzOEwfsG1iK2xnCBD4d810t8K2MMLvH92NO0sOmK2yXDZyqaw6Tw8grPCLZwi1scDLSNKYdgI8PTGLLz91CeMuUHD7UQE1t10RDiHbm+Ej3+MCYTkKwg+QCzFHSe0DGqLwxRJA2LCm3TnYmlgyz4WM5lpBJL8+j+GChyNbR3HXljL2ll2UPeJDRyybZSGTQWs7AhE/d3CMBLTO05b82AQIaWY9G5AZGaad7LXC7Xq9l8tPkvlnySpC7C6Tk2k+N50HQGk0QUiIbKPWCILMUSJekjHK05BvbgdjQ3cWIAjJrDnq00k83bHm2jsPEK43giCL5FVrM8FB5g/fvKcMCFi9jdxCkY8gpPXS2cqYg612SU6rBmzpFsGCLd8iGG0erUvo0iMklvMhKQvXhRsxxWCjCbaUxFaAyDPknr2b72mPICQ5kyKJmNjpswV8CFDMPRLThNmR/x1PIbiqGRcXjcHl6RjPnx3D8ZlZzCWDiDwgUolsMLxCAVHsI5B0VwIv4NNSLM1yUzpFEGzqwvJnWtfOfCwsJdIalktyc9HUQrHkOBtWa7ou2ieRrhszwB3j4MYC3nRwC7b3uRhhFJEAjYuPvI9018v3shRToG64A3lQcJNHCRab24Tlk6aPBYBKtDjCtPHxgzOz+MbLY6iEA6JpgtgRAi09HUSnimXv/IwXABHTzBpOQGJrWkepHCE6/ureEG/duwkbmX7mGiNrUFrF1IsgXO/SI69NRIpksZXW5x6JOVCFmVjhickYX355AjOxL4xwSdumxEPZVab54HwNuGUT2H26XdzSP3Rp5E5PsSyKgzAC/AiK2eW6xpCTYGefwtGRQRzcNoidAfXQs91ULkeVzhot5V7pDLrQrjVbZFuU6G4GzoGEcO0CIqWmOoGf2N2tF9XgFhwrTCJdoelu1kIJtDOuXQupgZB77qx2WT4vE2rap+S/2SJFkJXyNFIiWWPFSn0ysj2uXYdsBMNa8KYTc86/sX1v17o7zb3n/ETaKHtKr9dY7HnPWR+z90yxrexbpYwq/ZvwFNIji5rYTzRD1XYVScPQKW2udd/aFrJMQZlEUXKr+ELZhvyzN5o4uydZnLLvt+OnnSxqf9356q1xo6y8yy54eVyT1Z6ndRyNaJo8gWiQsCtQl1IYKsItYsCmajTm4GOyGmN8ro5T01WcmYtwYdagzoIA14fjW10NE1OkjHOGBqMr9n+sWMqALO+PLye2pm3kw/jWtRVMLbIvUsws31dtJ22+Q0ntcHNggaAFg4wA2BI6+1GCXdfK/7uxlMZtMRW8ZtcmHN2xCVsDH2Eui8D0hFRYt/TXLsPUyyU238RRgmutQPlNJ1+IcGIMMFlN8Ilnz+Hl+TKSYBZORMG7AhyvCBMTidOkL81EcR8gGjqpTg5FzhjpiX1sH5zFo0e24HAQWsXTjE+WgsPrj2Je6wm7//1NmmIg2mZZGP8XgqFb8gjqcPHDqSq+/sJlXGYZkMsSE7uzyUiF3TcNa9aZU+IOiaVDds3zqDITEylG2Dno454tA3hwpIxtXogCFe4ozUkxGuaX0tTAUr7zljhXFncS4jyQDaKp6AcfUyztYciO+zE3NZ5KV5/GbjibXFu23lwsBKLnkUC6LlrWb8vR2OEsEMIVkJiftHOTaY4gaBeIJkmxZdHNRzTytfy5G7FzfX5L2/xlKtOSLbMdyimzZ2qd6Bug0cKKHHjo0A7y29altnWxb/1MNwChvbqhPYDeuKE2AJRLvLS9qrYalFy75qVsWybNDDimKQeyySXLqzRUlKCSAHOJwcXZKs7PzWM8ppw6MEfSsnEsV9NWLwpp3MpOp55Gqe5Bp7aQZ+D75HaRgJcAIbCltlIqyQkiZGVJx9BRKhyVyHxiaaOhyPcyd80/Snsi207ytMtSzmgGGwcc7Bks4JE9m3GwDJToPuhwUWog7OVPGflFfqlRgVsYILREPyWyw76ixaXxmxdm8S8npjDrafhxSUjNVl/fgxY1XfKAWsF/656uACe+hLcfGsLbtm1Ny9XTCqlMBE8+0L4lWf5rvp5P3qQAgZmEVFjX4dKjUDEGJ6YifP74FE7PukjSKgA3ZWovVLa1WOMZXZRSNY8VDiENPWL4cxXsdH0cO7ANh3cOYkPoCsmwwCx3Angkn2T58Jtht389vWfBz9piIRZmGhOjHlcxjyK+f3ES05V5RBQL8amvT6p7WrOV7Yo7XpM7LkYaMkJibvAwhSAk02ytTXewPEUXm//u5AinhpN4FrlgWDhqnpf7jHgiZNeW8sXc5dpC/x1vWyphmpK3LakkEbxJc52ilJKTxpUdRXbFasdLS6RD0l/2MIxstVQ/ZL/hslZKT0q5HemvCHLzn1mIktCqKNvG3s8BuRawwOdOXU4JCWXXvcCRfW97GqK1vXKNr31oFco4U4oKlVSXcDE7X8esDjBbV6ipUMRqgpKDesJ0IUv/Yqlvp2Q6tQLcwEfCksn00iQk2vxIKwGx2ZIZiZILAhVWjFzDkh7ZRw1UwJJVRjPT6NdV7cOIBPscSyVt5JOfi+oxjFdCkTkSNYFNxQKObB7C0d2bsK9UQB9LMVXd5lMCRikILJZwdAMAuln0u7nOEm5rvZ/K8laB2GkF0rlKgk8+cwbn4yGoJITnUnirItGB2BQEIFD4LjdTtKScKLWuTRVHN8b44OF9GGSPo06OVDGkKrnyZldIx+I6G/gmBAhpNTjLjNJyJfbZx8k5eOUyzs+UEHt98D2aN8vU2bXNuB3S1k/B7hasJgm3GYGXYMtADQ9tG8IDGzdgU8iCOYYF+WsbyxAfBRn0aR4xKym7zpd0s33cctpFMd7KW0Ph1DzwNz99BWMVB26hACV6vzaH2iFR3/bITFc0mKO5QGoWCGi7RoPAthD1rzm12p/yEYQ82LDVI7YXtfoi5CsI8iHl1huXjGYzVtHCg5AygGx5F5Zz5yOf8rD9M7ujfNi+VYqo/UoLLHjU+sjdwWIAoZHyaFuV8jv7ll13LkpjPUo6L2ctbSfjrnm0WiTz6lnVB0eY/VkmVTH48mE8SlXX4Xg2vcSnJj+IQqZ8CVHKEeCnpEyR9+VxQU9z+LL45cEZ76b5VJLeEG4FwVkkbHfqSmiCTbGAdyzgSCXVbSQhJfSli6/gypREGFDIy62jiAiDoYfB/n7sHCrg4KCHzYUQm0MXRVZLiTeEleeRsmy3SdLsem7oZmG/1jnLTUd0fZPr70Smj6wYGykHiZik/fOZMXzrpQRJULZggCX1PmOcrKBjZVte3CznoCkUOZIbXWwJp/Dnxw5ib4FprTRFnppA2TRaDyAsszekhhhE8Foh9hycr/n41DPn8HKVg4eLSQi3S5U4SwhMR7JM4LbO2VY0BTC1OfS5Gg9t24hf2VPG9gIQpOcxTC6pYJHJtYfreWCFO4dzw3hjmU96836M74jkTQIEq1b47HSEv37iFCrYnNbip2F+646Uowd0XkjkX9NJtj38m1/kumqzVIzEntsqa2q5Lat0tG6JWxb7zrv/FbqPlZzYW1I/XOs6lxsu5c4zkLFYlM+XIhTr6EkPFInSUU2RX5TDP7Ib00w/ZiJQGSeC3ARhi6ViU6keQrbgS/QlNeeSyEfK8bgqKmMJza5TF1VMggODItwkgRMq6Nq8RMakgjQV/WIb8T79kPomLvp8FwUYjJQ9bB0dwK6Sj+1FF/2Bh6JD/wxbc+O4VjzLcUvi42IJrM2WXVKuuts+cC2QsJQXewuc2+iTDt92Al8V8OTcHP7u386jGmyQCgc/UFAshUUxJV03zdYalJyUG8UNE8XRAjOFdx3cjF/ZVsCADiVCIfGrhvx5lxySVW7jmy6CYIc72UUxVBLjJAJ88flJPDvO+gIu0DUrc0sp1S6CcHmAwJITUc/jjsLMwXXL2FOs4FcPbMR9I0PYwMmJIjgkNrWQ5nJvyaUlkAUISwwCrvKrXsvLtwIE7Wg8MR3hb586h7oZsaxzQdkGrqIqYqM+bFFN+4VAwpIBgh2KCzRI5932yrde/h7yOctV+Kb8Ip6r+lnON12lvdEeQm8DEMv5jk6fsZRFRp0sSVDeXqoP0iAUC4gMxRXTaNahE/wxTcQyRXE6aVw62xnaahqKcC0NIJCdzvSZTqiSytCyQhxP4KEdfbh3dFD0KGTnycXedeD7AQqFEAOhg61hgP6sZJP3FVtdE4t1SH9mOsTaZxvNBaWZSsoTeW0TdJloaBtjC76XHkBYoGnIGeHmwcekMfiHJ8/jmWkuOKwtYR+zlTtCjBaCa3pk+DQFCMIx8UL4foRjQy7efXgTNhOQppVNPYCwjBmj0cYyPdj8HvHaZKLx2KsT+P7ZOoxbStE2ByZD1012u4wNu1lsThCp46LnuV61AAAgAElEQVS1VpRgpEQfkpilhx58fQX3DPfj9fu34u5BljzRW8HqHpAUZYVL7CSfl6jlv7Ar2VhEPly5jAe/aT9iozyMoYjdjTb48Uwdn3jqPCK9AcZLw+midNisOmikGlLjm9YAb/r6ci9zIVLdkpstP8mu0gJn72lBSt+Sb3m9fGBFmq4jMbX1Ca15Vep1InNAMz3TWiHhWttstrZo2do0jx3+IpWapnY4T6S7Nlmcs/P43yyCwA+1vTP5qyda+5IWSjxRYFTuLPz5i3j02C68ZtuotQS2wpBS6y5FPaLAp6nEDodyz24ipZskOxJE299LcXxa20jwYWc/lx4xYvZm2fAdgcFiHII8QEjBVQ8kXHsUNaNa5AfEQnDlG3l8yuAfnjmByNmAOCnYV8a0tsxnnXb/djajPwP/65eAbW4dHzi6DQeopkrb9lQDJ1tXrn13q3/Guo0g5MONLE20eUxLFmHO8CJcfP/UZfz4pTlcdkoIS6xaSI2T6I0g6mfptJxO+lmNsmSFSVQTchFVEBPrz02nuqSCwUIBD466+OW9myQXWM4IkR3eh1U+6xLFr/77XDff0Hh/Ivik8c2JGj737BhqegDGr4gWns3jpJKKAgrsO05n87Yl1bZxFkVYOO+/UBMsd3HOPreUd7zQZ5ZzDwslVFbjVV/v/XXbRiv7TFcLE1npWquckE0C3N2leV2hEiwDXqY7PbEZ5yJAqXax/g3gqSnsL9Xxxw8exNYi/S7s916tB2IVUxlVsJVVV5939b21pnHyLpzpl7R2hk5RhTx4aAfB1zp/NbraTXhNzdiwIpgDpmIHn3zxNF6e9VCrlC3ZOiDgk3rTnD9MG9BVLhQ5JF6MoqriPYc245c3MaJg+yrTstygrpdj3QKEfC2q4H92aqUlBRAFwL9ensC/PDWLmu/DKRRE+lhUCDmIyUYWG9dOAMFS6MhwF7qjqYt9Lh0cSWY/XHbxK/s24jWbqXtAkR06Jy7uHNd1mG+9vPU1uI88QOAm6MsXZ/CVX0wiMYOAPy8lXlYfrknksopkTT6CJYzlzZjsdLqMqT194qUnI/KkwO6bbaHvyS+g3T7Fcj7T/Z22rSy5v67m/a3mM6U9hAAhr4DaRbrxWq1GMyqfhk0aiCNabSuExTqSeB7DGnjfvTvw8EjRqjymhNR2XsVic0VT96S97a+Rj+4U9Wpf9JcKEK7VGLfl76l34UA5VdQ8Fz+4MI/PPz+OejAMFUdwQ3ow0Lrdljt2OljCqlhVxHN0FQdHY/zh4T3YaZREkXoAoYuOJdKzuVxpJqcr7oxa42xd4e+eP4VTkyEM646JxH2W1DG1IMmCRslIHsU3Iwh2L2qcmhgtBbR6TirYM6DwnrtHsCUMMSCMaIIMDk4b0ut2f9TFI97yp8hkl05cLHj80rlpfPXlWSjdD3izUmYmipItbN2cPgGdMBus/0yi+DqaLU9MlHxzNwtgJrPN72WsuJvPtFUntOgg5HcGXV4v2/XareICpYzX0S6Njy5y34tdPn9/3bbrcj6z4D20umza0kqrVmm7XxOsNTYMGShdYrPJGstaZkNHRaqo+vJ316nizrKDPzi6FyPQCP1M7rrzF7QIoHU8pZ0HswhAWIgz0J5uaE8xZN/bLYdhiW11K55ODoKTeEicKiIvwMnZBJ98/AImdBEJrcOZOhUzuSxldXUrkLdivH5JTSGZxWhhGn/ywCEcCK2XTw8gdNFz0uyeNDNripnRjw0dsVypef7S2Xl84+QYZl0fgWik25oBq6aWqZ6lJLiU/COZPCr7UfPa1QhYN07OibIFefsCB++9azv2bVLwTITADNAEvou77Z3S3gJSNGYoJ+0gohIZDD5/8gq+/uo84A7A8eaEkc68Mm21W8ocM/7BAhULvdbutcCNagGG/o2kJpVYiBdjF5GrpBTxbXsH8eY9/ShQEcUWN63NsRSAkL8jIUgs0a1xbZ5oHX8L1wr+L4FvDObnQnz8xVfwxJQLU+yDrtKJNxXXSxV5pRQ/Ez4iQZEmgHQ/5bzHktz4Mv7ovsN4ZIQ8N2pkcHO7QnbdK9CS6zLF0KAV2dyCuODSanXOMTgxU8ennrmMycSH9pgGyMhGrD+1LFKr798GENJaVhvE1vDDIqJqHUV3DvsGi/h3+0ZwqFRE6JPYNJ8SgShj0TuW2gJXAwTgsy+ew3fOJTACEGZTTXvmb1OAkLJI27P33ezZl3p/vfN7LbCcFhA5YyGZaRivDl/7iB2DfSHwh4e3YM8AdxwFeO4a1i8tVnXQKa3Qixgs59U3PsMNqqL3DrMNcYifTM7in54+jahvE1SV3gp0DLZrT+ZBkwcIEoQk0V0I3DECZwYPDZXx3nu2Y5Aphh5A6O79SJrBOOLXLvUAJsKzszE+++xpnMMGQXB0MKPnvDDluRtlozM03QEgUP6YIibUKSAdRKkiCmoOj+zz8Mbdo9hGeVP+z/NB0WbW7hfQ193N3s5ndch/2sIELdEBOp2ymvuzL54XgAB/EHBnhdgl9rZ8X7dz+/We/SZqAfZUpjIJdOfhah8l1PG7B7bhkR0DCMw8XLdkraFX8rgWx2ChSECvZHEl34Jk+FihxhgC1x/y4SYTg48+dRKvJEWougWGrlS4dAYIorwnMtlpyS7msSsw+MDRndhTYNqqF0Ho4qVZ44PEiOKBlIBM1xN88cQV/GCsDqc4BC+xagPCgk/9u1kmQoBAhrEQDMUsI7NKtlYmFLagkyL1zO/qr+O9949gh7w0D4lvCYkMifN/5bzCXhd3fdud0mkCkkiNZWgTIBDgRVrhc6fH8fVXKnCDIRh3xgIEAjsRmllPhwWk9ugUKF5fd7ueWu52uBcSobVOUC57mJmdx/0bXHzwyF6UQ6YmE5lXFrVCXmojLTDGWr6jBxCW2qrLOz/172BVHWMANNjihvJTL0/g2+erUKogUQMCBKHKSgVXLsWQ6uhQ6RMile0jMTUMmzm8/+4teHAjvR2YLk+1OZZ3lyv6qXWZYuATUimNSN0xMSpOiMcvVvHPv7iC6UI/3IRmKbL8p6St1C1d9PIZuiFJiNS4rGTOMuENLbkENxjs6gfec3gTDg26CKVWma4tXuodK2ykFtWyFW31W/liKUBgxIay8nTTjFWCr1yu4Mu/mAEoEeNPW+8BKUW7sQChlcjGub1VR735qtpBw1oJKt3KnWV9PttCG2+RTJGSa8tzClzgj+8axC9tKkCLxTLpzCQ0r7IKXidAsNC/Cc5dM0bE+nyhK3xXGYFeMZJkYvxs3sU/PH0FczF1cqzapaV4XC3zb8246L/hwzEhIh1hyJvDb+8fxlt2bkgl/mO4BJrr4FiXAEFIilqJUZJj6rjkDeD//vEpnI77oRVXeG010BNGCFLGgihRiVqFAARrhGOZ9BLwoQgJDIJaguFCgvfevwf3DGg4SsGTskjqsnsicGJRHz2bV3mgr4MOsKK3kM6s8kaIsq2HDWKj8bULFXzh+UmYYAhwM4DARZbva20Pa5/dHMB5YRMy0y1wYT45b0acsvwNQ4OcCOpre9O9b1ubFpDgpe2RUq2YX1yZzqTugePAC4GNSR3/zQPbsa0IJHSOXQuAkE83LKRSlREQe+BgVfpMBhCYOkUS4XTi46M/P4uxOhd96vHYKtdrAQT6ecduhCKtvIcLeP+9O1BmZZfHtWqF01TLbIkbChCy6TdfNZrKhkiZo44NqkbhG2Mz+OKJCSh/A4JKBYrgwPfgaat+aGMJlpFrf+LuX8TQRcFMSp/ouuVE2Be4eOsdozi2qYSQPgDpwLZlj2kMKVNJ7CFv2626FVZJO6E0Of3tSQd16Yzr4gcXK/j0C5NInDIcp5I6/TEdsfYgTF6ryC3Y/mHtdi0ccE1BrMPFHZFkNIJFWwJjzXLoKknjHC/nALnMwdf72DpsAeaWpXNYj47mFJAy/unaSGdFM44379+B39o+JMQ01rczbskkZaaBsKSnW+IYa1z7WlKWvTlsSa+hm5OtoiU3PoDvGFxJDD5+/DJeuEJP0aIIcdqKl6sjCJLoZgluwjJ6D8qvw0s09hY1PvzwHmxktZ4XCEl+PRw3FCAwl8MjawyL21OCB3MBdY3zysFfPfEyLugCtC4gjMR6G9q3LmwL5QFsxI0TvAOdFOD6EYaKFfzOwa04OlxAn+fD08Z+dy8Ct3BfbI+3dkN84sBIrPCHOF26Pp69UsFHjk8h1iR5WTMswWM3YhwIatRgiEMTYEp0yZZ9ubG1CWYprKWgWIBgVTCsgyibgJbB1yvbtB4mgN49tLeAtWu3L58qqambnzHwKcSWhDBuHbv9afzBQwewJ2BJewjPEUZUqqC4xE69nDGWB+49ELCG3TiVvOZOX3lCWpx1gM+cGMNPLipAhTCBTXl3AgjgfMjS/dgXwrzjVWCiAP1BFX/x2n3Y4VkeCzUR1sOxrgACG4ShaRE+cuuoKR/fPD2Hr7w6jojkIFD3IBQtAwIDkkUXMm1kcEDSBA61zhUKjsZv7CngbXs3wqc1q8Mc4uIKievhBd3we+g235m/UVFQtpbP1grbwQuTdfyXZy8jAZ3puFO/cQBBk4uSev8YEiWog556QriUUmUYOYOqIt2fwgMBtCyrZf8p9wDCDe+cq3EDGXMp7aASZSL5wEHAGnal0RfM4f0HR3FkSz9KngPuGwNRweP9EGwuAyAspny40GN2A9ZXo4lu62s2AYKTyvVXXQdfeXUM3zgTI+LCX7BqsNcECAEj21WYOIATT+EvHjmAO/td+ExT9AACNYqaEQTZ04k9qg3PRKaGK3GITzw+jhdjA99EAh6US4Eda2pSgAu6KHQ8jAdFIxVXww8i7PBq+KOju7EjNGC2kHrotIbt6SMuY7RfS2DFvkxJ2bAChfPm8Ykq/vL5cVQSejDw/d04gGASggCmp2yEg8EA6QmMLNDJk7obUu9OUx7XRqtISWFkwYlgGN3SlIq+PuHnZbR87yOr3gJpisBJ3fsY7XKotxKCRq6hqePIZgfv37MFA0X2HZZHsz9TAKcJEK47KHmtMZZFEHrRg1XvEa1f0AQIcEKR/48cg+9fnMI/Pj0OJ6SUvPUO6gQQJI3NTXDiw/U5v9QEICTVSfzFI3fgyCBlkqjQucaPtcDX3dAIQouRic342mi/1ph2HXz99BS++/IMZjCMMJiHSWjzWpIcsa2hz5jwzaezfAa6MlZhnDJ8Ej7MFN59eBRvHB2CL7u/LL9ow8a9HEOXPINuwpoZUVHi8BbAuUrhdE3hI0+ewaVqWWSxSSKV2MJ1z6RLH0hCRBTNDAWtFFRCZrEH13fhBz405VCdmIEF0d1XhuY7BbHwVSpJSUjW60MripvcgIdY+mP3PtFVC9jUgpBUOc94vjjFqiiC68QY9Sp4zz27cE9fGQE3HyK9TJO4gkSa+IeFalcd19IyaInANauvOm9+crTeGzGAumrHW/WkFCBoT8iEXMNYmXBiLsLfPHkBE6ogxXDCh+vEQSC3xU1E/dcwLeVoK76VGLz9zjJ+axc1fhx4OYv2G9mSNxQgtD+4BKWNQWwMXphV+MyzpzFWp4PjcFp+lkjagFapljl2teZ1RniklKWTKAyggocPbcdvbC9iM6MTnsih5RjKPYBwFQkxezELubzJRmnxSVDAnwAElpZGmIKPv3nmHF684kkFyo0ECNav3RGkrxQlvIGCE4OFRUNhAUGg4Hl1JBqoxwbTNY15HUr0yqX+vqZIFy14s76z1nUYN3LKuMW/W4TWUjdYLv4eJ/IAiGoIk0n8u8M78Potg+hPxZAcQzIu5yNuVuy44AakK4BwrXF0rev0wMEN6IwZQGAfsXw5/pnXwH/67is4g0FIffeCZY6cN5imtKks2n+Lr4dx8cvbYvzB4e0ocbOyTohxNxQgtDudMXUQQWFOaXz5+Di+dbYOhyxPrw9JUgJJB45bE6EjAQeC3lsHYwMg+GUE9Qkc26DxW/cewHYvgSd+2wwjM2xoowi9CEIaPVhODnSR4SnvNvVhcE2M6djBx39xGU9foilJeEMBAikInNR91BGaGPtH+nB4Wx9G/SI2+g7KYShKaZHWqCQxLtdjPD02jROTM5hUJbi6X9Jd1rK3Bw5uwCy9el8peQKmGWKJcGm6jtLFMalib2keH/ilO7DdY/qMQDFNTQlFISWzioRKB+Lzcrg8q/eUvSsvuwWaAEFTpyc18eOm9mPPjuOJyQQ6FULoXOaYBwiMNgEqceEERRwZmsaf3bsTfSyjXSc5hhsGEKR8jPle0SjgH2uj6rsKL8xG+NQLYzg3G8KlGEXoI0kKonngejEMmYkkuokilYMk5uLvAoEHJyZ68zDvFbE1Pon3HN2N+8oOioWSlVJmaQnL2TLm+rI7yi3ywcVyndfKgy5Uk502jdW4pCiIRqwV/vmVCXz/PBAzvEZpaxIRVnF9JUuFBFXlzsJjikD7QjJD6ML3IpRq43jzoV14eHQQ/UGIokqQeDW5J+vJFsIYkmOBWcfBxdjgRy+P4amT45gus5wpQFGFTENCe9RNsLwFq8bVO27OFnDhGgPPj5FQzTUZhEOAYC7gnYeG8Zbdm8XMTQS+dNPlVfYpnNPIR2gHCNejdHiNMXZztvFNfNfCfteInQBe6jjMtSxygX+9OIcvPncRKhhYkJ/EyIGUQMoZtkLGdYpChN3dn+DDRzZia4E8u7SIqqWpssly7QgKNxQgEKPLlCoowTYyVIzHp2J8+oVLmNMUO7acAupei8IBSxxJJhOAwDIRF0kUCdjwCx5M4iDRPpSO8atbYvzGnTuwz4+gHB+eWMG6SBwjnu3rJYxzw4fLYhNYpzrrvBDLQmHSNPhGIqr13Irx7Us1fO74DKoM4QoXLNUYWKUGUIxUqASumYc2ITy3T/pXyZ/C3Vv78MjoRhzqL8IhqUh7CDXhjKUP2wiT9fiw/c+mvqaNhxOXJvD/vTSBGa8owNU1oTVoEWU18hnWbgCvUtPdxpd1BNA6BLCUbXfKMKjgwRGNt925BbtYHeuTZWArpDodtpih7XerNMZu4xd1Yx49BQiRQ/fFppxy3QUeH5/Hp544g3phuMt7s3MLaYkk6G8KEvzXR0ewr6/I3EOOHZf1Jc6k/Hnt5pcbChDI/uTj0hmLi3/sALNxDV88NY/vn5lFEpREeETUb0XdjiFd66aWHUxLkHkuekkeC+sAlqr1V8bx5687iL39oaQa3MIgfJeon8I9dHK+zQDCYkIs3e5wuhFzSV+MIOS0miFmNkjX8PQM8PGnLmJKkRBIPQTma1cvhJCQMGZi2RFqwwhSiKB6Ee86MoqHtwwhRALPYx/0oB0fIasaGk4cBK+yDNiDFTGa5zmoK4MnZ2r4yomTuJAUkHhlONoXMqb4S/RIi11OkOvxNJtY4IaEr9F3IuwIIzx67x5s7/NRSujk6NuIZTs+WOMxth5b75a/pwUAQs3ROFPV+NufnMQVp79VgXORRuFGRMqqHaBoIvxXx7bh7g30dEisEodkaqm8xIvcZgBB/BZcq1zmMPSiNS4mEf6vJ89jrFpCIjtMK5/suDEL0qHJHmVtfSaJLKTDVAI1CMT8ohBFODbo4dEHdmNAGroK5ZbhCUAwUC0RhNuAgd4OADrVTy+UI23fDV0r7dAACPadMv5OQObqKk4lBfzdM+dxajaGFxTFE311hJbtO+Ugo4Imy5E8dxC6UsXRTVW8+9hOjBgHIQcm+5/nWX92JGDRWhxrIcuGHlBM65GlxFYcQ33rJJ4A35maw2Mvncd02A9VL8KJAwQevd56Kos360LB2YipS6WLMCbCcDCJPzi4D0eGAvj0Z9ExUPSFB9VCf8qNCyvl3aESYYXH2M3axjf1fQtA4GbWEx2ezJCp7hhMKwcfffwMTtLVsSsCqSVLMw3q+Q6ceg1/ev82HB0uimUgS/kt7/U2BQgSFPASxCaG4wTQysHjV+bwd89cgAqHrGJdByIYG5+/E01sCUGEUpFEEoMfVlFOavjgvbtw53AJBeaVjUEQhCKqZOV00yqGVD39li9z7IYg1e3k1eXobilhVba9x4yHzz53Fk+M1+C6ZakfFmnaFTqyR6B0MnUOYOYEgLpeSZJZQ7qC99+/FXcO+KCXWqA5CIneA8wbDxfqEc7OxLgwMYuKiTE8GGBPuYRtG/qwifwYBqsonMSYQ5RgQvv453MX8fj5CmKzAa5bgEercAITAVYr9GC9y6xpCzByUHeHUI6m8Ot7Q/zm3iH0a07kVvXVpX5KNwtAJ2DeKfXQDsLX9Gl7X7bsFuDGNHVspJ3PtAN8/JnLeGHKrjOWX0AHoIWjpIweMCVJawBTr+IDR7fg2EgBfQ0vEFbV8PcrN08u5XlvaIpBNCMY0GMtqEkwrwL8/TPn8OQ0Y9Lcul2tZW3HUhMgkINAKV/WkbIc2cc07t7o4wP37MKgFyNgCIfSSFRitB49cK+qYlhKk90i53YDCDrtgrp8/MzQRN6XKA85mIOP750Zw2OvjqOOIdRd+qqvnGRYO0AwugLHZwjPhw+F1+8ewFt2lzDClZ5lRlKi5mDG8fDDK/P4wfFzmJoPwZSIKiTwAo3Bmsa9o4P4jR2j2EJyo6+RhES2Abwq8Kwx+OTPTmDS2QDj9sFVdbGBbdXx77LReqfd8BYgpvN8g5kacP8A8OjdIxgpKri+D9/QsyOrfuriVld5jHVxB71TVrMFcgCBVSw1z8XHnr6EJydslVw3AMFOsamfkIrx3kND+KUdQxiUjYtVA5Y167YFCKmcQU3V8fSswt8+fhK6vBk64S7MNnI76M4a39bak5TIwC910iMMu7P47SOjeO0w61Ep9cswdiACSamaruR1MrGk1ew/6/baiy38S+AZLPh8zPmL1HKqNGjI8HfEtOlcovGxJ8/gYrWIyHHgCxnQAsHr3XJbZjAPppI4lUciXAPjY5Mzg987ug33DAYIJAzgQSmFabj41wsX8b3z06jGJDGWGou7G/A5FBBP44HNBfzawW04UAzgJVVJSwSOi2nt4runZvCNV8cxE/aj5HtSVdM71msLpH0yd3t2GrHGTEob6KSKwUKM992xAw+PFIWLEDuukNKk+qkbEupqj7H12ry3030JQEhN36CRuC4+fnwCP70sPo8pf8CS7Bc6LAfBcuo8o/H2vQW8fu9mDKT/1uxreeOwtWvkGxNBECl8soTJGLZ1w1Vl8MXzV/Avr1Rh3ECSvKKUKCIk7Q3CRk3JYL6BipgPKkBHMzi2xcXv3rMDO3gF33o1UFqZgibZYUtN+IehwrVr7HXzTV3yCJZ/vxYgiIumw5x8qk1OXQHX4NMn5vDzC3OoOX1wTATXp3AInRLtCi/vpE3fopt7sWE9pqVCamHBcyIkbghPGRwbivB794xiKGTFAqVMWfGi8eRkDZ9+7gwmnEHQo4F5Zo/3o0MY5SNi/CnQKOgp3DPi492Hd2OUjyZS3RqRcnC8HuHTPzuPy6qEgmcQM0KVmv10c9+9c9aqBayIkTVjsrbN5CRlfY7dTsUaJW3w+jtcvGnXFmyQ89KqhZQc3TVAuC0nl7V6l2v/PVk6IftmFkKzPJ+KiJy8EsfHx09M4adnKqgGQIEbEYkkLGAH0PII1of4zdsM3npoJwaULYH0rCxjy5lr2a1uEEAgq5ySx65M0sp1Mak1PnH8LF6YKMvOzvHiRQECz2EWgqVoOinKYPfVHN5zZDN+bbSMgi16yEzdobK8cEr6aAolrX1Hu6Hf2C156rpu0ubfRJzeEcsmeT8qihFD4dvnq3jslVnUAjp0UneAsqUFaJYkpg6dy8AHNlDHiJNLDgLtd0lIDRDEMd68v4S37B5CyaO1jos6ZZLiCJ97bgw/GjfQ/hBQVzDhPPyApFcXTlSAjn0ourMF8xh2pvDBowdxd+DBhAWrxGgcnE3q+Kcnx/DyXIjA47+RU3P1wL6uJu19eEVaIM8ab/yMOhwvkHfJSOP9G0t45z2bMII6PCmvpsAaJ5vUO+ZaEYQ1GWMr0hy9iyyhBdpF0aiPIWZ0NOqi5LLj4R9fmcb3X53FfOCgJETWqyNWnb6S6sAkRr9hC/DOwzswIJUNndNZXfFflvBci516QwECx5GnHcSei1eqFXzsuYsYr2xCoupiz8zQ8EIRBAEIrHJIqJvfD3g17OyL8aF7d2G37yLx0pAgcZm8pGYEQfTP1hKGrdDLWpHLLFTRwIuvWJukITWu8gIQrF2yODxqhZPzMT763Cwux3NwXQ0d99tdv5PAq8UwoWeDD+3pjms0gGBwAgTaOOsEoISp66GYRHjX3Rvw8JZBFNxYqhdi18NkPcGnf34Fz8xpaM+KIpHgyIVANBoIOSJHlNGUV0NYn8D7juzCG0aHrFoeJVMdF+NJBf/w8yk8P9sHj1UMer4HEFaks67ORSwxzE6+/NkaezKVNI+dQ2W8757NOBgUJJJklfIs2Mt2gteMIKzJGFudtulddQktQOmTFCDwU+xHnztbwb/+YhKzvosiw9ddljwzwp3Aw+u3enj3oc0YaNFTyUUgpD+uHWHxhgAELh8U0GEph9bUtwd+eH4Cn3llDDNqO0xcgRfSmImTNstK8i8tLWFj40s+MEGsC/DMLH59Xwnv3rkZRRIfPWu62mDJ346phE59PZu88ovvigGDxQeXGJs4CtNK41PPnsdPp62yoUvbVFmUPcnbyULtkkB4PRoJ9PWIATdAEE3h949sxSOjfQicArw6uQkhLtQTfOL5Mbw0F8FxGBGIoWTRNwi1RlJw4dVCqEoAv4/3Oo43HhjC27cNo8zKGc3SR2BG1fGxpydwfKIAXVBwCE56JQxLmGnX4lTLUGHdTKK55LP8ORH+UqCLUE4dB/uqePs923Cg7KOP4jVeVma2xMnjBo6xtWjJ3ne0tkAqpcYCWXzh7Dy+dmIMFePD8wKAc4FsNrgp9SQVcfVhN7BcsR7enOD9d2MXOqMAACAASURBVO1CmX9PI1U2BpuIoJJsYNbwuCEAgU3EFIMXR4i9AiquxudevIjvn5xF7G2E77FRuUCEUiPaun7ZUgTJWTOt4LMCwseQV8Gj943iaOhDs6aUetY9gHB1V7oBwCC7CQnRye5d41uXZvH3z1+B71FUhFAugiE3QF42SYRWxfB6DuoRuH4Id34G7z4yitdtLqIclODGdSROgIuJxj+9eBmvTinEpoxYVRH4CtpRCJVGXAqAeghEAZQbwzdX8I4j2/HG0WGUHE/SIYlRuJzU8ffPTeDkbAk1h9yafLTqep6g99mVbgHRbvU8JEkCz1A3n30twIhTwaPHtuPOfgcFhyWwrpS0LisVeQPH2Eq3V+963bUAOXXc8n7x7By+9tIYqjqQtBWomyGW9wQIfhtAyGjVjE6x5Bp4zWaF99+5B/1eJ4DAKhry8tbuuKEAwaklSHwfF0yMjz5+EpeqRSSUxKUChUPEZLX0O6n9MkcssjUBQ8rAnqCKPzm6C1soclO2pXM9gLB2HambbyJAEJ0RN8KJWoK//LfTmHU2QQUGblyBY8pw6K/BYF1XxJ5rRCxo5uX6cOdqeMO+Abxz7xBKPoFjDYlTxqRO8NWTk/jhqWnU/U0Ma8GXlIhCECtERS4eofh7aDWLDe4UPviaQ7inrx8c65QIT4zGuUjjE8+ewfm5MmoEvmsXAeym2XvnsAXSkmorfcJyBV/cXhESKNTwxq19eNveEQx4JLna+UPWeSEyLzGC0Gvx264F8gDh6y9fQZWbHUq9U75d1rLFAQI3RAQID0kEYQ/6xavGTiTNCMJtAhBEgZcBmRoQuwa/iCP85fdOIC5stOQwn4s/G9UX2dP8IdE7uFCaTlqhBKGDUOGhjUReOzAYa6leEGYys4eyQ+hFfNfDiCVAoIWy79Qwrgw+/dQF/GymhMTTcFUNrjeQFkbyndsiyes5mKYgqncqBoc3xPijozsw7Gv4fgKlAyjHxQuzGp984mVMFTbDiayiIqWSXRIqA8ALA/hxDX5tEq/dvQHvPDSKwURBhQ58bTAfxfhFBPz9z1/FTFSC8VkmmUU+ri8Ccj3P3vtsvgWarpv0zGDqKXBKcCKGgWdxZHsB79q/DVudGNoLZNaxBz+3BN2DXqPfti3A9Yor1pfO1yTFUNOBFfBT5MjxNynRtWXj04wgMNLAioUHN8V49K496GMkMgMIhmlPux5KZd/1ToxLeEtrH0FI20RMKioGUajx5Yvj+JcX5xChZJUTrfhyqqKYwv8WlMDtWwVGlQBThI6v4J139uFtOzeLTS+PrHGvSShaQmP1Tr3+FpB8nWY1A/Di+Dz+9rkxzDEHbAIozxPvBKaOLDnsOhdYpw6TkJESYGt5Hr9zZBT3lT0JHxulRHq7ahx86cx5fPf8POr1PhiPnBgidZsvjEwVZX8eh/pdvOXOPdhbBMLGomEwZ4AvnprAt0/OSERLoQiPuevUD/76W6x3hetuASHL8iqUUTZQnLSNIyJq94/4eNvBzRgNNQr0Aaca5rWqFK77hnoXuJVawFY3aKnQ+vKlGF/9xRgiE0C7AWh1TwKilMo63oIljwQS8H08tDHCo5JioJ28jSAI4ZoAwQkkHbaWAa0bChAoWV91ND754mn8bLyAWJGcxtAe+QeZzHI7QGAJHWvVq1BJGY4pwY/P4kMP7sRDwwNX8Tt7AGF9DUXhn9Af2VBiG/j8ySv43oU66moDlEqAwAIEhtuuFyBo1ODUi3ALJTjuBH5lewm/uXsEm7xAqikCCVRoXHQVnpuOcfzULF64fBE1P4BGSFdoDLsKv7RjA+7fMYzhgo+ix3tzqaOIqqPwi4kI//j0eYy7ZZhoFsZnRUYPIKyLXicqnexI5ISkOxNWLiQaXlLHA7vK+K19m7CLFLFCXWoZAlNaS7O8ddFMvZvovgVaJORzXBMp43YMPvXSBL5zahqxW2D4UYiwJCpeCyBwa5EY4FdHNN5zeDcGchGE2xcg1BzMegp/8+yreK4yCB05Et7VFM/hfsylDvXVAIEpBo05OBiATnwM4Rz+wy8dwsFSIbUQtDGYZRGMuu8rvTOX0QKMDsl0bRxopXBiroqPPX8G0/EwdN2BZlCIHg3qelIMVghHOzH8ehFJUADcWQzVx/Cuu3fiwW2jCMQUVCGMDSKfw5MCRwHOVeZxLoown7gYKYQYDVzs6gtQSCyLmJW3rMTQJsZY4uJLT13G45MeTKmAwMyipgJ4aQlde930Mpqr95HraAFjQtnZOU5NSlfplcGNmqsTbO/X+NCxXdjmRfBAD40aDE27nBD8VO/otUB7C7SAA1mWbIQzSxSwsO4Tv7iCH5ybh6LYn8dtBEu7CRBsFUNH0SQGrjwgShK8aYuLd9y1AwNpFYMwsiSCwH5MkiOJ3Gv3btY+gpA+GxubYeaxegUfefo0ziofqPUjMYPw3Ik0j8swbxYetB+UnCBL0STKUIAyEY4Na3zw7t0YEu4Br0pxk7Vle67dK7u5v8lKZzflRce0wWMnz+J7p6qA2SQiR6ZQExfIJasppsJMrIhgSI7pBdeEUOK9UIUT17G/kOB9Dx3EziJsnbJ2oTwtWgeMKDC5xdJFMthZpSA24iKbmkp+UxPBKFQp0XxqCt96aRozfj88EfbiBRgFy1iK3Ymk3NxvdL3dvchcSpRRg7u4GI5XEcDpxSHqnsa+chVv2r8FD20cREgJ9vQlW71767DXO3otsBBA4GaC80QgHkKcDxw4jH46Lj5yYhJPXKKDbFNno5Vk30ybZjovIgvvuUhUjHfvL+Ote0ckLRGQCyVCzdY7JjvWkjR7QwFCXQMXozr+8snTmODujLs9lOE5s3BEtewaAIHyyrqC1+/w8eihXTLYQeZ6DyCs29GdAYTsvxUd4Uzi4SPffw4TzihctwRX12AIApf8FNmCLIkMGEUVjACKgje+BqIYxfo8XndgBG/aP4ohInOP8iQEoQSVPJg3tKJ5xA+0HE+Rqag+UvvAmAA/nIzw2DMXcMUdhqa2kolAZTWHYW3KMItEuI1k9I61a4GM+2FLajVcnzs5H7FOUIxr2NKv8LY7tuKugX4MJZx6Y+iCBXQ9gLB27+lm/SbLNrAAgeJaDYBA4rLj4q+OX8EzV5RUyuRVO7Pn7RhVZDRVNiQx3n/HEH51+xB8/l1UO25jgMCcyyvzdXzk6YuYZEhZFZCQ5OXURELZ1sMvEkEwBQSYx3vvG8HrNgwi4IQsEYRUEe9m7YW38H23RxASR4PVZt+8OIGvnppEXQ9B1T04Pushu9Ew79RYorFtRZhIHAwiGJY3csWPHZSSKvaN9OHY7o24e9DFJleLt7siYncCa7JCG9dUulkiV3BRQ4zLdY0Xzs3jX85exIwegFMsCRjQSQyHHBqGtQVvJHBcq6feO9auBay9biKlYdRacXRBCKcFL8Jdg1rA4V1hiCIdYBVBYAwhm5AULVu9XgRh7d7WzflNFiBwlWEfY3W09RSaNgofpfDaJPuSxB2vMhtsmQ9SKwDBsmQ9GYUPHh7B/aMlhELGU/Bkk5Gug2lz3TYRBFpkPjE+j4+/MIVKTJJQAZo7SGF9LiA2I6EWRgqI/h2Uo3l8+HUHcEfIvSIP6/jz/7f3JlySZFeZ4GfvmZl77JmRa2VWZu2lKpVKEiUhpEISamiQBGIaiW3gnDk0Dad7YDj9Y6bnnGE4c6Cn1QsINQKEoJutEZJotItS7fuSWblHZsbii5m99+Z895m5m3u4e3pExuIeadZdKCPC3PzZfdv37v3udylN4SV3ctdM5TWcqNko1R5FWdEXWDqfZvjc82/hxQ3W56hDc9LlDgEpqjPWSZz3BbDcJEhkpWCRqClmnvgoRZxCaMOTvsWSbuHxEzW879QSTs9HiHXAPBowF5MlyOkJYJghdQEupA7P39zAd8+v4tL1DKuhhorq4iWwtumLUzG3nh4IkWv2ccPq2lsLSJw3aMG5ENZIchnCdB3vOTmLn3zHSRyLnXgalVT0pBKSzbU3iuyx/rTGauHY2x6c3G/reD8JEESum1DUiKQ7d5q3Uov/8MzbeGONAMH/zh9wS+sA1wn+LS/jzPWDvAQys+omxa+/+yQeX54VzJr7DrwjshT2umMAAsloX7m8jv/ywgZMmoiLxqoaFJH/sMW1ByA4HG428L9/9AGcrYfQpdLQUiCoUlKc2NlWlDhlvJ/ZZe0gwD9cuIYvPnsDjVqd4mOidzFOTfXuS3qAwNM+QUJIXE5WGlMnc6ESeghIfknSDPUaPQobWJwP8Y6TczhzeBZnIuDIDAEKsGEy3GgluNAy+PZb1/HKSgI7e0jAp7YhQmUkLdOopkiHczEgTPVehCq8sB+Dz9gUYRjAZBFUVkOoNnBWr+AXf+BBnFkgaOS6zfquhWon3UPlw0i5rK73KFRXZQHxIub8KRF8Y8VWFSANUqiMICDEM+sJ/v13X8Oqop4LeQPMoiFQ6JZ/lxAlPVXkWgm70deNYU2aKGngN953Fo8fmu1VkWVdBjn0eG/kHQMQaOT/cWUDv/9SG6ptkGnjc0fBOgxDJmYZIDiL+xTwa++/G0fqjNd0/AW+gmAFECZ2ZncAggJS4xApjStphi98/1U8vQqkek4IqVsBCJ70Q88DCWre/SC1HUh4LGXFsFKoY9ghUwjSWNyDcQTEdgNxHGAx9ht8RiGkdgvraQarSYgNoYMZYRxn/CxIlDUSmuApgAJJ4qbuLAwVSXHPByBxGk91ziFyGd57bAb/7IHDuGsGqGcWIoNEMrOK5ITGIdMVRvIntS6prAIIe95/E/yF/QCBS0wWpAgyhcxpfHejjc9+5zUk0aH81J97EUqFAvsBgrAZbCZF3mZdit983xk8MhvDlYs83bEAwTTw19cCfP6ZDRiisFrLl+rlkVLY4Cyb2wsUJIuB7mbqW9sMTx6Zwc+/cxk1ZWTydxC/kM4q9D+p861Aw4LG81BQK0txDin++DsX8GIjhtYMCRik1kCFeU47CztpllfdfLbzYT9u1uSnMeuAJ8MYwiKUsBR/ZoaD5xTw90oSkVIo7YmF4rWwRkqOOxaPkrLNvoYEAYBPO2J7GCLJFTvdbJ7qJOSFvHJoNfa2M/YknET+B41bkqwmP8kTP/mfJ7D63PIAmeEia0WgShue1wIs2BX8yH2H8b6TR3F0JkYYkGdCwOgrjMoYyFOoy9XxuNz42iDVVVmg3wI+VMBxY3jo4EEhyBAZh5YN8VeX1vClZ9+Eqx0ReqG/uQhxe49iwHWFXgMBqOTB8JCRoa4UFmcT/OZ77sU9cRFc8I/YS49B/xvvaxaDNRn+7O0Ef/7aOpLEIKg5KOYip4znstgFq+x5VF9cXvrUG5tchY+fXcCn7p+HshaRLOb+Xr+wV9ekWqAMEPJpIOmFjbSBt5Ia/uDZN/H2TQcXLgl8cMwSYMoapUcUXfyDnb8CChm2MEWYKgRYOEUK73hFMtaDIEfBP5fhQMqa+rhhO2nL/xIwcAUoqzEo1olQrCeRSTZDcbGoWLc1hTDPpFp+cttVLISDAIJhhggBGrlHQiUnMSyXnVWpr9pqmDrtcCzM8M8fOIQPnFqQyq6aqpnkoPSsCWV+SBcQVNopkzs+9r9lPhTFPYjrCx2FrEIbWosGQvzOd9/A02v0R4U54TXfuzo8BI5dSn17DoLwECWVOoKybTx0Avj1d57GMv3f1DzIrzsXINgAf/DyCv72UhNZYqCiWE55PA0gq/kNoQ8gFJsJkVlgDX7yvjo+dc8iQp4mSkS2CiDs/3Qa1YL+eJo/dzuorI0WNP7xxjr+5HvncEOfQMiaGy6Bo/oAK/EFaiBAKKrsFqdQAZKC4L1XoSxr4ounuLwYWPm074+W3jnQJaz5xEn+0v+LvocyaO191ypzYTujbzNA6HIDGDaS3HIJIypJKXUmgKOYGlJo0waYxrg0gx85u4T3H53Dgkhe0/tDFy45B+VSuYMBwnbaXX3mTrGAV+T0h4sAdHqT98aV65oJ8O++fR5vpPNQJhUpv/Je5dcN7/l2WU0UXFXUhnWsCjsDFzTw5LEAv/TIScxybJcqvt2xAIGlcv/zC9fwN+fbojOtmfwZJL4TsnoeYshRWGkMcpmwlrr9Dj/9QIxPnplHKKc9nhorD8I0TNdNhBtxChlsKMbiItxEgN9/7m1842KCOAxhAo00TQBXg4vtEIDgt3V6A/xVEAULrTPPXJcDqGEaZQbxCghnYPMlQapCBiGXLKFAl68X0v2MD5JUoOB2x90mgKCZspz3ZMoUUm7wntxFXQuKUyUZE1lnYJoXcebkLD790Gk8MGdRc1oODRG9SazBQA9CT8ixAgi321933ucp0MfQopKKn9ypYkvFVofXmyl++58u4Uo7koqwZf9iN5PBwTI8msyBkp4qbsA4kvJDZGoDn7n7MD513xIUDzWF/sqdHGJIrMXnXrmBr1y0aLdSaGaNCauToCyC0lmHOVoejP6EyMOcwU8/uIifOk2JZbp1uqe63sXgzhvK0/zG4mI2wMtpG5979lWcW9dohzNwaSjzhp5loROI29kzgavrIFigrx/pIZA+psSsE/a3P7zlBALLdGgHHbbx+F01fPzkYZyZ09DMYKELt4+nsp8nsYPQO3f6O/RrmhAG8P+xGNz3Lt7EZ5+7iPVoScLdw1YkoxIECT3lIRBmUJalBSjqtopff+Ie/NASD8aEwZPBg9lXDgIBwh+8dB1fveyQkoMQeyb4+ADB4l88tIhPnmYMuAIIB2UCiwy3kAQVvr+6ji+/eRHPXqPbbQmBTUU6uQIIB6W3y+/RXVYlJGToFVQiXpXpltRmEYoyWd2WJbkbOLUQ4P33HcYHlms4oqiKKaeM3MvTa6MKIBzEMbN377RJ9IwaBqwK5DT++pWr+NKrV4GZw0I8HFYwoR8gCGnWWNSSG/jNDz2AR+ciaCFMTwbJed8Bwu+/tIKvXXYwqYOL/ImADHSYGpS4GAv3cHcgFB4E6iX8zENL+MSpuI8YUhJI2rvxU33TDllAJiL1R3Kp44urbfzRqxfxzIqCY6VFkSWtPAg7ZO4Je0yXKZJJwS4t/AEXeiIiM0yCzCA0Cd61HOEnHjyOs/N1hGgitDyZUSjJjx1xNpSOchVAmLCunrLmbPIgkDTrLK7YAJ9/9jK+cWkdYTwvGU+l0gk9b2lVAtCDoEOReeeNOjU4iSZ+48P346Q2UDre04JMo7phXwFC6iwIEL5y0YjqmcRnWGSH3PFsTjgIgwRn6GG0NqDUCX7moUV84iSN7SVyi6taDKZs9hWx5jzFjfE9yh/rzMGmFi+aBJ979TzeuBnBmpgihyJU0gGQ4nv2ISpeEisshZxut3T0dFpzMltd5JP7UjR0x3KhJau7KOKVu10JCUhGrlnJWHJZhgwWR5zFB+5ZwkdPH8bR0IlufUErFRXLfFR46eTiEuZJ/oPXWK2uygJbsUBne6FIkpxhfOr0lVTj9566jJfXMjhu7kJcHBJkCBJYAbLkMTiw5j33vPvRwv/xkYcw7zLRQAgZgpiAazIAwgUCBFaydFChg8kMApuTFPNFpGyrLkAAPv3wAn78eAil631ZDJPhopmAPp6qJhQpboZuYlbgy4jGDVo6xTeuZviPT59DGhyVbAZtU6l3wNMiL241kqZGbQOJXZfHAPONK67CRAyGTtVNv9D6zVrLYcBQVS5XjZOcceaLR6y4GCBYvY65OMWnHn0AP3R8FnUhH7KqXrefy9lLvf1fAYSJ6PspboQX8RchFBm3bWSI0Mb5JMRvf/sKLnHdkey6US+ZwFJpVcJlmc/ECQ0+MOvwK+89jbpUgaTgWgUQ0PEgECBQAY1HRi7jFKWhqIniok5BiV6LFwCBZJD/5cE6fvLUDALWcCjtB5UHYTpnYgEQpJZGxpOjaGZBacb6FL53dR1//9J1vN5wcHVyT9rCKnY2hiXLnfuMeKFSKBFIKq5JiepNZ7/sZKupG+ELKiUC2kg+NFwwTcTymdCSuujgbCr9GboNLM0YvPfQAh67awkPzsao073LSo1MFxtSCrcCCDvZa9Wz+gFCC14i+VsrwH966hoaNaYwUn6d69KwqwQQnEWWKtRrTfzM2Tn82OklaB1BMbtKtFX2/9p7D0JOKeACYKzDH71+FX97XqMt9bRNrmNP7WpuEbyZp4vSyS+vt2CZahI4fOJMiE/fc1iEJySLgep5eZ5qBRL2f4BtpwUeJPiKisI3CaReotQ7ID3l9Y0Ef/rSFbx8s4E0CqDdLAI7g4wbhWQfprCuLSEo/kpkS+nC9lFpYcRXiQ/b6Zmd+QyLanqVCS0ltQnjUpNIVopmBY0gkEwEY5qYCzO89/gsnjgzh7Nzs5h3TGGkRyHKvUUdgQtp3Og5X/YgVR7GnenNO+cp5RAD37odpEig8SevreNvX1kFYl8JlKN4WIhBuRSZrYsarCxmWQ1Ltev4lceP4V2Ls5Kay2WKybuTcO0rQOAm8KXz1/EXrys0uUCwiiMYWvD/HnhxcRdpCsZpgI+dDPFzDx5DKKiLVfR8uWcPEm61YExCF1RtGGSBwpMgC74Qfb38Lv9rK4Ur1uK/PXsO376WAtFhGS+OJZc9IhCPFPPkfWEUVnj06XGdrMhhLKKqO3bdAiykpYJYvIM2NVCG3IIEOmwiillJgZK0Focjg/efPo6Pnl7GUmYRRpSfYViBM9zLLFdXZYG9tkBRR4aj9lIG/N43Xse5bBFOU2HR71vDhiZHcJZFcMogDBVMK8A9h1r41R84jbtUgIj1Z/SkwAM5pO1xwfqSB4GhhL+8tIY/edGgTXKGbPu3AggeoxkYaOXwvmWNX3rnCczBIGTcpgIIez1fduX7ygCBG4FkFsv/J0ggia2Fi2mIL754Gd+/0kA7mvVlIelAktQ4stmlco/IInPSBSTBMv0hBxG70vDqoWNYgMqYzAYjOID0i4oJAhNJT1nSKe4/NI8PnVrAQ/M1zCNBaCI4HfqyN0qB+lYVQBjD1NUtO26BLkBw+Ob1Jj77zdfQjo96GfAOMhjMd5Jy9MZ66e9II8gSPH7Y4pcfP4MFKipUAKHw8jrYLMWXrzTxB8+3kQUWVtP1y6IsLNFbziXtGltOiDQywxGBxQMzFv/qvWdwhIiMZfaot08PAnPhqkVkxyfHXj2wB7fmk06Y6rLhewcRqy1eSFL8/WuX8K1rFtczqmvm8D2MZDNRmZNNiJ4E4bRw3OQVHzsVe6qD6K52qy+wxoChL7YkUrWsfsl5HCqoUCHIGphL2rhncQY/fO8RPHhoDnMIUEMCo6wIH7mAhbX8s7xeUtVxu9px1cN7LNBJwBUpdnq9M/zH58/h61fp82KJZy/DPmpYcgw7kwm3igBBm5v49MPH8CMnD0E7S78YAs3/OxnX3nsQ8vdmGprJEnxzJcHvPr0mC74NyQBlmkjqFRS1N7lPG/FXETumy5h/PaQ28G8/8CDuJnrjQkOA4LScMimsUl3TaYFxHVu8LwmAZ1YT/N1bV/Ds+ZuwtWURKqPXQVkNJ+nGebEf1nYWiT2OlaLq43TaaGpaLeZmYSwunvzfFkLNMJCBdaksrQ+dWMAHTy7jgfkQS3khLMcYopDGLXQeJvLznryFqhjb1PT/AWmoCKqTFMv6r1bj9Rtr+N1n3sZFtSAaHIbZDfSCj9zdPbHaV4cNcLi+hn/z+D24b4ZVZ72HVBMgTAj43VeAwJjxUw2D3/7ONamnbamkyMp7jCdzHb8FQKA5a/YGfuuHHsI7IqY68jeeg8AzRgUQpndmjgsQOCWtTZHYBJcyhb98+Rq+d6UNA5Je68iILcNYAIEnJxItFKWCK4CwNyMkTzGUWgoajA9Y08JcsI5HDtfwwdNHcWapjuWAJyjmNyhYrRAzfSX3FMiCSQdSfljwGhjVVVlgjy0g5ekNNgzwd29fx39/PcEGdQ0oepSnP47c3AOuRWuAodcMePw48C8fO40FGc4eEE/SvrWvAIGr9wtZhv/r6xfQzmKYOsvoFgCBrhZfE2uYB0Hi0dkKfuVdp/GR5WVJOXFS7IkAQU+Uofd4GE/9140LEPii5KNQidO4CGuBxVcvruArr21gba0BzM4ipSuPIIEEIssxRoDA6n4VQNiLgUJvHs/9OgyQpS0sIsPJpVn88Nk5vGOxhqOBkxBjpEJYU8xdzmUfRvAcFJ+gxNRXcSHElXdwL/qu+o6SBXjCdwZWOawah88+ewFPXZlDiAitaFVUFVlQbGAB4s5jCCZWgCxClEX46Xcv48cOOURhLNoH3Uq0kwGA9xEgOKRBikstg3/39Yu4gBihYk6z9t6DEfbxtVqY+87DSAufPDmDTz14TEiLRbb7JKGwapLtrAUKkhCfKrr84r524i0IA2DNGryyZvCNN1fw6vU2LhvqI5A1HyJQnjEfGpaM1kJ8cyqTss8MTcWZlgUgUyTN+oI/3JlEubGnxPN0ii5Jq+Wl6O4P/VyzJHVSyZR6JErEW3xyMVkczPXuik456g8wTMCStEzT4qkp38QlqENbGj4vL68sdIMWFAxmI4N7jizhh46FuH9hAYcCoMZnF7oHfcWVshIGiPpqMe7siKqeVlnAW6BcZVbWGet42BewyrCWzTIkocJLKxv490+/iRvuMJyJoeM2FHl05L75STbQpCzvHIYtZEmEI3GC33r3aZydcbIOMTzOuSVVSycDH+xDFkNuNnYEU5bWMov/8x/P4c1gJq9q5RceKYc9xEgCEGzAGhdgPYZ3zib4l0/ci+Wou2hXAOHgTvl+70Lh0hM5LVHcypAECmvG4K2GxVdeW8ErVxOsuxCqHiJN6auOoAgCZMPjqVWkPEXLX04CGXkwfqILRqC3u1SCdVqtOwwgSGaQEH/JzeDESyX2T+BE0Raf2+2Be0H2NCQESBjAT1QupHCpAHWXESyEmNcO71iI8OCRGPcs1nFqJsRsGCAmWSuH8WcKwAAAIABJREFUIfw0tQ8kBFQ+sJV+mBza1rT2fNXucSxQZE/5pcQrJmYy931ZeJ01sGID/L/fvopXWxmsmgPSJlzEPSsS7tuoS4TBzCxs+zo++LDGL9xzGodkr+N8SCuAUBhPTnwI0M4S/N/fOY9n20x9CkSTXSSumY420NY+T5JnHPLRTZJgSd3Eb7z/Xjw6P9spklEBhHGmw8G4pwwYHAv88FQqE9UiM23cCOp44co6vnbuEt5sGGRuESaehw0NXNqAs02fosRcO4a4eBK2HiBwTEr9d0EIJbLshJCIttqD/QBBXknc+krq2ksaKE9CEvDnu2soIQ4XpEBmE2wAQRta1UXrxYrqKVNPA7i0jXrYwmItwdm4ho88cAan5zWWLMRDyIwEymjH1KrISYuaBZb88a3ndSaFqLVVG1f3T68FetYSyVYQcU8RadN5yfHvXN7Af/nWOTRml6GCGqAbSK2BBpU96WrkpwZ7GLWNYBGhbm7g008s48OHFqXOCOXCbeVB6B04XFyaNsMfPHcJX7uUwhKBUUSFKSDidhTe6GBXDT9MBMEiDvomfv2dp/DB5UVBYCKIU6U4Tu8s3WLLy25BbjIiqmQZeuA4aAszuIUI51OH719cw/NXE7zeSJBQuU9KQ9K9Tne7BbI2IuZKRloEe+RYbMIccFAW2P9HXcZpveQdvD9AwHgncVB4gIQGXlTW2ciHIsREDoGlx0UhS0NyrRGSVOx46vHcjkMqxJmFGZw5rHHXosZ9C3M4wr+RwAUF7Vhoi/nffo57uUzvlshn87SatGr3gbAANVZ8er0vK85Nm75FetIyhM7iJjT+4pUr+Npra2gGswjjOZigJRk5rDYqwTlZGvr3Lf6S7ogYbaS4K97Arz1xLx6a8dk9nF8+LZ8hBr+HTcK1bxwEeXlJUXP48rk1fO4752EWlmA1F22xVG7kjgJ28RFPWrJWQARhRAOr+IV7j+In7zoshS5cKBTFfO2ZDENPQmffKW0Q1zjdgyQOqJZsdgQDDEtRkedSYvDUlev4/ttrOLeSoq2WoGbn/CLA+9MULmMcMELGDTBiziTj8VZCDXysPOsWV/mOSWIsyN6cT68Of0Dc+76VEnvlgiWKlBm05gLJVMMQGWOxapYRCJj2CrQ2OBlbPHx0Ho+cOCxyyEvKIVJaeA3kJHjtAz4/khhtJPHD6qosMGkW8CE1Pw8kruCBgqTdMnchxVsG+P1n38bzN8hJmJU1wmkj2gY+Bd8fTjtXB/n6EJrN6nDBOt61vIFfe/dDWJKQngflcridsDIB+woQsizhaoMXVgP87t8/i+uzy3A8XRivlkeL+/K9JYvLj17Skm7NWhxiAy185MgMfvG+Y5ihKptiupSPjVZuykmbhHvTHgEJgspFLsmfkiV8lQGGBMQarqYOz62s4/mbbby2luBmSvpi3adIpjzlkkDniwQrSvfBCNLnfyZPwRv0Np3RWpyQJ6yOZAEQugd4L2PkBAQVhxeplpIvWBQe8x6ZmXqEOZ1hWaU4tTiPB2YjnFqYwYnZGBmBQQ78dUAfg5NKm9SgEFsSMAi/qAIIezMLDvi3lENSO3Li9p4C4cIIyZbVGS1U28C4AI1aiC+/fR1/+fp1bNA7mdZlHRAV0DQpjqQjAYLLYtSCa/jUw3P4+OmTfmUSL1p+EJ44gGBFsWFPR1JBBHEURAocrqYBPvvNi3i6qRHV2EkhYGIE4prsr53p28pnMG3KKoMsiXH/bIZfeNdRPFznEsX4aC2XbMxfbW9fcU/tWX3ZZgsICVY2PG6HSoQ1xQcg7rxcy18UOR2aicW5hsHFjTbeuGrx/M0ruJpSntm7w7WueUBA9zjd7BT4CSPJAKAPq1MnUk7dha+gALb+5+75vNvW8pDsB7JFwaoe3oNs3p4b0C0q4Z8n6oTFUOdGzIJGDNXJvwuqJT0DofAGfJTUCX9A6RA2yRARTIU1OcnQLso2gbSNKG3jrrkaHj55FPcs13B0RmE+AmphKMWT/Hd4XhBtSxv7MJ+sfB50FG3O7VNxhKpZe1sWGFQh4Lb3Mc4HH9ZW9DgqX/sDmUUShHi+1cbnv38ZF1vFwSEf26w4LHya7mFW5lyHi+CzeoxrI0gsHlhK8SuPn8XJOv3cxSVJ+zKH/GtMBogO3D4BBAkRIBXCklER/uyVFr702hoC3UIYzyBNQijFqnyF4TvLn89fp551xCqQTehkDoeiBn72iRP40CxdOG1Z1GXhLtbrCiDc1nyctg8LL0F4KvkGSnGefFGRzbeMG8lbYNhKBWjC4lyS4qk338YrF1ZwuenQjhehwkNSD6DdbiEMQ6nzoBRznjVSTvx8z6bXy3Miyl4vWS2GQF3fkMEAYTjZyS8kBMH5+4H6H3mIgEAml2ulp03IgVKbAgIChN0jxa9y8KAUjDAyFUx7A3E7wdGZBHcdPYR7Tx7BfYfrOBpZLGiHkFyCPJXLaBaX6RZVc9ZnQIzjtasAwrTNqAlp7zCvgd+Rb6uRnQwGRiKNk/XAUVvHWVw2Af72tcv429cbcEEMxWqiMcnMFjaNvIexyHLqLDs500cydDj/UmjXwicePIpPHl+EVkZCcR7g895yyvCkAITiqHKbxt1Sz+RFd0j/YIlekpy+cZm61tewljnMxHNIWciFAEEWnXIEt6jqp0T8JkMDOokQBk185IElfOauI6hFucgK8VieDFHOPhlnAdvS+1Q3T5wFJOZdGtOcyJ3fdXbz/MAvJ2zm1Bhk3MidhrEhVrMU55sJXrme4I0bDVzeaKBpFJoZK67RDcHiQSxNzHxpus99PIKuyWK8MSvAc5ZIbiyi/DkoGGQ1GepFxgBRR7mqqa9MSW0C8YeUAZBkGeQLZC41Lich2bATX59K/tMIrIFyGSLUEDqDGAmW52pYqiucXKjh/sV5HI0zLMzOIAyMpCRGAnyYpx36cidczlgAS05cOUiRNXo8gFDNwYmbMtPRoAIgDNqvbhMkDAIIFhlM4PCdGwZ//PTbuJLOI6LXmmJ8USJcJUYtJckpn348CnhJcS0HWaWTXFMlwtH4Ov63x+7FgwuxJA8Xe5tM+3zN8nNj0gCCP8bs7SBhPQYusC7By+spfufFc7jSXIQWIkdb8q2tpS516SQoJxaegEKEYQ0uTICmQaANTtfa+LfvfQgLsSgoCWmEoK7/rcqLU7VQ7W2X79W3yWQvA4RCorco+Vze1Xia5sYbcOs10HK6JhvRb4ot67CaAdeNw/W2w8WbKS40mri+0cDNZhM3DDU5QjhHNTSeLrxwE73+kq4r/AefGyCkBn9m6JCdi8WhCxv8asOYfznExvsyhg5UKqmY2oY527DYoPPBLguNn84ERuRM1NBCDRkWZ2YwGwU4MjeDxYW68AeO2gTH6qFwA0JtUef8UjPe1Spsbnr7/PM4X4uwSsaErc775HnjYwKErvl7gdxejY/qe6bYAsNAwijwMMbrlgECcXmecY/VNMMfPnsJ31mN0DIx6qqJVNjKLQR2RrRX6FHseCUVuUoMSUbIMgMVNXyIIYvxkWNt/MIDJxHOKsSOe5sH2MK5y3k65dDcGM3e1Vu6JMXbNO62Win8MRJAHFZT4HOvX8A/XCA7dF7K+SqfC9WnmOQ9CsakPvcaNVGCo0BLsHEVP/WOZfzYgyelAMywGG9xkqzAwbZ67UB/iCcGKjJyS6Q6ABP6pDRxwHHKyUwhpUAqSbYRgDkS11OHt1cbuLieYD0FVm6u40ZzHS2OUxUBqi7lhZh+SdazlHuhXgMtKUWI6GXI3ZECInyZao5TY7wHQkh+cn+egiB1JbiBZ1DWoCabNTAbhzi8EOHIQg117TAbaRyfXcCReow5hgRUgDoBQ0DJWB9iyJ2c3ish042woFsMaVyvwIEeGNXL7a0FbsUxGOQtuM09rAAI5B+k5B+J9wD403Or+PJz17DOCnChhg60zMce3x7XiJx746JAJMEDEhiZPs3wZrKG5SDFv3nfaZyZnZPwulKa2q45QOiGIyZpX9rXLAbfn6zo5pAahS9fuY4/fXkF624BATkGcmwRDnlpcHrWJ9OvfLyXp6ialHgJgxZO6Ov4V088gntqVMrLSSR9npEKIOztXJ+mbyNzXwR/cmU/HWQ575CbJ8MUORnPUKJZwSjqn0mSki/2ah022izgYtCCRsMGWG+00WxbtMwqsqCGlo1gDN2PgQisJCbzqYUCDhy0yxBHcc51IGcgkHLH9EwQHPOEH4UK9XoNc2GAudBKaYI6swwAzIaREAgpJSYhBro6RSWx6IkirSrywKPjZfOAvN/FOUkL1jSNpaqtt2GBMgAYtPHfJhgY1LICIHC8UwOF+9JFA/w/33oRlzYWYGO65dpQtibiYk53w2tSujxPC7Lk/zDtUQoORrB6DrV0BU+eyvBT992NBa2lOim9ezr3wJW1XCZpvu0rQCACExxGQohReDZt4ff+8Tnc1McltOCzofL80LxHfRlnnnwK/XzeNCvuIGc2UKut4mfvPYqPHT+KUPmSz0UBjGJQVADhNibuQf8oi7GQUpCnyNI97zmHFFAhQKCDXRzvAkqNTaBU3RP+8vMANdWtYVXRvG4BIhinkaGVp05pYUcThHgRFkJgVjrMLyYW5elPOvSCxF3lcXIPvLojJwipEGRCkGQprWYxKhXlpxv/KS855n0UUv6MgEA4iV4r5FZhuIPe5dX7TbgFdpGYWH7zAiBkzkAHBomL8ZcX1vGF164gSOeFb8PIIzd1zhl6FYuLM0mCDEK6J0/HSFViZkGlySxOhSl+68nDOEqPHz0QkvFTMJt7a0BUACFnbfoYsfGFdtIAq8rgD59+Ad9e4RlpAUHE+s0+L7W4vIQuSaEGxiR5mvuMiLCEWiPFZbx7SeGXH7kXx8je1jVEKhHiGS9JySp5JPaYdTHhM7FqnldizE8GBKLi0febrCwQIvhDLxaZej5f0JFuJNmHHE0eOBQbfDfORTDACH7uKMgrjko+RR9Ppjw+vc5hBx17sRVlJD24S0r041p+LkIRebt5P9vefQTBhQc9/vDSnQFlR5uItlRXZYG9sMCtyIXF3/vv2wUvAud+m3uOMXix4fBHz1+XTKY0I19OQ4WR8AZIPh4UBaG5fGIgAT9dCAaRreEDJxz+10cOYYafJT9B9jEeXot5VoCNEUWI9qIv+r5j3zwIkqcuiyrdoArGKqTK4rn1Nv7Dt89hwyzAhMRlRGL9AMGTyoxh/FUxtdvL37oQmWtjPkjxU2cW8bH7jooLNSaLOz+hVQBhH0bZlH0lUwNl6yRAyEMNsk1LcTdPABQiY85PCMLuZkqBRfGMCajg6bw7dktJB3laZDk7p2yk7vMYA+25eLoRD4OXfO5c4m7z6VSbrlIKj5dZzkGJEDa5iNHb4fkVBXwJEE9Zr1XNnWoLjMMp2AVA0G8zaqe0XYo3Wgqff+oczjXqSDILXWO1WB/SFoFW8WIPnr8ECHRpM/XRuTZm26v41fffjyeWyEcgmCeh2QP6rregAgi965yc1OhiyYQ9TYDAxWoNCr/z1EW8eA3IQrpQGfstAQQ+he5cpWHYcTytESAoi+a6waH5RTTTBGeD6/jXH34Ey1phhoSs/BEVQJjqZWRPGt8BCAUjP48tClYQF7138ReT2zsOcg0C0R/0cXzZsnsAQlnMaJB0UvF6vYCj+9L0BvD7i5KyZYBQKLFtBgjlGoki/CKggzTEwjvh0ya79/H3oolYXZUF9sYC43gHhoUadrCFmTG44iw++73zeKWlkbSpBxpA1zjnDQLxDnD+iU7owG+mWmiWAXGNG1MTP3RM4zP3HcKhaBaBZuqx7lR97HrtKoCQG9Mvauxr+U9cLl4nPzApmk7hixca+LtX19B0zBVNkGlJhkRglOjrk3AljlPJZkx8zqnkryvozPmqdM0r+NcfehiPLUaYpay+aOfz8zw/lRjaOzi4qkcdAAvIKcELKfXGAhkKk/JNcvrPpMKjL+oiemjFTGcYQnQK/OfLm3O5FGxvjk3Zbr0ugx4JEPl2SkgzaNBbLqpIl+oIMJQeWfY0FO3xLS8FGHJtkuJjkxQHPQCjqnqFsgWGhRSGgYTuoLxtO/pNPRcF8TuRzxZSvnBb01n89Zsr+POXrqBdq0MFdZnhGbVDuLmL9416J5zzfRolUtjMkw+TNlCb0VjWCX7x3afw+Ewgcs11pt+LRoJ/lS5AKGfsTU7gex9CDIUhvCegcKHSbQqbohVofGNlHX/41GWsqSNQ6SrcLDtEw7XJ5A7hIi/BTHcP6V7FlWdtC/JopQYfOh7i5x89isN6AyHmJPZDgNB1pd72eKseME0WuFWss0CuvTPXv+HYTGq/iefTf1uCJ8Ncl5sKwUyT7au23hkW2JM5tj1TeuDvK4uKqJnMUxKNU2QqRN0EeK6t8J+/9SYuZwFMPYZ1EVTGcuYOJvTqrAxrMwnaFYph+fLgaUDkKjigbVGP2/j4/XfhR07PY0E8D0YKnhXgu1/MbXtvtbuf2geA4FGbqMFRsS6HUJoFmkwKlrx4OzP43FPn8Fyr5olUUr2RBV9I7qAXIPWFnBzdoCWp15xdzsU8DQIsoo1P3n8ITx4PsRDWfOxIyCOTg9B2t3urp/dYYFics18gbNQJZxB42GTmwvVfjbNqBN5hFridObbLIQTvAfRE4jzhQLyClPNvIMDVhsGfvHQDz1xNfB2WuVmkLQvuTZTkFV0ykn6HAYRc8CjVDoddggcWUnzm0XtwLPZ6B6zhQpn2CiCMnBPF4snscUZUPblKSF/W87ybQYCvXljD5569CDU3g8DGyFi+V2u4lLwDIjp+Cf9V9iDkjltheq9BBfM4DYtffOIuPDjDSnMZnKr7tK69Vo28w9aJiXzdshdgEMGoEybY5P/r4cHsueLoRBqzalRlgQEWmOA5JuEFoyU0YFVLKrgrx3omGq8nCf70+Ut4fi1FCyEizbACpfpjIGPWkEFBy6EAEvk73K3kEtVSVoMjeT4igxnHkov4pffej8fmmPnAUCO/VyOcskqm++BB8OV3WVDei1OSD8D/vDIcCWIkeJ5LFP7TU+fxRrMFZxaQUcSKaY+ZhaV8ZW7oco2F8nDV8TqydBm62caDR9r41XefwTGKxUTMWa/kXe/YxW1UylQZNI4CEHes8aoXrywwhgUmdI5JxcWMfDWLlltDLYwkhNAwEb700gX8zeuXYRcOU5MU2ik4ZjMxtM3dSbGmgj+MKhN5eJDLJAtGUKGImbVVgNg08KkH5vCx5cOoxVQE5jE4hnORaPNM07UPAKHI36aSe6GSmGsUkBdqqPjmsAGNr1zewBefeRNtcwSupoAwE4VFZzzRY5QTwKEJ5xagghpcehOfeWAGP3bmCGr0HpAoMmUdNU2DaqLbOsqNOYokVXmcJrpbq8ZNkAUmdI7J9BZvAAPc/MHgGhS+9fYN/PfXWmgEQEriu5v12QqSyszaJ/Re02vtlVQHAQSpTszshDjBKZ3iN9//AE6nFo16KqWjQ02AwGqq06Uvsg8AoSivQHjgCSMFadCXofUoLSMXwVj84fdex/MrC0JUNGhASSgilGyGHhZ23/xI0gyRrkGHIZKkjXujNfzye87g1EyEGZ2rWOVM8yrcMEGLy240ZZwUKn7vHuRZ78brVc+sLLDvFpiCOSZNNNTE0WgHGi2b4JvXmvjj56+ipebhbCJF2pjiS+8BQ9HUMmCtFKeopOq1SAcBBHIZQqcxE6zhn997DB+7dxFzWYZUBFJZi4XZekCtlEG37302RgP2ByDkDbPOy9H6qyvyQtymghRZCvzjSoIvvHgDKzpE0PZeB000RuEjiiwNcgWLQI2C0+QckOcQQ2UtvOdohJ97ZBknXAtGz0AHzILolbkcw2bVLdNkgWGnmWFkKhmK0+UGnKbuqNp6AC0waI4NA9t7AcJlS+GGzv/tprR7jptCGjismATPXUnw589dwWU9J6WXjW0iDFnNhJuCD4CLaiLFxTIjtVNYLt1nImjAtiURgin2mQswOx/hI8sGn7xvWeqikJgoh9ic81aExadpBOwrQPCs0pLYC/NLO/Ub2SkZLmiNzz9/Dd+5vI4oixHWFRIpMEPz+9LPAy+RPUjyPNcQztQxm9zAP7tvHh89ewxz2iGmFyLXpReiifKhi+KqtolpGsoD2joq5WrUAlYBhCnv+Kr5e2aBSZxj0iZ6ork3+BonPnU4w4azWMsi/MOVa/jmy1dxJa3DRUxnpM4BFU3IS/CS6F7HhAjApzdSAMlJpVMCBKbcJzDcszKSGdt4+HgNP/PIMZyNfX0T3lnsJl1RtenaVfYVIAwbxF7C1iDIHNoh8M3rwGe/+xoyzELPKiQZEJoQiikqomuw+bJkkyJB4BIRScqCObisjWXcxMcePYUPH1/EIr+DHZ1vCJRvLj9t2uJFe7YoTMMXjXNSGbW4TcM7Vm2sLLCfFpjAOSasAWlXDhBE78BfpJ1ddAbfON/EXz77JprxEWQqQk2tez0eyxpA9F53N3GRVs8LnnmAIIWAfKiB2CByCNMEd89Y/NTDx/DY0oyIlPO7JAheUO72s59u47snEiDQqqySRxIpiR/XlMb/97038NKqRcITflCDdkyNtCJoNegykr7CojmpuIugZ2FYIjrdwKkFi5978AQePzwnmStSLEpbhCL9LGK20sNRT5np27By9dHdt8C4MdByS8ZZ4Ha/5dU3VBaYDgtMwRyTkuu5B0GOe+S0OYsUGol1+Nbldfz5c5dwzczBxUvCLQiSFQQxNXa8Vk6hkyNeB3qrc7zgfzRQWSzFnMCqqTMOi+46fvTew/joiUM4RHVV7cMahVpq2Us+bXy3iQUI1mZMK5ViSxkyfG81wxdeuIgryRwyFyKkqhVJCkPcwdbUvZtJCtHQUxDnZZ8tQtPA0XgNP/HACfzgsWOYcwatsI3QML5Ed5MDNLWypotxOh2rzA63sp+D0p+qOK4I0g43q3pcZYEDY4EpmWOdKqW5oqEQA7MWrI5woRngWxca+NqrN7HiFuDimkQfrF1HZJsCIAIXS6bCsMuXgE8RpHXAZDBBHXW9hved0vjE/Sdw0gGhZvHAAQXTpnQwTCRA8G6iDIpVN1UAFRhsGOCvz63jC09fRLTEqtqeoNirSN/tBevycptUXRSAEHnXkMgzZ8jCNpazNfzqD74Tj8WU1m4hNcQFHCgOmrLMuipYM9HjuuwBGIcoVXkMJro7q8ZNoAWmYI4V0uQeIDBE4KWRmRGXBhqXrcZfPPM2vn1lFVl9EdYo2EwjiKyEoGMbeF4bqYpCShtShIkFmtQGAleXTLrIpHjn3AY+/cRDOBmyrLNFEEZyaJ0upsHwcTexAIGiFso4JApIlUbNtPB2EuG/Pn8Rz1xfRRrUodWMlL0tLmGb8gfHupAEBb4et8gyWxIVQynoxEMlySiBXcdDSwH+xcN34exsXr+OcguSI0sxJYYpqmsiLTAuS3pQlktFQpzILq0aNWEWGJfIO8rDsKOvVGaIdbfgorgaPb/K8JzPzAOLtSDAC40AX37pKl5eNUiURuocQhbsEwker6mjuS/kBPXis34jYdaCT230RZ24d2xIBoM1Me6NW/jZx07gwYU6wsAhY60FeMGkg3JNJEAQ40q1R4d2YJFYi3lYtFWEZ9YyfOGfXsUFMydaCOXqdb6inS/FSxqpiFxInWdmvlIL28s6s6434006zhCigdO1FD/zjtPS0colCMktIQfBMX+1exVIlXGkaYslHZQB23mPcQHCgXvx6oUqC+yRBSZujpVk9fNqwLSECqiRQ2+AD0k3nEWkgBebTfz+C5dwbp1pBTECxqx5p8sQCNuwSK1XCHRRvMnKM4rsOKoueo1l1gpijQaS41PMpzfx8z/wMJ5YrqHuvOSfUUyqDCqAsEfDU6piFSRQISQiwLq1+PqlFv7khRW0tIIVEon/T8YzOzfwHcaQguSrCvLzKY8cRRRkMjZC21joukJoN3AmzPCJB0/i8cMxZoXJGomGwlavCjhs1WLbvH/iFq9tvkf1scoCk2qBiZtjZYBQcuJz/ZfwAsshpDiXWTx7LcCX37iMGy2DjIR1EtEDyiVzTWd6uwgY5N4BupSF3igeZ6bQ+8uHLISX4AI4Q7J7jEW3gc+8YwmPH13CoijyUr6Z4MRL+MvB9YBcE+tB8FiPspeAoesmR3U2MLiRBvjic1fw1Uu+BGegSCdUMJaxn1zYgspXOedA1LHY8ezogPyGnKdKyWbmvQqmWMfxsIkfffQ03rU8i0NQmGEcS4QuytX5ikI+HAFEoL1pltMohjHRY3k7BKnihapQwkR3bdW4CbHAhM6x3oCCT12UpMPce1BkBxjKHwcON2Hx6nqCv3vtOt66luG6A2LUwD3DUSo5UD5MIPtBL0BwPEAWIWnxRrBmj8gnwbh1yUgIMIe59ho+9cgh/PCpRdRChZD7juwnLq/6GAjB/aBcEwsQhhmYQ4TlOZ++keE//dN5XKEHgekqLZJSDLROpXCGDzcM1khgVxvel1E2c0YCEEY1EGQbWA7b+Oj9d+MjZxdQp3qW1ogyi4iDKlSiuyC+DOon5ACBng4dUBSDXowyJ+KgUFX2YbhvlXTYf39FSNyHTqu+cqoscDtzrPyiOwjEyyt2j4ierOXcrLUc9plu6ETnRiHLYiRRgP95cRV/9eIKbmYRLLMJqHBY2quliu+wDiLI0FY8EI5C/25Z7lQ6g7Ft7x2wKT58cgk/fv9hnIq0FH3ibkDhJF8A8OBVCZ46gMBhoVzGqgz4hwtr+POXruJaQsIiN++GFMWArZWUtDaPCA4SozMBCJ62wBiVkhLStn0DC5nB42fm8eT9y3gwJOmE5aO18BlEbdFrcIpWQuFhoLhGP0AQH8MOTp6pWnxut7HjujeHnX4qgHC7PVB9/qBbYALnmBc4zi8JGXd/NopcA1ZT5k7PjdzAGI2iwTBsAAAgAElEQVRLjTb+55UU37iwhtVmikDPIHEkDCoIGaGQO75Ff/KrePiUEINjNgJrBTWg3Axm0cBjd4f48ftO41gUYMYphOJxyCQzjkWcKoAwARNG2AU2Q+aAFRvgq2+t4O9e3kCDuaeRgTM1BC5CwBDDUA9CFyB4/1CYS18RJDhkLbqmVvHwkQV8/P4lPLJIbYTUew1YC1wGaAAT0gHlEIqLqwIIOzo8xl28hp4IfB9VV2WBygJDLHA7c2yXALiR9AJ/SUXFTnQ3gOUhkEJF1iCDxiUb4OlLDXzr/BrO3dxAWp/zvIIsg6MHwZZUEcdYCpzVUIo1FjJfNFA8AhHqZg0/eCrGhx88gbu0koqMEfcA7bMlhNVmvcfioB0Ip86D4CU0yUT1GQsbaYjv3Gjij15ewfWmRkj0R85CBJgig0HrTpXIMjgl94BKW9zmBVDQS8Dy0DaGMwphuorZ6CaeuHsRHztzGqejQJS2rNGImE7DSl+s9c2NiDKcnDQcYKXroA2YXVlst7pQ8f6Rtb4LnsgYq8KuvFD10MoCE2SBQaGEzkI4ZK7s8RzraBhIirr1RD8W7LMGIWo+RSBJmXyGiyrE99cT/M2z53FzrY5U1fyyG1BcL5O1gWuyPJPru6wVXUXEQT1DICLy/IqgxEJFDs2bAWpRhk89vIifODWLunDcKLGcgSI9tlQIyhMb/XpzkNb8KQQInqwiaocEAC7AJaXwxVeu4FtvJcgwAwSJhAs6SDQfLOWBIU8hQmQ9BoKNvGoTq3UFIKBgrgNvSlAPDB5YnMX7T8/j0cMxFkKHmlXQfABDE1Lxyw8OFvOoAMIWFsdbEaT8jOt94K0AxaDPbKFJ1a2VBQ6MBfrnV//cuNVcGjb3dniOFQABzBQwDiR7Z9yIgwApax5AYS0B3riR4LsXVvDS6ipuMENNzyFIYgECPgvBJyYIQOgQzIssN5/yPugiD417gFMtuCCCacVYUk28+4TGTzx0CicVyzl7LzG5CjyEdgECw8552mQFECZh6pCQ6DvaIkFiM7zZ0vjSMyt4acOgxU4U4Qt/mqfoUj+qKwCCRLXkWUyZNOIhKFImw0DDJBomqEEhQ6xW8aEzdTx57wkcCUPUU4s6XVlErcVVeRDGGyCDFqZxfzfeN1R3VRa4sy0w7nzapXDBVoxfAIQNZSU0QCX9kBp3gcKqVni12cLXXr+M5y42YV1N/MiWe7os2CEsl3E58QFc9jsAIQ8HE+f41xwMELw3mX9rSvpcmCr86L0L+Mj9CziiFGJmxIl4HsMWsknAlsBTJxRSAYStdPvu3csYEQdJolLMIENq63jmpsUfPvUGrgY1kKIihTak333Vxs5Fx0PuQWB6jC/8RTDhY1a+7LNFK0wRmhgWMWwrQTgfIdi4iMfma/iBsydwz0KIhTDAchT6PFzL+h3UYfQVwDzIHsfN3Tto/U/553fPhJP15KFkw3xSj2XHyXqlqjWVBSbKAvs6x7y31y9rcrb3OgPFv3MdA6oROtLHMuBakGGl7fDctQa+/uY5XHNz0POHka43oKJI1tssM6hx72aCO+lpVFOU9dvr4sjh0Bdv9mtxOb0xPziyDUYlUKzF44BFl+GJ+w7hR08t4Wjk5fxFPEn0dRhSpkCf4v/3V192xHhr/kSNjKGNmcIQg38XIZHIJm+gWEDDxEisxstNg78/dxVPXUvQzrSU3WQsiwQXpqMQaXZ1DbiBc0P3ZTkFZfqf5AdHxa1O6koAYwg06E5SmIvbOFo3uHtuAU/etYyTM1aYrahZ+iKgJCbFVEjf1oLAUgyeov3yVSLS4WGBJ+56xUd+z4HaF4fFNcu/n4DTzHRM3aqVlQUGWGDX5lj3EFOkcpc1X4pCSZtbxIU1D+Fa8sO8wq0vhkw3PXVufLiWSocryuLtRobnL6/hlSvruJkFWEkVMk3yuV/zO7BC6utQQr8NRS6YNsI7YK2F7nprZT2VLAOlJDwgBR7T2Ff5DRLhq9ksgTYBTtcVfuSh43j3kQiLDFXkBfsEcJBqVnpBgoniOkigoNyHBwAgEN0JwwRp4JC6dbyeavy3F2/i5StrMOEcWYWw5J+oUAZHTy+LdoE3CZEnhx/1FKToh+Imn7sbSHxRHiRkSKGCEHUdo7G2ghP1AI8cj/HB+07hWKRwmB4oEmp0BB3qHFiQ3NJVfeRzOoOLxJjcR9UDEHzi5MFZB4e5PPsrMOYA7eC8ePUmlQX2yAJ7MMf6AUKHP1B6xZwplvMCKHkvaQl+nWU1XqO9F9dZ0TC4CIM3mg1885WruHglQbNVR6seShhBc90mN4EERmeloB5Pfgwhy+vaLFdIdDAmk99pTTEkWc29CmLOF9M6kt9lIqzLNjRRm02QNjdwsl7HLzx2Eo8shIhFHZFCSf5A6b0PXI276/FBDSscMIDg+YUcgUEawIUKiXKSAvP5b7yMlxs1GLWEVN0UuWVxD4k4kh+whStKBoJ4DXKyoQAGn5ngRTA4IL1PiVreaStE6CLUZjKYuAkkDcwjw0NHjuOxwzO4ZynGQhyhHlCbG6Kl4Pc9sh5IiSmY+P47vYaCbxMFOIQzKRvn8PKje7TkbO9rCi9i/6flhCOW8H/xL911PcqP44Rlttes/f1UP9g7qO+5v1bel28flSmwWw3qn0t+QnU9+OU5VsypbXvoSmNVNnu/HnrdAi9tKO59f8YSIgBF5aQejtTE4RRPJbMsQ4wkqOFqanGl2cbbq028dKmB82uGygawzCjTEQzi3AurYOm9JTlAnu05AOLp59pceF5lHWFbeB/RATd0HvbytgdURiAJnfelyJzoICLGOt5zeBYfvmcR9y/VEQWRrL2az87tdRBTGMcZllPvQTB5TIsDUFMcQbSzHdIoxEs32/izl67h5Y0IJm7BJi0ENkbgFnwJaKopbqPyloBWE0nIQhitui3PczZFyPCDSrFcs7jr8BzuW5rDQ/OzOBqHiOiFoHdC++yHYpM0VIAs9ENFDpRD2Me+esKGMvsGXBJsG6e7S/d4RNT9RfkZ/X8rP9oH9nzbS+3pb5mwiovNvvzHzgKS/7JzX2GOYjIP3zxHbatlM2xqU/Ee475rsdgO4JKMZ+68X4qb++3Q0XXLeTCDurCvz4cqdQ4bA6P6eVT/berz/Bf9Y7Cz4RQfGNA7fW0jx2fYOB423of2pejld582zNU76BuLj5Vt6rFqCbyWO3qEvYpGyO3F/OC/h71r31TsNXdpjpWwdFcGsAyuBwNq2diKzKrOnM3vHQrAS+vICJAeGGYXsPSx5235HZqufActaYL8Ld3/rKnLGgiBVDrkAe5mZnCxmeL5Czfw2loLVzOLlnAJ6nBmBgG1bMImMiomOnp/CTJIAqdaLUWJ/LpZ7PlinpzeIERDqdSbSZVGCH/MKxzKYZCS/NZIooSAmxBYsOv40NljePLELE7PGA8gpH5P7witAMIW95f9vr3DQVCFvDFLfXIk0CsAJK4FHcR4NVX40qtv4aXVFO20BpNyBDH+5PypfhuHOLIMislH1MyxRJcWJ0gURoJ20yxFaA1is4Fjs8A7Tx/FibkaDtU0QpPgeD1GPQ6hmXOrNDQHcJbk+bwaWspR96ZM9kqP9g3gbbxIj7us9Hk/NwZvgbJ45ieXzh25GQtTeu9M+b6ykUuLX3kxllu69/lFe3AbKJk6ECdJmmn3L+X7xA/T+VtvvfZhdvUnDf8hWXBLO5EsRre8+r6nJALT7yUZVkG+t4/6bFR2d47o/+H9XHKX5gtt0fM9C3DPs3utVQbYo/qs/H5lDlDPxti3KZW/qdyXMjK22Jc0VYlTlnsQ/bf3234se5WWDjkw5H0hmv2l9xg1Z/uHT9EbhYR74WnrGe4dr0H+6R4PXGnsCyM/98xJ/NwbbGQf9RyWcl2XAWPcF76jC56ZXzQE/1e2ZVjrM7o2UmA9zbABjWvNBFdMC9dvGLx1pY2VFnPPFGxE+XpfP4etpXc3RYwgoFARyzB7kCEFlGST57O7B6uiaWWA4IsmpSQ2wBEgKI2QaooCYFLhlVGrWWchjsQpPnh6Fj983wkctm3xGBRhhf7XrgDCLRe7ybqhAAisuCikFaJXDh5hpnImtJG5FO1AoWUifPNiG3/10nVc5yCbmQOlGHVOA9jKJKYVGENzri0DjqVALRUWVSyDmkSbYkLbwEJLMalM0G8YOrTXN1DPgAdOLGMuVqiHwHwUYnFGY05ZRIFDLQwxE8fQiryHLkgox7x6FtbefWPsjio/r7wh+A1x8GM69xULpD8y5Qtt/hlJASoWMP/37n5aKnCVE3+Kb+LCWNwnC8+Qa9je3P+JPljSeZoHMN2HD3tXWRTK63BpQx7PgzAcsPR/vt/+5cWvbIaOp7hrdr/wjwAsw/q5/72H2qvvD+UfRSSsQ64dbpVhwK1nHHuucOfqifH2jYWebyoiVMXhfYxx0/M9pRfqH3b9J9VOv/R9xzDAOGxs9Tex/306RhWveRmc5o29RcigA8L61P0kZDrEPkVf3qo/rQnQzgxaqcGGy9C0Ds0UaPC/ZoK2MbjWSnFpbQ0Nk4nGUa2+KNoyJBUSTPAsp7SvYUDwQt6Xn5Y85XvhOZ926EncIoNPXQRZ43shXS9AcFA2FaE7Es+CmoKOyB1LEVAhMXOY1xnedaSG9585ggfnI8yJCi7twpADD5ybw7oVQBi6HE/2H3rcg6WmMh1FkL3PfWFZD3z5/FX81Ws3sGF9WqLRdZHkZAqLxKk8shj8wmUvfsHKzd2bAX1V+fDOLDd1CxVSdIPFRXwxD2p7E0Tw8STSKMNNk23MELmE0kzy9aHLMBsq1OI45z50lRl73KfSnnG3qcGvVJ5m43onivs8cad7Jisigb5ORZc5ISTLnh05v6Gw9JCNbdxTXc8G02eP8U7lpd2lc8LabK9hz8q7vecDw8Zk+aZR7zfufbfTf/1vmPtJSrtz9589YY0+T8Vw74tf7otr2Kl8ZP/1hMB6Wzz6e/293XC7V9Erb/5bHe/yNttoz6a+lHZ0F5OuwNrmMGEnTJBPc5k5eZhdHHmFd6s0x+Secnghb0Bn3o4IHQzrZ/mskLYpRU9vQYRGo4EkTWRdNUEIFdQZtIWRQ1EIhk1ZQdcnfLNODtVpisaIOwAqiESUiOEIStk71k+wOi+3bEW0qGc9luVZkg4ljOz5YeQi+FRGf6iQ+AFcylBBKIqIJsgQoQXXSHBoZh5P3jOHHz5ZwyI9t3xGFCIseWvL/XxQsxPG3dWnloPQGWtDTpr+YOtnFv9vZjJshBpPX2viqy9exyutGFazapeRQUrk6qm2uRpXvzRnH0Dw1afpUiOrtrsQmk5VL05Usmf9hugs83Y5aD25h+CBmQtSOSwvJsq2EjIYSyYuJ2ROqOlM8oHr97h9PWjX6y7iI07sg75A3njAQtR/Cu2cLwssI78obxzbb/5OfbLnNLmNh97u57fxlVv7SGdTGJ+rMgnvtK02lN37+ZjuLPJbHOP9Rt5We3oRgt/hJa7uL9nwi1ylvvZ151h3zsg5ptQQLzgvK0x3Ly15dQYNlGHHiqFOqPwPXcDlAQA9Dpp1bOR9KFfvaxNIFpiI1XH98iWWkfkwgRDBydgSDyQFDAI4iR/RS+ApjfQyMKzABHS/xpbCHVIUSUso1gOEPPVcuFv+80L6Fl0bpju2xGCxbeBoFOMnHz3l1XAzC8XDYxSirfn3kqe2NIYqgDDOcWdry9Ge3j2s+aLBXY7BCRDI0DQxzq1n+McL6/j+lZtYyxySKAKj/gHVuEgOFPlkur0GZxAU7m+lOSj9tl5cPl2RaJYLAf/zoMPXIuePDmEo/gLhKcrEokcjj5DSvVUoP8qz2KgCIJQWkM673Za1x1vyCqawX9ByCVPhJeV5yeUJJe3J04LKp83u6jKW36OXjNcHKoYs9L4ZJfAx9L7epXAo8a9s2xGu2f49YKwsjD4P0LCFqH9898S3y+NhxMmwz3E/dMQMm0vDvrMYDwMf2GevUc/ozp3h/bIdG/vso/zkLx7r7ngftfAPGw+jlspxNpJyVKAzp+TA0KH1dOd6MZKLQ04J5HWAQykJ2ifgDQbePfNixDjuf4fifYvPd37ODzQ51pHSy9zcuSZJNqJ4SIqsLx5/qEabyxXJoiduVC82JOtlIpu4Xw/J5WIlReMPb7nYUSF05KsmUt+Gb5zIAcsxGyHI12xKM1MJkX+3FjWT4MhMgEeP1fC+U0dwTw2YEUQVSnq8U17K2Sc0+mus9eC21t3p+fDUexCGr3b9f+HINXDMqXWpiCp9fT3BX7/wFs4RZGIWLgFUqKEVtQ4yuKzmswmYepivLbKRd3gyftP3g9xfUttBBisHuk+zyeWPOouV5PQK0THfTCWmVpy1iYK9m4yD3osmdYZu6d9D8f4WRt+tAYLMpbydOaDP84FzgnYeQ+xfwMVzUixqY7o1e57R93rlvX7Y4/rxwNCv3XSQHs8Ow3iA/ntv/Yz+junxWA851vW/wzA7jD4cj9e23vYM/syo9gzrv3H7ZfM7DN/Qh73voE28OwzLm8DwaTK8X3ptMk7/bf6W3qwLWTM6ZN1eL4A/auRJAoVXII+Pb/bgjS5G1LXXMP+BtKSnuWVAU3JP5Dwvf28Px0I8or195jd4iEKhP68xsJqvmZ2MzJLnNj/5ewUDlnTmB71yIXVkeMjjwYkVe70gUgSrA4R0SaANVVewiUGWpjgcNPHk2eN4/OQSzsyw2K8BdRD4HMokc2UVc+ZL+hYWzjvm1oMLEEZ0IZm2bZdhI4hxrpHgm+du4KlL62hQTSlk7q2DzVitizUYmLPgXWj+ZO/jcP7yA7d8yj9oI6cnRFB233YAkV8Qinho8f6dzx0sqafeBTT/adSSe9DGQ/U+O2+Bao4NtqlPb6R1GE/wxfMCRW8D0x1JcIwQuBhGOwQZvUU8WjVxCE3ctbiA95+axXuOzmGBYvma/K9uhsk4Hp+d7+npe+IdCRC40beRIHaRCHesOoenbrbw5ZfP40JDoWVnUA8jtOg2Y2ZCR2jDE29kcMnvDiZA4Jt1YqSy+3tvwNDY5YC/F2eRg7Z5dt27pck+wjbTtyRULd4LC1RzbIQHp7PmFPlPnk/A8Kyi/D19rHRJkPvFkKyhaF0I1U5wbN7gyXvquP/4UZyMLBZ0y3MNghjGhNA6HLM+zl6Mgsn/jjsOIHiCjIVK28JeZSGnMEuRhHW83Hb4Hy9fxgvXDZrWwmhmEigEJBfa0Nd90OTq5iJAnkrckRCd/O6+dQv7N/ayK3MkQBB/44ESht5krI4DtkTO9CpyB//dbz1yqjvGtcDAOeYH0WgQfqfMsYJ3kYvJkcPAkCWjCKGkP1qYiJ5cMrlamFUNxFmK95w8hifvPYXTOpFQApdn46jb6IWdAkReSbe6xrbAHQcQaBmCgoJUwHxc8ZwbiywDbroArzRaeGHlJt64muLtRhuZmgFpLFmQQbsITuqV51Uf5bTdJRKObfkJu7Fn8ystRMMAQnmRK0cuD5rHoNxNg2zR41E44ABpwobs1DWnf4510xQHe+nulDnmyaR5nRrjOVgM4xryuKxBSEmDjDLNBAUszkDFwwDzWYIHj9Zw/3KAs/PzuHs2xqJmnQZyE0Ruqie3tSQpkwsuTd0Q2vMG35EAwWuD+zoMmeiJM4xA4osnMrIgCLkrb7UCfOWNC/j6pRUkKkQYLyJoR0hTkmBV7q4i4KBg0nRePfHPvlfgAta/AXZukVO0IIn87LN1tedJt1jZDezfdHi4xeee90pCTfr7Ve3bGwsMnWOljKCSaEO3UXfAHPNTqg8gkOulFYyK4QwVaVtSsTEMYzSzFDXVwql5jY8/eC8eW6pjQTmYNJPieIFmhpgvyUwCZZiVji8h52hxhKk8CeOM/jsSIIjEUF4LXAqOCjjwYJPggIOMtEQqid80EV64sYbnLq3j1ettXCE6YOlRUOAjZ8GK28pvJ35LzbUUSjJs3Sy/YsD2p1CWz+HjdN3O3NPJn843+14AUGz+ZXZ1maBwcEMKxZv1aUDm5tnsDi7bsfyZneml6inTbIGDNsdGiV55ED1gXRgoKelDtbJq5umo1KBjFEGSt8gzMBl0aqGdwdJCgNMzIX7grkM4e3geJ5QF93yhgon0sw/55knknSyxYuz4bJHiqgDCOHPqDgUIMorz0y/DA/lmndcNLyQMtBVnF+gfuJE6nG8a/NPKdTx96SoabYqFzAI6Rip5OyxLSgEPViNj8SYO2Vg0wbOMGRB0e4W+pLSM1EZ3L5Z/yYzwaU1dX2SuozBOV457T3eK+Gm8OYY+yG0+CArs/EZY1lnf7bDNMECWv1U3rzXPL+f9efltGTqF+r63e9e7sF9ehEkM9JSd5OOOz63e5/ule40aN3tvox7vQSkEtXmO5S5xeZF8QcmPHFu1yK3v344dyifx0uGGO7ko0ZJA6MXhfMZBr6ITtRLE25iDB1ZmlLoIziKOI2RSQcnB2RoCpqIjgbYtxDbB0brCw6eP49HlWZylLH2sJLOM+rV5DpW8sl/R++Z16Ucvnb4/B7Fb98lk3nEHA4SiQ/JNUlxdfvCIvpHUXPCeBfEuKIfEWNx0DpdTi1cvr+O1a02cX13Hup1FqmJkKkJG2WSloDlJrJdT9pXEurwH73mY74wI0U4oCQkVPJpRuunbGU6DloViAevf7EdteN5XshvXdhaunW1HZ0HvrDhlaOT/2gFWPUI1+QdEF6NahHa2V0Y9rd/WuzMyx32f4XNs85zp9Tr16p3s3hwb902G3ydVFfOLBZu4dvi1ivLIJWXDkoCcI39AQAOllP1RnuJKFEyySYIwrInyolEJZrIEJ2Lg7qVZPHRiEffOOxyOgMjFCDILxCQbbn2rr1Ibt973FUDoYE+/9Bf43WN4i5BpjuQwBiz2QeKMr6BgoNF0DtdbDbx4tYlXVjZwoZHhWjtDZmfgdB2BJiL2IQyoFIrPEBElIM2WOr2l5MsIJLKijHkXPAyoXraVbu4uWAUQysVZeZopip4UiiwlPkH/crbz3oJBb9G/uO/SRks/Zo/uXCmts0eYqmij16nrjpDOcaVPXKabHLrn21T+Tr7F/lS3r1dPe/ypcveusrWHvLe4uIuTb5GmvDM26p1j5bfsC9HJjV3OzuY51vvZXbHXtvqFp6SSWmxW1J7JZ0QhoUwPAD0Fci99r91+UY5pit4hyiCAgAPFw1QGnbRxrF7H8Xoddx8NcXqxjtMzszisfCC3KKCUaYtYNJYDCQNX1+5boAIIA2xcqLHJ8O5UmOPoNvDxhFDYtCLHHDg0A4MNo3CzleENk+Cf3ryCV29maDG7xhJhR1I7ncQZqa7ggIw8B5sicBky6pkHAUKRJqeWuZWCJYEsqqXFL69uxmb57X70NtSz/JVT80RilKCnICECuqx82AFNfmO0VDDL7SSKaAO+1nsWu9/oQU/fpjrI1tsY48OW9a1syuVnlE9rBVbqYKY8BEMblCv2hcX79avgCYCcrIuF7YrLu4G33z7aoeylZdGx27k4ZjoyI+Jl7j5v1PY97Fupqldc4v0rzZlxxk0RXsynvrjNB433/u9REjgvqYeWtEE639uTHlvM4kJneTw+zzAfW7ndfLK+zUFYfh6L2ZW3Y5Z15tqlFOXrmVnA2gc+m8tI3YVZqICKtBmMMQijEAllanlgQiq/WwwUTiHDYycXcfb4LJZ0hEXNLIQEmuWZA4Usl8vXVD10AUJWmQ4D2NBLLVfX7lugAggjAIJM4U5lQoYbfMhBdoAijSZPm8wUkDBUAIcWFDag8NbVNVxqZHj92jourFKaqYYsqCFl9TJ7059idYBUBnsEretQARXCqC/u/RTlxbgE4jsZBKOGSI+7vM8dznfRnXggkPkZ7q987knBFaqjSy6o/zPfc9il881CTFRaqEuP3PTR7Wwv4yz049slDyEVUrZ9HyxsyH7nIlVctEOxpHc23AkEB2yvgJl8nyuDhe0sL9wIywDD9PXzVp9Zfp5UAy4t/Nvp52IMsh3beR6/s9hcJdQ4pBFFuwVcskhQyH91N/ny3Cuoyx2+T98cG0SIvfX47cUt5Xbzs6Pm6Th9xD6Ww0C+BpbBP0/+ZAHQK5Ay44vEbh46DCXpNULCCZMJlyAGsxCYgWBweDbG6aVZHJuv4eyhBRyvKSyqADVfeUnSx43O5Fmh8BBY9KlTJ1bSHCNWYOzI1I/zJtU9t2OBCiAMsF5Zz70DEEpVi5kO6ZeD/ATOySAEJFJvlAh88WKGRBsOq6nFagrcaAFXNxI0TYCLjXWst9rYaCeiopBajcSQw6CQBRaZsr7GQ/lE1eNJ7Z68yq9QrGedE/Amsp2/mwucnI7yBVk2jtK9BUrgZJX67DlAIFYYxPPxp7VuS6Q4Wt6YUSfW7XjCb+d5nbhvsUjTXVkIs7AP+zYE+bEgYJU2ANqr8DyIHUsHze280+1M4pGfLS30MiaH9N+43+89Q6V+vk1Pb/l5Ob+t8/Dt9DOpPsXV87wiK3fQfC/1uQeC3f4UgDBgTPTagV62wttY9mD4B23SOyjGXgeJ5184ho5G2SaFh1Pmc59n6HaBYNkOXg+u+16xbQtA4Fatc6Dsy82ROBjg0Ewdywsh5kkoDIHleoy5mQCLUYilUCMOAMV0RArWse1S4NJXYhSqJgvaUctAatZ4rwz7oU0wwe/NOQzjjtnqvu1boAIIYwAETsScv55LInlPQWft4EC2rA6m4KJMyIn0BLCaA0MGTNEByTWBFkycsJJZvY7UeR2GjCGHYvFOHSir0GI0o29Ro2BIZ/Hr83x2p2/XOd69ueT6zH/JCZcWq00QIC45KzrrvxRiYjik+/TIk403XZzKRWhS8o/Lzo9RboLteAqHPW/cZ/W7euV53m4DAQLfLXAwpRBKrUyWL7Vn2Oe3P0Vv75NsWpJv4jQPvQnFBridJ/NkWqqMi/FAtbwAAAaVSURBVLjLV9vO4+SkWzyPJ/ce1/g2+jkphce38zyZF/k8o51or83DysmcKLwLHO8RJ/Egt3eJfDzQQLf6+6B53ufpK4Bf2WvQMz630TMEGIWEAD0JnPfF1a4x2moQaYV6QN8nEIdKyjPT/KExULYNGyjEgULEEKpKKDEjxfIYajUmhbUKOvR1FGVN6RAdeUhyUG0CCBZpUhIStYoAIq/OuY13qj6ydQtUAGFMm40qAdpbFro0k/zxU77B10X3bF9qimvtlcO6z/U/81mSMkTZLzlR3NoJ3/macom7QWX3+n/XWfnyOGjJFvnZZ9OiV3qlzZYbVt6uw+MY8JFbv96mDw07oY9s24h+9jbuja37PhsQf+4tcSdP3en2jDkkx79te2UHBz9/3HKO47ZuxPO2ZdfbHYPS6SVIUJ5TPfPLhxk7V1G2cKux8U28hM2GG9sOu9jPPetQzuvgekU+Af9X1qsibTp/hSIrTACMIUk7EM+BpDMSLcixi1yu3I4ECEPsUSgtjjusqvt2xgIVQBjTjmUQ0D9Ye0rM9vgAu/7JPAkoLxTiST2i69E5vfqGdGuw+0VqnENx5/v7N69BC0Y5xluuztgTyui6PPvNM/xQ17vB9pfdHfYe28AHI23S87xRi+8oAuUoPkLxt9sk04057HbktnJ616ByyFv5kv5UsZ18Xg8IHwnohv9xVPvGGYM+Fa+87xfxht450cXW/l/S9jG8AT2AQib4rWf4WO3ue87t9otvWv7NfWuUyVVoZWOXd87hQyFbLwZhYlZ3NhIQyPPkmXQvEiD4IkyQEs/+8vhs8BtXaYpbmak7c28FELZgx/7Ne/BHh9CHJSBa+oRMlvzn/ABbSI72PHfcHbTzrNIHbgEQRLKsuEruc7/iDTHMqPWseJ7govIqO8LIt14fN394nLaN8qYUTywARPl5/aCi3EflZ5btNU57tjDOdvzWYf2ynS+SjbD0wf5xs9Vn5q5lvzv0eXFGjf1h46Y8psd9Xv+zbmWvAgzIvM3b3EX7Y236WzLTOONrt/ul3GA52PjTvp/qxcbvwUKx1Xvs4E9CQc/BiaHLQi6x1/gVCNjSyNj1myuAsOsm3qUvGHQ6Lp9gtnKa2aUm7utjO5v/cG9IT1paGTQUm9W+vkD15ftugWqOje6Cao7t+xDd7QZUAGG3Lbxbz99EtBuwEd7pIEE8IdsACGO4fXerW6vnTpAFqjk2vDPKtqnm2AQN2p1tSgUQdtaeu/e0QYvVqBDCOC723Wvt3j15HBA07J5BHpfKe7B3fTdp31TNscE9Us2xSRupe9aeCiDsmalv84sGTdJhJ5ziqw7ySXirAGiQu7gKK9zmoDxgH6/mWG+HVnPsgA3wrb9OBRC2brO9+cSw00y/a29QmthBBgblTX0r7znOKWhverb6lkmxQDXHRvfEKFA96JPVHJuUkb1j7agAwo6Zcocf1D/ZBsX87mR3+FYXL9pqO5/Z4W6tHjdBFqjm2M4ChGqOTdDg3pmmVABhZ+y4O08ZFCPv1zq4U0HCMP7AKHtUJ5zdGafT/NRqjg3vvWqOTfPI3pG2VwBhR8y4iw8pxwH7N7874UQ8DndgkPmHhR/uBJvt4nA8kI+u5thw7YZ+25QHQDXHDuR06OlitxOSWwfeTPv8glslC+1zc3fs68d570EbfgUCdqwL7pgHjTPWDqIxbvXew7xu1Rw7iKNh0ztVHoRp6eY7zT0+yvV7qz6rFq9bWaj6+yAL3KlzbByvQL+9qjl2R8yhCiDcEd085S+51YW7WrymvMOr5u+5Bao5tucmn4YvrADCNPTSQW/jOIvTOJv+rdylB92O1ftVFhhmgZ2eY1tJMa56ZWotUAGEqe26A9TwcTf2cQiL1cJ1gAZG9So7ZoFxAAK/rJpjO2byg/CgCiAchF6c9nfYCkDgu1YgYNp7vGr/XlugmmN7bfED8X0VQDgQ3TjlL1GcWm51yhl3kZtyc1TNryyw4xao5tiOm/ROeGAFEO6EXt7vd7zVxl52a44LEiovwn73avX9k2SBao5NUm8cmLZUAOHAdOWEvkh54SqaOKp+RP/9FRCY0I6tmjUxFqjm2MR0xUFrSAUQDlqPTtL7DPIGDPtdJSE9ST1XtWVaLFDNsWnpqalsZwUQprLbpqTRw8IF/UzpQScgvmLlPZiSjq6auW8WqObYvpn+TvjiCiDcCb28X+84ik8wiHdQBgW34iLs1ztV31tZYJIsUM2xSeqNA9eW/x+LS7a13mVnggAAAABJRU5ErkJggg==;" vertex="1" parent="1">
          <mxGeometry x="-171.94" y="974" width="162.87" height="109" as="geometry" />
        </mxCell>
        <mxCell id="0i12CGgEhQ5gCEq3Bswk-106" value="" style="shape=image;verticalLabelPosition=bottom;labelBackgroundColor=default;verticalAlign=top;aspect=fixed;imageAspect=0;image=data:image/png,iVBORw0KGgoAAAANSUhEUgAAALwAAAC/CAYAAABE3bYFAAAgAElEQVR4nO2dd3wb5f3HP3enbckalpdsx3ESZzKyd4CQASGTslegrACFQvmxR5mlhVIKhdKmZSQUwipkA4FASMhqICGL7GXH27JlWdbW3f3+kO1I1p329r1fL4MjnU+PpM89932+z3cQLMuyEBDoJZCpHoCAQDIRBC/QqxAEL9CrEAQv0KsQBC/QqxClegCZjpNmcbrdjSqzG9XtbtRaPDDaGZgcHpjsDMwOGjY3A6fb6wxzuFkwDAuSJCATEwAAqZiAQkxCLaOglZPQyijo5RRKVCL0yRWjXC1GWa4YUopI5VvNCgjBLRk+VWY3fm504lCL9+doiwuNZk/SXr9QLUJlngSD86QYqpfi3AIpytXipL1+NiAIngeGBfY2ObCjzoHtdTbsqXfCbKNTPawA1AoK5xZLMd6gwFiDDOcUyEAKNwJeBMH7YLTT2FhlxXfVdmytssFiTz+Bh0IlpzCxXIEL+8hxfnkO9HIq1UNKK3q94FvsNL443oFVRzuwu8aObPo0CAIYXirH3EolZvdXIk8Qf+8UvJNm8eVxKz45aMZPpx1gmOz/CEiSwOgyGa4eqsbF/XIg6aUL4F4l+OMmF5bsM2PVIQusDibVw0kZuQoKCwarcO2wXAzQSlI9nKTSKwS/ucaOxT+bsP2ULatMlngwoUKBRSO0mFwqT/VQkkLWCp5hgTXHOvCPnSYcbXKmejhpT2WBFItGajGvUpnVXp6sFPyXx614+X8tqDK6Uj2UjKNcL8H/jcvDJf1zUj2UhJBVgt9QZcNL21qEGT0ODCiQ4OEJekwtV6R6KHElKwR/ss2Fp34wYutJW6qHknVMqFDg2Sl6VGiyY3Gb0YK3uhm8/L9WLNtjBk1n7NtIeyiKwLXnqvF/Y3VQSjI73jBjBb/+pBVPfN8MoyV5sSy9Hb1KhOcvyMf0isy17zNO8M02Gr//wYhvDltSPZRey4xBKjw7RY98Rebt3GaU4L85acXD3zahPQ2DuHobuQoKL04rwIwMm+0zQvAOD4unNhvx2V5zqoci0IPLzlHj6cl6yEWZ4bxPe8EfaXVh0Rf1ON3qTvVQBHgo04mx+JJiDNSlvycnrQW/+mgHHlnfBKe798a9ZApSMYk/TS/A3EplqocSlLQUvIdh8cLWFry3qy3VQxGIkIUjNXhsYh5EaRqfkHaCb3cyWPRlPX6stqd6KAJRMqaPHItnFSNXmn4++7QSfK3Fg+tX1gr2ehZQnifBe/MMKFGlV52AtBH8AaMTC1fWoc0quByzBU0OhffmGzBUL031ULpJC8HvbHDg1yvrYHMKi9NsQyEl8e58A0YVyVI9FABpUIhpW60dC1cIYs9WbE4GC1fUYUtNeqzJUjrDb6iy4a619XB7Un6TEUgwYhGBN2cXpzzcOGWC31Zrx80r67JS7GIRgSGFUgzWSzFIJ0GfXDEKcyhopBQUndGGLpqF3c2gzUnD5GBQ3e7GMZMLB5qdONDohMudnZ/LW/MMmJTCdMKUCH5ngwMLV9TB6coeM6ZEK8bM/kpMK1dgVLEM4hj80B6GxZ4mJ749ZcW6E9asytySSki8tyB1Nn3SBX/Q6MSVn9XCngU2u1RCYv4QFa4Zmouz8xPniTjS6sIHv7RjxcH2rKi2IJeS+OSyEgxJgfcmqYKv7/Bg/ic1aO3I7Bh2lZzCLSM1uPFsNVRJTIiwuVl88IsZi3eaMt59q1OKsPLKUhQrk+unT5rg250MLv2sJqNvz2IRgRtHaHDPaC1yxKlzcDk8LN7Z24a/7zBltFlYrpdg+WWlSd2RTYrgaRa4cXUdtp/K3JzTseVyvDi1AGW56VOtt9FK47GNTdh4zJrqoUTNuL5yvDe3BMkqhJYUwT+72ZixgWBiEYFHpuhx49nqiP+WYYHT7W6caPN6YIx2GhYXAzfNQkwRUIpJ5MlJlKjEqNSK0V8riSroasWRDjy5oSlj10U3jNTgqcn6pLxWwgW/6mgH7v+yIZEvkTCKNWL865KiiBZXp8wurDthxZYaO36utcPuCv/jFYsIDDfIMLFUgZkVCgzKC/91q8xu3Lq2Hicz1GR8ZVYR5iUhtDihgj/S6sKlH9dkZDz78FIZ3pptgCYM+9LuYfHfQ+349KAFB+odcRtDZYEUlw9R4aohuWFVC7C5Wdz9dT02Hc8801EqJrH8qtKEJ5EkTPB2D4tLPqrOyMjHyf0UWDyrOGSLGaubwVu727BktzmhteRzZCRuOFeDW4drQl6ANAs8+n0TPt/XnrDxJIoynRhfXN0noemCCRP8w983Z2QO6vSBSrwxszCkLb3mWAee2dQMU0fy3INyKYmHJuXh+rPUCDY6FsDjG5vxyZ7M+/wvO0eNFy/IT9j5EyL4b05acefq+nifNuGMKJPjg3mGoLXTjXYa969vTGmVs+GlMrw+syioD5sF8Lv1TVhzIPNm+jfnFGNmv8RUQ4i74JttNGZ+UJ1x7WLC8Qlvr7XjnnUNSZ3V+VDJKfz1okJc0Ic/GMtFs7huVR1+Pp0ekYrhopJT+Pq6PgmpexN3j//jG5syTuw5MhJL5wZPSfvwgBk3Lq9LC7EDgMVO47aVdVi6j99skVAE3rqkGMWa9Nk7CAeLncbjG5sScu64Cv6L41Z8dzTzNkFenF6IUhW/KP69uw1Prm8GnWatcVgWeG5DM177sZX3GLWUxBsXF4LKsBY33x21Ys2xjrifN26Ct7gYPJWgqzKRXHmut+cRH0v2tuHFTcYkjihyXt/Wijd2mnifP7dAhrvGapM4ovjwzKZmWOIcOhE3wb+yozVtbvfhkp8rwhMT+Xf4vj5hxR82prfYu3h1Sws+O8S/QL1rlBbleelfKMkXUweNl//Hf/eKhrgI/rjJhWW7M88F9sx5+VCIuW/1x0wu/G5dY0b1hHr822bsa+ZuBiEmCTx7fuLcfYnioz1mHDPFb/c4LoJ/erMx7ezbUIwok/O6vpw0i9981ZBxO8QemsXdXzXAyjPuSaVyTB+Y3pXBekIzLJ7ZHL+7bMyC/77ahm0Z2Hnj/rE63ude2t6C482ZGZNSa3Lj6R/4BfLweB3INK0Kxse2kzZsqIqPxmIW/J+2ZoaN68swgwwTSrjzKg8anfjPz5lnnvmyfH87fuKJ6anQSDAzw2Z5IH46i0nwa4914FhT5s2EvxnJ77F4erMxKzpzP/VDM/jexe3DNUkdSzw43uzC2ji4KaMWPMMCr8R5BZ0MVHIKF/bl3p3cVmvHziypaXm4wYn1J7n3RM4pkKJCn1keG8Crt1jnoqgFv+ZYB6paMm92nzEghzcw7PWfMu8CDkawDan5g1RJHEl8qGpxYdXR2Gb5qAX/9wwVx7xK7i/6ZJsLO6qyY3bv4lCDk9dNecXgXBCZtXYFAPxjZ2y6i0rwW2rsGenFUMkp3sXqxwezs0nahzzRkoU5FCoL0qfIabgcb3bFVLYvKsH/Yxf/NnY6M6pExpssvDbGW2W6su5oBzw8hu94nos/3YlFfxEL/pjJlbHVBybyfMHHTS7Ut8U/M2t8XwU+vaoUPy3qh/cvK8FZBv5qW3qVCH++qBDbb6vAtzeW49ejtXExOcw2Ghurub+vKWWZ2VZ++ylb1LuvEQv+g18yL6Ggi5E85d02J6Cy7fBSGZbONWBEoQwaKYnxJXJ8fGkJyjm8I2IRgWWXGnDpIBX0cgrlajEen5iH303Ki8tY+EyAMcXpUcI6GqLVYUSCd9EsVmSwrTtAy+2K29UQv8TrLu4cqQ0wn6QUgVuHB5b7mFmpRD9N4NhuOVcDaRwqm+2o4xa8UkJCq8y85sIAsOKgBS46ch9lRJ/mF8etGZfc0YVWSfFm/u/n8WTEAl/6XbEyMO6eL7NHShHIlcUu+BMtLl7/dV+eSSDdsdhpfHE88tyLiD7NTw5m7pZ7mZo/waMuAfb7z43cd409HI/zuQ6bbDSMltjrcLrcLOp56nlWZFg2lC8fH4hcj2FXsmyx0/jpdPxv/YlCKiZRkSfGIL0UZUoRxhi4F6zNNjohNepf32HC1D45MPg09TrS6sK7PwdWYNtZbcfywxZc6rMZ5KJZPLmxKW7hybUWN2eDsSsH50Iro1Dd7sGJVidOtbpBR2EqpIKdNQ4Y7TT08vDNsrAFv+ZYR1rHmJAkgXNLZJharsCUMgWG6qVh1Ss0OxNjohktHly0rBpXnpWLwXkSHGpxYdkeM+/F9eC6Rqw7acXUcgWarB6sOBzfnex2njJ8o4tlGO2zeHUzLPY0OrG1xobvq23YV+dI25wAhmGx9lhHRGUQw65acMXy2rTMfu+fL8FVQ3Mxf6AKeRFc6V3sbnTg8o9rEjCy9OLPFxX63UHCpdFK49ND7Vh+2JKWlZ9HlMnx6aUlYR8f1gzfbKOxO02aUnUxsUKBu0ZqY948cWbI7TtWOqJMZinMoXD3KC3uHqXF9lo7/vZTa1qFYOyusaPZRodd0iMswX9fbU2b29owgwxPTdbz+tQFuIlHRtr4EjnGl5RgV4MDL25vSYvIUpb16vOKwblhHR+Wl2ZDGlzRKjmF56bnY8XlpYLYU8zIIhk+XlCCly4qhCYn9X78SPQZcoZnWGBrVWprzUzqp8Ar0wqjstFpFqjprNHeavegw836LeBOWzKv2Gs07Kh3giT93Xg6GYU8OYVSlQglKjEizfz71SAVpvXNwWMbm7HuUOo2JLdUWcGwCGv8IRetuxocuPKT1CzqKJLA/ZN0uH2ENmjxUF/cDIstNXZsrrFje40Nx5pd8PQSOz0WJGIClflSTCiRY0qZAmMNkXUifG+/GS9sNKbss/7kyvDu/CEF/89dJry8uSVuAwsXlZzC4tlFGMvjP+/J3iYnPjrYjrWHLVnR6S7VqOQUZg1U4uohuTgnzDDi/c1O3LqmPi6bZZHywOQ83BEkdbOLkIK/eW1d0gvs5+eK8MECA2d8SU8219jx6o4W7K7JnE2xTGN4qQz3jc3D5DAaCjdaaVy7sjbpLszz+ivwzmxDyONCCn7kWyfRbkte/EyhWoRPflXKuSvoS43Fjcc3NmPLicwMVc5ERvWR44Xz89E/RPxNq4PBtStqkprgn6ugsOvWCu4nfSQe1Etzos2VVLHrlCIsW1ASVOwsvGbWjP9UC2JPMjur7bhk2Wm8sqMVwUx1nYzE+/NLUKZLXpxOu43GyTaOC8x3PieI4ILfm8QrVCohsXReMcqDBHm1OhgsXF2Hlze3JCT+RSA0NM3ize2tuGp5DZqCTIZ6OYVlC0qgisKzFi17euq1h9iBEDP8vubk2cUvTS8I2i3vRJsLcz+uzsgqZ9nI7hoHLvmwGnua+DVSrBThrbnFSSnVTQDYyzcWn9SxoII/aIx/nDgXN4zUYPYA/mpY+5qduOK/tWg0Z3bL+myjzUrj2s/rgmaMjSqS4aHJ8cnc4oLo/AGAQy2h9Rrchk9CB74KvQSPTuD/QA4anbj281qYk7iWEAgfp4vBrSvr8MNp/jvvzedqMK5v/BPGz8zbLMCyOBmGXnkF7/CwCfenkiSBv84o5G0iVt/hwY2r6jO2w3RvwUOzuOuLBk6LoNXBoMrswvPn5cclXRHwn9V9MVrcsIdY2/G6Q6rbEz+7K2UkFn1Rj5YOGoW5Ilw2WIVFI7WQUgScNIubVtehlSdTRyC9sDsZ/Hp1Pb64pg90MhIHjE48sbEZe2u9drWIIqCQknDG4Afxm9G5YIFqs+tMB3OC8C5cWTb0orXanHjBt9toNJo98NAsak1u/G1bK65aXgsnzeKpH4wZWeypN2O0eHDfNw3Y2+TEFZ/Wdosd8N4F4uPiZjv1Tvj/dAr6NJ9uO4Wf0hmei/11Dly3slbYOc1Qtp604bo6R2KbSfjYM6zvQ0Snbn1m9O5ZvhNewdcmwZQoz5Pg3rE6DNCKcdzkxqs/tqLK6IqL2AcWSnHPaB3K1SIcanHhtR2tqDUFXsQEAVwzXI3Z/ZVQSUgcbnHhn7tMMd9dKJLA9SPUmFmRA5WExEGjE2/ubONN2xtaLMOdI7UoV4tgcjD4/IgFK/cnrwaQiCJw8ygNLuqXA6eHxX8PW6JuX++75hrTR467RmnRX+NNc3xxW3R37m6Ns+gWc6BhQ3Dr1sctyRtacF+CuziXaMVYc1UZVD4LGbuHxZxPTscchzGwUIrll5dC6rMYNjsZXPxhNZrb/T+Q+ybl4e5R/kFHdg+LmcuqY6pG9uj5etxyrn8d9nYng4s4xtA/X4LVV5YFLN6f32LEkp2BSd+J4J9zizG9wr8FUKyBg9cMV+OZKfl+YbvtTgYzl1XzOkR6LkbZns91zt5coiUAzBmqwl+nFXQ+ELi05bXh2xyJneHvGKXxEzsAyEUE7hnN34omXO4bo/MTO+DtV3rriMBGADdxJADLRQQuqYytS8Y1QwPPmyslMXdgYF7pZYNzOT1V158VXhZPrAwukgaIHQBuHa5BThR1cQgCePg8PZ47Lz8gRj1XSuIWju8BCHQz+j/mC8sbLm6yB9ct77sxJtjvzRcJ2V8be/zFwDzucwzU+b+mVEzyFmcqjiGTRy4lebsDFnKcV8+Tj6mThV1UIiYG8exwi0gCZRHWrRGLCLw6qwi3BekyUpbrf84zbkbWPxyAax4nOH/tpsW3UBiH8cL7iVpS5PsWxWEXWkxyi7jnLMpzWEJJx4bYfA0iQj3XE6WMxFtzDX5lP7joCgHgPHP3YhPwCp4FAV8TpnMRSrAAiB7nYGFxsgELVV94Be8UgrMEIqBYI8Z784pRESKH4USbC//ZY+bxqZ9ZjBJd/2Y7Rd9pt3u9Mb6i9/kDNrRueQVvjXPLb4HsZXCRFEvnGkLmHO9qcODWNd6dc7+Z+YzCu+V/RtzgtGy8dwI24LFQuk2OkSiQtZw/IAd/n1kEWQhb9KsTVvzfuga43F6R+s3iPDunZ4wWr21P+HhnCJ//cvnl+eAVfNfABAT4uGa4Gk9PyQ+5Lnl7Txte3GQMMKv9ZnEevG73M6aNr9njS9dl43L3XPj6wyv4TGslL5A8CAJ4cLIet/O4F7tgATy7uRnv72rz2xL1X4R2Pthpkwc+539CguCy+s/8zjA+Jg2HH55X8BRFZEwVWYHkIRYReHlmYdD8BcBbwvC3X9fjuyPWTr9jl2mCbmED8F+IBjNtgjzffRTr3eFG9/kC4RW8RETALghewAeVnMK/5xSHdDuaHAxuXlOL/XWOHsIjvJ4Vn0VqINyzPJcT0h/vuSUSklfsQBDBp6G7WCCFFGvEWDqvOGTplCqzGzeuquuMWwpmnHvtk655u+cClms+55p+/a+d0KrlFbxCQsKWgs0nivTGTcdCpCXjBIIzuEiKJXMNwRsPsCx2NTpx25p6mG00t/S6ohgJBCxCexzI8zjPS/v8rgiRZMIreGk8tjyjYKBOgr2L+qXktQUCmdkvBzefownpdnTRLH7zZQNPzHunJH03j7oeJsAxy6P7t0iN6lC65b0cNEksryCQvtw1UhtS7IA3bOOB8WeiTrlCdwP+Sfgf2TOKJpoVpFoWXLe8gtfGoXucQBbSlTLHwWWDczmStf0FzXfpED7HxOIq0cmD65Zf8HJhE1YgCD1F3+kZeXFqIWR+dnTPJaWv7c6Xjh09oXTLK/g8YYYX4MHsZLyzMMdMX6Kk8LsJ3pwGv2e77gw+D/rGzcTLAR5Kt7zPloYoZirQC+AQdFW7B/M/OY2l+8y8x/z6HA2GGXx99YTPhO4/q8d7pyeUbnmfLVenpkOzycFg9bHYuklcNkiFHLFwh4oLPgnRuxocuH1NPcw2D17e2oqL+im9iTK+SdPwuoX/Mq0Ac5ad7m6QQCRQ5L70yQ2uW17Bl+WmZoZv6HDj2e+aYzrHtPIcQfDxhGXx9Ukb7lvXAHdnUKHTxeCRDU1YOtfAuZAdoJXgjjFavLG91XuKJA21NIRueVXRMw1LIPlQqb5mCQIgCLyzpw13r63rFnuXh3zrSRuWH7YEbuV3iv83o7Uo1yfXUghWfRoIIngpRSA/RbN8OiCOIRcvXpt2OWIyKZV3g/HsZiP+uKkFLANwzdPPbjJ680h9Rd/5u5gk8JdpBcFCW+JKfq4oIHm/J0HnkAF5qbHjk0WwBlwGZfR3OH2QBPBI6xOpU7wBuKvB0Vnoi9tT3mGn8fsfjN5/dN4RfBleKMMNIcKI40U4eg0q+MF54TWzylTcHhZ8Yf9nF0ijnpnOKeSPJrRzKN5J818Fw4vT6Tsg/H2Jnaw7ZMF3p/irBz84Pg+F6sRbC4PC0GtQwZ+dn04fdmJo5ilHopdTGNMnuhLPlw8KrD3TRQtHh8HGDv6SKHMG8J8rmXTr228WOKP6xzY0oYMnn1QuIvCnCwsSNrYuzglDr0EFP6Iw+wX/SzN/Ef3nzsuHMsINuMvPUQdttXnKHFhV7WSQwrVzBihx/oDAIkmp4IwxQwT4040WD17Yxl+lbEqZAvMTXFgqHL0G/TbLcsVp0Vo8kWyp5b8V99dKsPKqMkzupwhp3pTnSfDEBXr88YJ83mMYFtjfEHiB7ajl76BBEsA/Ly7CXeN1Se2XFC6+FuGne83YUcf/Xn4/SZ8wPWlyqLA8iyENq5EGGb47mtrW84lk/Qkrnpik543oKFeLsWSOARYXg71NTtRY3DDZaXhYb9m4IoUIQ/SSsD7s/9XZOTuZNLd7sLPBgVE8naTFJIH7x+pw7xgdDrc4cczkRrPNA1uEifZmF4M1hy0xN7rge1WWBR78tglfX9uH01uilpJ49oIC/HZtfUyvz8VIQ+gu3EAYgh9TLM9qwdea3PjquBWz+gc3G1QSEpNK5QCib93y6o+tvM+9/lMrlswJ3liXIoCheimGBmn+For7Rmtx5fJaHGlMTP+uWpMbr+xo5W1jdEn/HLxbJsfPp/nvBNEwpji87yWkgTq+JP69edKNZzY1w2hPbC3Nt/e0YWc1/5e8+UTnJk6CUUpIPDlZn9DXWLKzDQeCNMSb1S/+a5JwdRpS8GfnS6HmKfYZCx4eT1yoHj3hYOVxdltd3Oc2Wjy4fmVt0L6jsfDv3W340yZjyOMe+7YJX51I/N20p/uOz7sCcLtRQ0EzLB74tom3ebErzsUB1AoqbI9iWC6IyeWKmAbExZYa7sUi3+ORsJmno1ywBeqxJhdmLavG54ctvL75SDnZ5sK1K2s5ixBx4fawuHtNPZ7c1OxfBTfO9Gw+tqvODjfHm26y0TjVEl2N/CONTry50xTwOM0Cq452RHVOPiLRJ/X0008/HeogJw18fSy+g9zb6MSEMgUMyjPLiD1NDjz+XXPQHdBw2NXowIV9FdArzpx7W60dz280ggkyYTndLL45bsV/j1jQ7mSgEJPIk1MgI9iBctIs1p+y4c/bW/D8phbUcHQdCcX+BieW7jVjn9EJgECxUhS3cAWzk8G93zSixXrmgrI5GZjcDC4oz+levDtpFnd/3YDqKMbfxY+1DuiVFIbpZSAI7533ke+b495cetFoHQaHGRXA2wHEF5ODwfi3Tsa9GhlJErhwQA4GaCU4aXZj/dGOuBV/ElEEplcq0VctxsEWJzYdt4Y1y3Kdp0QjRrFKBL1ChFwpAQlJQC31mnl2DwOLi0GzjUZVmxsnjK6EVG3TKin000lQmiuGVkpCJiJDxo30pNnuwRdHOtBm5b57VOglmNo3Bx6GxZfHOgI6lUSLWkFBn0Ohps0T995PFElg+60VYaekhiV4ALh2ZS12VMV3ZS0gECtjy+VYNr8k7OPD3kacG2MLGAGBRBCpLsMW/CX9VSkPVRUQ8IWiCMzqH1msUdiCV0tJjC/Pfp+8QOYwro8cmgir1EV09NVDAjvTCQikCq5OiaGISPAzKhRZH0wmkBlocijMqIh8fygiwYtIApcOSU7vUAGBYFw6JDeiDoNdRJwmfP2w3KTlKAoIcEEQwMIoY+sjFny5WozzQkQWCggkkvP750RdVSOqQhB3jdSGPkggaxCLiLTJugKAO2PQX1SZtaOKZBhcJMUhjuwdgdBIxWRUNWdoBgFb8zeNiq0iwPu7zSFjl16cUYi5lUpc8XkNdtc4Ynq9WBlcJOVNlAmHqFPJfztah7vWxD9zxZdrR6hx/9g8PPRdI28Syu1jtbh9hBZ3flmPH33izcf0keMfs4rxr59N+NeOwKg93/NH87ddLLu8BAPzpBi9+ITf42IRgXfmGzBEL8VzW4xYub+9+7nXLi7E9IrIZ8z1J624Y7X/Z373aB3v8Uqxd7HVESQz6sN97UEFf+9EHeZVKvHkpuaUix3w6i4iekTORC34mf1yMLBQmrDMGQCQUCQ0UhIikn86lIsI7zE9doFFlPdxeZAow+7zR/G3XagkJOfmxx+nF2JCiRyrj3b4iR0A3thpwieH2gP+JhRNHEFfPS80Xz643Btjct1/ayN+LQBYOFKDe0br8OqOVny42+z33PBSGRaN0OL+rxthT1JrpMoCKWZGkjzCESYWU7GQB8bl4fZVdbGcIiu5Y5wOCwYqcdzkwiPfNgU8v78ufjMlQQCLxupQY3FjzYHwMqbunaiD3cPi3z+aeCNIbxqlwROT9Fj8s6m7PqQvDg+LCSVyvH+pAQtX1MHKUX4k3jw4njttkJOuN9bDpRhT9cIL+yowNEQLw97GjEEq/N84r6Bu/7IBziDZRPGAZYEKtQgvTS3A4KLQWT8jyuS4e7QOQ/KknGInCOD+yXl4YpIer/3Yij//wF1641CDEwtX12GgTor3Ly1JeEWFocUyXNg3wo0mDv95zOU6H58UwVWX5QwukuKVaQUgADyyoQlVxsAaNIng9xuMqG534+3ZhqDCU8kpvDa9ECdMLjz2XeCdR5ND4e+zi7FohBZ/2NqCt3e1oVAtQolWjMoCKYYZZBjVR45J/RS4sDIHfdQSrDthxdn5UvxngQHyGLsvBuPRifHRWcz1z8YZ5LiwMierKxuEg04pwtuzDZCLCLy334y1BwPNi/RSGpsAAAvcSURBVDKdGNOiWKz25IdqG443n7mYnG4Gd37ZgLVXleGl6QW4c3WgM0EsIvDW3GJoZBRu+KSO0+7+6FclGKD1Zg49PjEPj4cQmZthYXWzON3uxrB8KZbMN2Dh8rq4J3lcWJmDCVxJ2j3q0vsRaSfuSHhqcj42nbDFnJrHx6MTdFg0gjtQqDiGoqfxZPHsIhTmUNjT5MALG7kTtss1YtxwFvf7MKhEEJMEai0eeEJkTNVbaT/BA8BJowuv/tiKh8bncU5AD07Kw/BCGW5eW4eqFu47z+Kf2zAkT4LaDg/anQw63Czsbhp2DwuLk4HdzcDhYWF1MnC6Wb/MrptGa/HExDxcd64a7/wU3LMVCSKKwJOTelRZ8LXFfH8PIwQgLoIvUYlw00gN3voxfm/UlwRkzMWdEYUyuGgWd33ZwHvhbz5hw7QTVQGPn2WQ4fPLSvHdKVtMToC3f2pDq4PBhmOBd9s3fjRha60dW07w55Mu39+O5VG+9pKfTDja6gx6/mi4aaTGf1c1WIJesBm/k7iVdL13jA6rj1jQaI5PHqQvL25vxdc8NVvunajDPZH6ZjsJ0bQ5ItYc68CcAUpcPSwXr23lL7jUExFF4OVpBWhzMnhwfWP34yRJIF9FBf085w7L5WzideNI72ZUV4K87+ZUz40qi5vFZ3v9XY5vzCkOyyXryy0r6uIu9kK1CPeO4flueZowBBU9y8ZP8HIRgecvKMBtK9PDTdlVayVYo1plp+Kjqb3Sk4fXN6G/Rox7RutQ00EHiIiP34zTYYBWgpvX1vmV4fvD9HxMLc/BnI9O85bGu2aICgODlIju2ngKtjlVb3EHjHViiRzV7W7sagztPj1LL8XIGHY+g/H8BQXhX3gEEXz27ySuRbunliswZ6gqbH9wIqntnBkH6fjLN1R2LtCq2qIvRdGF08Xg5jX1WH1VGV44Px8NHe6QM964vnLcPVqLD34xY9Nx/2P/sq0VU8tz8O7cYlz5WS3nIvPaEBtKsWw8baiyhnWnumm0Nu6CJwDMHqrC1J71Znh862f+kDjTb4rnmLj7kZ6ekg+tMvVJIq0dHtRY3BhdLIdOGXhdK6QkJpcpcLLNBVOQ+uyR0NzuwW1f1INmWLw+oyhof6P8XBFen1mM/c1OPM+xyDVaPLh1bT36ayV485KiXpNPTMDr8Xp6CkcV5i4RR1NvpZO4C14jJfHXmUVpETO/7Jd2UATw7AX5AeN5cFIe5CIC7+4Lz/QIl321Djy6sRm5UhLvzzNwXmx6lQj/mW8ASQC3r62Hm6e84P46B37/gxFTyhR47LzE1oNMNd5q8ywIgsVfZhRAIwnPRAk8Ec9F0fnvhPQhmVwqx8KRGizd2ZaI04fNu7vasGCgChf3y8FHV5TiowPtcDPA/EolppYrsLPBgY/38Me0TCxVABMDr9x/7TQFjR9Zub8dg7QS3D5Cg6Xz/E0StYLC+uv6QCkhcbrdjT9dWACKJKCSECAJArmd64pcKQWCOGOH33i2Gr8Ynfh8X+QxOOmMX/dWFrhhpAaTS3187mF4XsJ7ISK+i9aePDw+D1tP23G0KXUhxG4Pi2s+r8WzF+RjVn9ld1gpzQKfHmrHsxuNQauEjSqScYaifrDPHDJg6s+bjajUSTC1XIHXZxXhtpV1YFnAbKNxuNWFwhwKNRYP3DSLVjuNE20MzA4GVjcDD8PC7GTgZljY3N7Hfj9Jj+fPy8exVhf21iY+avGe0dF7vyLHK/bKQhkenqAPbrqEYacHI+zKY9FQZXZj3senow4sElEEJCICTg/LW4JPLCIgpoiAjZCeaHIo9NGIQbPAqVZX0DFRJAGpmP/DtLuY7u9CKiFBEd76jMHO4/s3JEmAiXBzoUwnxsvTC3H/N42oDbPeY7SL1l2L+uG7Khs+PBDa3JtXqcR1w9QY8LdjEb1GF95Ph4VCSmHV1WWBfVb5Fqoh3I+cf4MECx4ANlR5N1MS+yoCXNzY6XOP1LS8doQa+5ucYd1JBhdJMb5EjiVRmq8EAIJgsXheSaBXBggueK7HQzyXcMEDwCs7WvEmR4ipgADgDad+YByP+RTOTA5wm0GJiJYMh/vH6jAzSCtHgd7L9IHK4GIPhq+gu+x6rud8SIrgAeAv08KL1xboPQwukuKv0wtjOwmXsIMsZpMmeLmIwJK5BhRr0iO6USC1FGvEWDLXEDp0IBxPTFfL+66fICRN8IC3u/V784oT0jNKIHNQK7w60AfLkgoVFRklSRU8AFRoJHh/QfDMHIHsRSWn8P4CAyo0YbSo4fLM+EZFRkHSBQ8AQ/RSvDuvOKEpYQLph1xK4t15xRgSTZ/ZngKPcvc1ZYobXijD23MF0fcW5FISb88txvDCMCIre2Y09fS+xBBqkBQ/fDD2NjmxcEUtOpJQ5kEgNShlJJYuMODcggjCiOM0o/ck5YIHgMMtTly3oo63u5xA5qJWUFh2qSGgGXJIIsxVDZe0EDzgbeK7cFU96uOQjCGQHhRrxHhvXnF4C9QkkTaCB4BWB4Ob19TFtTKXQGo4yyDDO3MM0IXZPzVZpJXgAW8H6Hu/acT6I/Ht/C2QPKYPVOK1GYURN05OBmkn+C7+9mMrXt/eKkRZZhAEAdwzXoff8lUaSAPSVvAAsLHahvvWNcJiFxaz6Y5SRuK1i4twfp/IG40lk7QWPADUWjy4/ct6HBaaL6Qtg4qkWDyrCKWq9I+TSnvBA4CHYfHy/1rx9k/85Z0Fkg9BALeM1uKBcbqoOuqlgowQfBc76uy49+tGNLfHv7qZQGToVSK8dlEhxhkyqzt7RgkeACwuBs9tMWZd9n4m8auzc/HkJD1U8axVmCQyTvBdbK6x4/ENTWEnNAvETolWjD9MLfAvo5FhZKzgAcBFs3hzpwn/3tkW95rkAmeQikncNkqDu0ZpIUlD33okZLTgu2i00vjjthasOSCYOfFmzlAVHp2gR2FOduQvZIXgu9jZ4MBL21uw06cFpUB0jOojx0Pj82LqiZqOZJXgu9hWa8dL21uwLwkVurKNs0tkeGh8HneLmSwgKwXfxQ+nbfjHLhN2VAkzfijGlsuxaIQ27XdKYyWrBd/FQaMT//y5DV8d6eAt2dcboSgCFw9U4o4RmujS7jKQXiH4LhqtND78xYyPfmnn7arRGyhUi3D1MDWuGpqLgl5WQaJXCb4LhvWaO58esmDDCWvCmwenA1IxiQv65+DqISpMKctusyUYvVLwvjg8LL49ZcWqoxb8cMoGlzt7Pg6xiMB5FQrMq1RhWt8cyCJsVJaN9HrB++KkWWyrtePbU1Z8f8qWkemG+bkiTClXYEbfHEwuU0TcjS/b6fWCpxkGHpqBh2HgoWl4aAY0w4BmWLTWncZWhx4/NbhxtNWNalP6xeUXqkU4Sy/C6CIxBukkGKwTgSJJiCgSIpaBSCKFiCRAUb3LVuej1wne5fHA5aHhdHv/TzPh2+9tTga7m2nUdXhwvI1GVbsHVSaat0dTPBGLCJRrKZTnitBfQ8GgFGF4PgVNmHV9KJKERERBKhZBIpZkfIhAtPQKwbtpGlaHC3aXOyKBh0uNQ4q2jg6c7mDQbKPR6mBhcbFoc9IwO1nYPQQcnbE+bg8LN8NCTBIQd5obMjEJuYiFWkpAI6WgkhDQyQjkKyiUKUlolEqUyuKbAEORJOQSMVRyKSgy86IeoyXrBd/hcMJstSOr32QMEADUOXIoZb3DD5/1l7bF7hTEHgQWQLut94RgZL3gtTnyXnXLjhSKJKFT9h6/fNabNADAsixsLjfsThecbk+vn/EJAFKxCHKpBAqJGEQ6dJFOEr1C8L6wLNvtoXHTdMSemkxETJEQURTEFNXtqelNIvel1wmeC4Zl4fbQ8DAMaJqBm6bBsixcHu//0/0DIgCIKBIEQUBMUaBIEhRFQkSSEIsokL1U3FwIgg8DlgU8jFf8NMOCYVkwDAOGZTvLl3sfAxBwt6AZFiThjd8hCXQ3TyYIwu/xrscAr13Nsmz32oMgCBAEQBIESJIESRCgSAJU1/HCplLYCIIX6FUI7guBXoUgeIFexf8DtyhcedthR9cAAAAASUVORK5CYII=;" vertex="1" parent="1">
          <mxGeometry x="-284.03" y="857" width="94.03" height="95.53" as="geometry" />
        </mxCell>
      </root>
    </mxGraphModel>
  </diagram>
</mxfile>
